<svg width="18" height="18" viewBox="0 0 18 18" fill="none" xmlns="http://www.w3.org/2000/svg">
<path fill-rule="evenodd" clip-rule="evenodd" d="M1.63588 9C1.63588 4.93318 4.93269 1.63636 8.99951 1.63636C13.0663 1.63636 16.3631 4.93318 16.3631 9C16.3631 13.0668 13.0663 16.3636 8.99951 16.3636C4.93269 16.3636 1.63588 13.0668 1.63588 9ZM8.99951 0C4.02895 0 -0.000488281 4.02944 -0.000488281 9C-0.000488281 13.9706 4.02895 18 8.99951 18C13.9701 18 17.9995 13.9706 17.9995 9C17.9995 4.02944 13.9701 0 8.99951 0ZM8.87661 4.49998C9.32706 4.49998 9.69223 4.86514 9.69223 5.3156V8.20341H12.6841C13.1346 8.20341 13.4998 8.56858 13.4998 9.01904C13.4998 9.46949 13.1346 9.83466 12.6841 9.83466H9.69223V12.6844C9.69223 13.1348 9.32706 13.5 8.8766 13.5C8.42615 13.5 8.06098 13.1348 8.06098 12.6844V9.83466H5.31539C4.86493 9.83466 4.49976 9.46949 4.49976 9.01904C4.49976 8.56858 4.86493 8.20341 5.31539 8.20341H8.06098V5.3156C8.06098 4.86514 8.42615 4.49998 8.87661 4.49998Z" fill="white"/>
</svg>
