<svg width="18" height="18" viewBox="0 0 18 18" fill="none" xmlns="http://www.w3.org/2000/svg">
<path fill-rule="evenodd" clip-rule="evenodd" d="M1.63636 9C1.63636 4.93318 4.93318 1.63636 9 1.63636C13.0668 1.63636 16.3636 4.93318 16.3636 9C16.3636 13.0668 13.0668 16.3636 9 16.3636C4.93318 16.3636 1.63636 13.0668 1.63636 9ZM9 0C4.02944 0 0 4.02944 0 9C0 13.9706 4.02944 18 9 18C13.9706 18 18 13.9706 18 9C18 4.02944 13.9706 0 9 0ZM8.87709 4.49998C9.32755 4.49998 9.69272 4.86514 9.69272 5.3156V8.20341H12.6846C13.1351 8.20341 13.5002 8.56858 13.5002 9.01904C13.5002 9.46949 13.1351 9.83466 12.6846 9.83466H9.69272V12.6844C9.69272 13.1348 9.32755 13.5 8.87709 13.5C8.42664 13.5 8.06147 13.1348 8.06147 12.6844V9.83466H5.31588C4.86542 9.83466 4.50025 9.46949 4.50025 9.01904C4.50025 8.56858 4.86542 8.20341 5.31588 8.20341H8.06147V5.3156C8.06147 4.86514 8.42664 4.49998 8.87709 4.49998Z" fill="#333333"/>
</svg>
