<svg width="16" height="16" viewBox="0 0 16 16" fill="none" xmlns="http://www.w3.org/2000/svg">
  <path d="M6.31938 2.26215L6.64158 4.36642L6.23275 4.42026L6.27074 4.47198L5.32466 5.065L5.13164 5.19395C4.13996 5.89467 3.55103 6.95672 3.55103 8.1045C3.55103 9.74965 4.76764 11.1936 6.52455 11.6641L7.62034 11.9567L6.9919 14L5.89611 13.7067C3.17943 12.9805 1.27129 10.7161 1.27129 8.1045C1.27129 6.95814 1.63908 5.86774 2.2964 4.94455L1.3222 5.07492L1 2.97065L6.31938 2.26215ZM8.73893 2L9.83472 2.29261C12.5514 3.01954 14.4595 5.28393 14.4595 7.89549C14.4595 8.96439 14.137 10.0128 13.5288 10.9189L14.6778 10.7651L15 12.8694L9.68064 13.5779L9.35844 11.4736L9.5963 11.4417L10.4048 10.9352L10.5979 10.8069C11.5903 10.1055 12.1792 9.04416 12.1792 7.89638C12.1792 6.25122 10.9619 4.80728 9.20494 4.33682L8.10991 4.0435L8.73893 2Z" fill="#00C891" stroke="white"/>
</svg>
