<svg width="16" height="16" viewBox="0 0 16 16" fill="none" xmlns="http://www.w3.org/2000/svg">
<path fill-rule="evenodd" clip-rule="evenodd" d="M1.33301 2.66797C1.33301 1.5634 2.22844 0.667969 3.33301 0.667969H12.6663C13.7709 0.667969 14.6663 1.5634 14.6663 2.66797V13.3346C14.6663 14.4392 13.7709 15.3346 12.6663 15.3346H3.33301C2.22844 15.3346 1.33301 14.4392 1.33301 13.3346V2.66797ZM2.66618 2.66732C2.66618 2.29913 2.96466 2.00065 3.33285 2.00065H12.6662C13.0344 2.00065 13.3328 2.29913 13.3328 2.66732V13.334C13.3328 13.7022 13.0344 14.0007 12.6662 14.0007H3.33285C2.96466 14.0007 2.66618 13.7022 2.66618 13.334V2.66732ZM4.66642 7.33366C4.29823 7.33366 3.99976 7.63214 3.99976 8.00033C3.99976 8.36852 4.29823 8.66699 4.66642 8.66699H10.6664C11.0346 8.66699 11.3331 8.36852 11.3331 8.00033C11.3331 7.63214 11.0346 7.33366 10.6664 7.33366H4.66642ZM3.99976 4.66764C3.99976 4.29945 4.29823 4.00098 4.66642 4.00098H7.99976C8.36795 4.00098 8.66642 4.29945 8.66642 4.66764C8.66642 5.03583 8.36795 5.33431 7.99976 5.33431H4.66642C4.29823 5.33431 3.99976 5.03583 3.99976 4.66764ZM4.66642 10.6676C4.29823 10.6676 3.99976 10.9661 3.99976 11.3343C3.99976 11.7025 4.29823 12.001 4.66642 12.001H7.99976C8.36795 12.001 8.66642 11.7025 8.66642 11.3343C8.66642 10.9661 8.36795 10.6676 7.99976 10.6676H4.66642Z" fill="#333333"/>
</svg>
