<svg width="12" height="12" viewBox="0 0 12 12" fill="none" xmlns="http://www.w3.org/2000/svg">
<path fill-rule="evenodd" clip-rule="evenodd" d="M6.61719 0.658599C6.61719 0.294865 6.32232 0 5.95859 0C5.59485 0 5.29999 0.294865 5.29999 0.658599V5.34101L0.674224 5.341C0.31049 5.341 0.015625 5.63587 0.015625 5.9996C0.015625 6.36334 0.31049 6.6582 0.674224 6.6582L5.29999 6.6582V11.3414C5.29999 11.7051 5.59485 12 5.95859 12C6.32232 12 6.61719 11.7051 6.61719 11.3414V6.6582L11.3 6.6582C11.6638 6.6582 11.9586 6.36334 11.9586 5.9996C11.9586 5.63587 11.6638 5.34101 11.3 5.34101L6.61719 5.34101V0.658599Z" fill="#00C891"/>
</svg>
