<?xml version="1.0" encoding="UTF-8"?>
<svg width="17px" height="16px" viewBox="0 0 17 16" version="1.1" xmlns="http://www.w3.org/2000/svg" xmlns:xlink="http://www.w3.org/1999/xlink">
    <!-- Generator: Sketch 52.4 (67378) - http://www.bohemiancoding.com/sketch -->
    <title>Add</title>
    <g id="Page-1" stroke="none" stroke-width="1" fill="none" fill-rule="evenodd">
        <g id="noun_Wallet_972515-07-Copy">
            <path d="M12.24,14.1492308 L2.43230769,14.1492308 C1.27675806,14.1492308 0.34,13.2124727 0.34,12.0569231 L0.34,2.43230769 C0.343589636,1.27824821 1.27824821,0.343589636 2.43230769,0.34 L12.24,0.34 C13.3233278,0.34 14.2015385,1.21821068 14.2015385,2.30153846 L14.2015385,12.2334615 C14.2016858,12.7495855 13.9935757,13.2439356 13.6243386,13.6045571 C13.2551015,13.9651787 12.7559767,14.1615614 12.24,14.1492308 Z M2.43884615,0.915384615 C1.60107267,0.915384615 0.921923077,1.59453421 0.921923077,2.43230769 L0.921923077,12.0569231 C0.921923077,12.8946966 1.60107267,13.5738462 2.43884615,13.5738462 L12.2465385,13.5738462 C12.6020306,13.5738462 12.9429626,13.4326275 13.1943335,13.1812566 C13.4457044,12.9298857 13.5869231,12.5889536 13.5869231,12.2334615 L13.5869231,2.28192308 C13.5833241,1.52614831 12.9696295,0.915376046 12.2138462,0.915384615 L2.43884615,0.915384615 Z" id="Shape" fill="#FFFFFF" fill-rule="nonzero"></path>
            <path d="M13.005,10.6969231 L9.84038462,10.6969231 C8.72816811,10.6969231 7.8265385,9.79529343 7.8265385,8.68307692 C7.8265385,7.57086042 8.72816811,6.66923079 9.84038462,6.66923077 L13.005,6.66923077 C13.1581374,6.67100132 13.3055197,6.61094934 13.4138115,6.50265761 C13.5221032,6.39436587 13.5821552,6.24698356 13.5803846,6.09384615 L13.5803846,5.07384615 L14.1557692,5.07384615 L14.1557692,6.09384615 C14.1557692,6.72939845 13.6405523,7.24461538 13.005,7.24461538 L9.84038462,7.24461538 C9.04594424,7.24461538 8.40192308,7.88863655 8.40192308,8.68307692 C8.40192308,9.47751729 9.04594424,10.1215385 9.84038462,10.1215385 L13.005,10.1215385 C13.1581374,10.123309 13.3055197,10.063257 13.4138115,9.9549653 C13.5221032,9.84667356 13.5821552,9.69929125 13.5803846,9.54615385 L13.5803846,8.65038462 L14.1557692,8.65038462 L14.1557692,9.54615385 C14.1557692,10.1817061 13.6405523,10.6969231 13.005,10.6969231 Z" id="Path" fill="#FFFFFF"></path>
            <path d="M14.1557692,5.70807692 L13.5803846,5.70807692 C13.5803846,5.35258482 13.4391659,5.01165275 13.1877951,4.76028187 C12.9364242,4.508911 12.5954921,4.36769231 12.24,4.36769231 L2.36038462,4.36769231 C1.82627941,4.36769231 1.31404976,4.15551984 0.936380344,3.77785043 C0.558710929,3.40018101 0.346538462,2.88795136 0.346538462,2.35384615 L0.921923077,2.35384615 C0.921923077,3.14828652 1.56594424,3.79230769 2.36038462,3.79230769 L12.24,3.79230769 C13.2980501,3.79230769 14.1557692,4.65002679 14.1557692,5.70807692 Z" id="Path" fill="#FFFFFF"></path>
            <path d="M13.005,4.08 L12.4230769,4.08 L12.4230769,3.21692308 C12.4301813,3.0609715 12.3736119,2.90882717 12.2663485,2.79539914 C12.159085,2.68197112 12.0103358,2.61699689 11.8542308,2.61538462 L2.64807692,2.61538462 C2.33030077,2.61538462 2.07269231,2.87299308 2.07269231,3.19076923 L2.07269231,4.08 L1.49730769,4.08 L1.49730769,3.21692308 C1.49730769,2.58137078 2.01252463,2.06615385 2.64807692,2.06615385 L11.8542308,2.06615385 C12.1594337,2.06615385 12.4521364,2.18739526 12.6679475,2.40320635 C12.8837586,2.61901744 13.005,2.9117201 13.005,3.21692308 L13.005,4.08 Z" id="Path" fill="#FFFFFF"></path>
            <circle id="Oval" fill="#FFFFFF" cx="13.4169231" cy="11.5730769" r="3.45884615"></circle>
            <rect id="Rectangle" fill="#000000" x="11.6842308" y="11.2134615" width="3.46538462" height="1"></rect>
            <polygon id="Rectangle" fill="#000000" transform="translate(13.420192, 11.566538) rotate(90.000000) translate(-13.420192, -11.566538) " points="11.6875 11.2101923 15.1528846 11.2101923 15.1528846 11.9228846 11.6875 11.9228846"></polygon>
        </g>
    </g>
</svg>