<?xml version="1.0" encoding="UTF-8"?>
<svg width="12" height="12" viewBox="0 0 12 12" fill="none" xmlns="http://www.w3.org/2000/svg">
  <path fill-rule="evenodd" clip-rule="evenodd" d="M1.49115 10.4268C1.14987 10.7074 1.1007 11.2115 1.38131 11.5528C1.66192 11.8941 2.16606 11.9432 2.50733 11.6626L8.37168 6.84071C8.5565 6.68875 8.66359 6.46204 8.66359 6.22278C8.66359 5.98351 8.5565 5.7568 8.37168 5.60484L2.50733 0.782913C2.16606 0.502301 1.66192 0.551478 1.38131 0.892755C1.1007 1.23403 1.14987 1.73817 1.49115 2.01878L6.60398 6.22278L1.49115 10.4268ZM9.19924 1.49978L9.19924 10.9998C9.19924 11.4416 9.55741 11.7998 9.99924 11.7998C10.4411 11.7998 10.7992 11.4416 10.7992 10.9998L10.7992 1.49978C10.7992 1.05795 10.4411 0.699782 9.99924 0.699782C9.55741 0.699782 9.19924 1.05795 9.19924 1.49978Z" fill="#666666" />
</svg>
