<?xml version="1.0" standalone="no"?><!DOCTYPE svg PUBLIC "-//W3C//DTD SVG 1.1//EN" "http://www.w3.org/Graphics/SVG/1.1/DTD/svg11.dtd"><svg t="1645448460668" class="icon" viewBox="0 0 1024 1024" version="1.1" xmlns="http://www.w3.org/2000/svg" p-id="10610" width="16" height="16" xmlns:xlink="http://www.w3.org/1999/xlink"><defs><style type="text/css"></style></defs><path d="M502.869333 201.408a32.853333 32.853333 0 0 1 0 45.44L276.906667 480h544.384a32 32 0 0 1 0 64H276.885333l225.984 233.130667a32.853333 32.853333 0 0 1 0 45.44 30.485333 30.485333 0 0 1-44.053333 0L179.776 534.741333a32.128 32.128 0 0 1-6.848-10.688 32.213333 32.213333 0 0 1-0.085333-23.808l0.106666-0.32c1.514667-3.861333 3.797333-7.488 6.826667-10.624L458.837333 201.386667a30.485333 30.485333 0 0 1 44.053334 0z" fill="#666666" p-id="10611"></path></svg>