<svg width="14" height="14" viewBox="0 0 14 14" fill="none" xmlns="http://www.w3.org/2000/svg">
  <path fill-rule="evenodd" clip-rule="evenodd" d="M7 12.6C10.0928 12.6 12.6 10.0928 12.6 7C12.6 3.90721 10.0928 1.4 7 1.4C3.90721 1.4 1.4 3.90721 1.4 7C1.4 10.0928 3.90721 12.6 7 12.6ZM14 7C14 10.866 10.866 14 7 14C3.13401 14 0 10.866 0 7C0 3.13401 3.13401 0 7 0C10.866 0 14 3.13401 14 7ZM7.00021 5.8188C7.38681 5.8188 7.70021 6.1322 7.70021 6.5188V9.3188C7.70021 9.7054 7.38681 10.0188 7.00021 10.0188C6.61361 10.0188 6.30021 9.7054 6.30021 9.3188V6.5188C6.30021 6.1322 6.61361 5.8188 7.00021 5.8188ZM7.00021 3.01875C6.61361 3.01875 6.30021 3.33215 6.30021 3.71875C6.30021 4.10535 6.61361 4.41875 7.00021 4.41875H7.00712C7.39372 4.41875 7.70712 4.10535 7.70712 3.71875C7.70712 3.33215 7.39372 3.01875 7.00712 3.01875H7.00021Z" fill="#F68C2A"/>
</svg>
