<svg width="16" height="16" viewBox="0 0 16 16" fill="none" xmlns="http://www.w3.org/2000/svg">
  <path fill-rule="evenodd" clip-rule="evenodd" d="M8 14.4C11.5346 14.4 14.4 11.5346 14.4 8C14.4 4.46538 11.5346 1.6 8 1.6C4.46538 1.6 1.6 4.46538 1.6 8C1.6 11.5346 4.46538 14.4 8 14.4ZM16 8C16 12.4183 12.4183 16 8 16C3.58172 16 0 12.4183 0 8C0 3.58172 3.58172 0 8 0C12.4183 0 16 3.58172 16 8ZM8 6.64999C8.44183 6.64999 8.8 7.00816 8.8 7.44999V10.65C8.8 11.0918 8.44183 11.45 8 11.45C7.55817 11.45 7.2 11.0918 7.2 10.65V7.44999C7.2 7.00816 7.55817 6.64999 8 6.64999ZM8 3.45C7.55817 3.45 7.2 3.80818 7.2 4.25C7.2 4.69183 7.55817 5.05 8 5.05H8.008C8.44983 5.05 8.808 4.69183 8.808 4.25C8.808 3.80818 8.44983 3.45 8.008 3.45H8Z" fill="#FF9737"/>
</svg>
