<?xml version="1.0" encoding="UTF-8"?>
<svg width="17px" height="16px" viewBox="0 0 17 16" version="1.1" xmlns="http://www.w3.org/2000/svg" xmlns:xlink="http://www.w3.org/1999/xlink">
    <!-- Generator: Sketch 52.4 (67378) - http://www.bohemiancoding.com/sketch -->
    <title>Shape Copy</title>
    <desc>Created with Sketch.</desc>
    <g id="Page-1" stroke="none" stroke-width="1" fill="none" fill-rule="evenodd">
        <path d="M9,0 C5.19311,0 1.9983825,2.68041 1.1953125,6.249995 L0,6.249995 L2,8.7500025 L4,6.249995 L2.7421875,6.249995 C3.503435,3.50627 6.00873,1.5 9,1.5 C12.5987425,1.5 15.5,4.401295 15.5,8.0000025 C15.5,11.5987275 12.5987425,14.5000025 9,14.5000025 C6.554585,14.5000025 4.4301375,13.1597025 3.3203125,11.1718775 L2.0859375,12.0156275 C3.47351,14.3976025 6.0516875,16.0000025 9,16.0000025 C13.4094075,16.0000025 17,12.4093775 17,8.0000025 C17,3.59062 13.4094075,0 9,0 Z M6.75,9.2500025 L9.5,9.2500025 L10.25,9.2500025 L10.25,8.5000025 L10.25,5.249995 L10.25,4.499995 L8.75,4.499995 L8.75,5.249995 L8.75,7.7500025 L6.75,7.7500025 L6.75,9.2500025 Z" id="Shape-Copy" fill="#FFFFFF" fill-rule="nonzero"></path>
    </g>
</svg>