<?xml version="1.0" encoding="UTF-8"?>
<svg width="60px" height="60px" viewBox="0 0 60 60" version="1.1" xmlns="http://www.w3.org/2000/svg" xmlns:xlink="http://www.w3.org/1999/xlink">
    <!-- Generator: Sketch 62 (91390) - https://sketch.com -->
    <title>Backup</title>
    <g stroke="none" stroke-width="1" fill="none" fill-rule="evenodd">
        <path d="M30,24 C31.7248153,24 33.1339402,25.3304855 33.2259654,27.0057138 L33.2307458,27.1802026 L33.2306154,49.2346557 L40.0286308,43.8420136 C41.4279934,42.7523178 43.1958794,43.0936203 44.3028939,44.4710907 C45.3717354,45.801062 45.1876597,47.7114013 43.9141586,48.8223785 L43.7735507,48.9382902 L30,60 L16.2264493,48.9382902 C14.8270867,47.8485943 14.5900917,45.848561 15.6971061,44.4710907 C16.7659477,43.1411193 18.6969148,42.8777823 20.0883493,43.8420136 L20.2353032,43.9500288 L26.7691238,49.2355644 L26.7692542,27.1802026 C26.7692542,25.4238252 28.2157084,24 30,24 Z M51,6.03961325e-14 C52.1045695,6.03961325e-14 53,0.8954305 53,2 L53,37 C53,38.1045695 52.1045695,39 51,39 L37,39 L37,33 L47,33 L47,6 L13,6 L13,33 L23,33 L23,39 L9,39 C7.8954305,39 7,38.1045695 7,37 L7,2 C7,0.8954305 7.8954305,6.03961325e-14 9,6.03961325e-14 L51,6.03961325e-14 Z"></path>
    </g>
</svg>
