<svg width="488" height="200" viewBox="0 0 488 200" fill="none" xmlns="http://www.w3.org/2000/svg">
<mask id="mask0_1023_15240" style="mask-type:alpha" maskUnits="userSpaceOnUse" x="0" y="0" width="488" height="200">
<rect width="488" height="200" rx="16" fill="#26C786"/>
</mask>
<g mask="url(#mask0_1023_15240)">
<path fill-rule="evenodd" clip-rule="evenodd" d="M390.248 -16.4318C381.726 -11.4536 370.768 -0.278263 365.459 17.0913C360.146 34.4743 360.503 58.0195 374.548 87.7138C409.449 161.505 386.5 243.213 321.748 281.068L322.252 281.932C387.5 243.787 410.55 161.495 375.452 87.2862C361.496 57.7804 361.187 34.4924 366.416 17.3836C371.649 0.261541 382.441 -10.7131 390.752 -15.5683L390.248 -16.4318ZM410.248 -16.4318C401.726 -11.4536 390.768 -0.278263 385.459 17.0913C380.146 34.4743 380.503 58.0195 394.548 87.7138C429.449 161.505 406.5 243.213 341.748 281.068L342.252 281.932C407.5 243.787 430.55 161.495 395.452 87.2862C381.496 57.7804 381.187 34.4924 386.416 17.3836C391.649 0.261541 402.441 -10.7131 410.752 -15.5683L410.248 -16.4318ZM405.459 17.0913C410.768 -0.278263 421.726 -11.4536 430.248 -16.4318L430.752 -15.5683C422.441 -10.7131 411.649 0.261541 406.416 17.3836C401.187 34.4924 401.496 57.7804 415.452 87.2862C450.55 161.495 427.5 243.787 362.252 281.932L361.748 281.068C426.5 243.213 449.449 161.505 414.548 87.7138C400.503 58.0195 400.146 34.4743 405.459 17.0913ZM450.248 -16.4318C441.726 -11.4536 430.768 -0.278263 425.459 17.0913C420.146 34.4743 420.503 58.0195 434.548 87.7138C469.449 161.505 446.5 243.213 381.748 281.068L382.252 281.932C447.5 243.787 470.55 161.495 435.452 87.2862C421.496 57.7804 421.187 34.4924 426.416 17.3836C431.649 0.261541 442.441 -10.7131 450.752 -15.5683L450.248 -16.4318ZM445.459 17.0913C450.768 -0.278263 461.726 -11.4536 470.248 -16.4318L470.752 -15.5683C462.441 -10.7131 451.649 0.261541 446.416 17.3836C441.187 34.4924 441.496 57.7804 455.452 87.2862C490.55 161.495 467.5 243.787 402.252 281.932L401.748 281.068C466.5 243.213 489.449 161.505 454.548 87.7138C440.503 58.0195 440.146 34.4743 445.459 17.0913ZM490.248 -16.4318C481.726 -11.4536 470.768 -0.278263 465.459 17.0913C460.146 34.4743 460.503 58.0195 474.548 87.7138C509.449 161.505 486.5 243.213 421.748 281.068L422.252 281.932C487.5 243.787 510.55 161.495 475.452 87.2862C461.496 57.7804 461.187 34.4924 466.416 17.3836C471.649 0.261541 482.441 -10.7131 490.752 -15.5683L490.248 -16.4318Z" fill="url(#paint0_linear_1023_15240)"/>
<path fill-rule="evenodd" clip-rule="evenodd" d="M400.5 -18C391.978 -13.0218 381.02 -1.8465 375.712 15.5231C370.399 32.906 370.756 56.4513 384.8 86.1455C419.702 159.937 396.752 241.645 332 279.5L332.505 280.363C397.753 242.219 420.803 159.926 385.704 85.7179C371.749 56.2122 371.439 32.9241 376.668 15.8154C381.901 -1.3067 392.693 -12.2814 401.005 -17.1365L400.5 -18ZM420.5 -18C411.978 -13.0218 401.02 -1.8465 395.712 15.5231C390.399 32.906 390.756 56.4513 404.8 86.1455C439.702 159.937 416.752 241.645 352 279.5L352.505 280.363C417.753 242.219 440.803 159.926 405.704 85.7179C391.749 56.2122 391.439 32.9241 396.668 15.8154C401.901 -1.3067 412.693 -12.2814 421.005 -17.1365L420.5 -18ZM415.712 15.5231C421.02 -1.8465 431.978 -13.0218 440.5 -18L441.005 -17.1365C432.693 -12.2814 421.901 -1.3067 416.668 15.8154C411.439 32.9241 411.749 56.2122 425.704 85.7179C460.803 159.926 437.753 242.219 372.505 280.363L372 279.5C436.752 241.645 459.702 159.937 424.8 86.1455C410.756 56.4513 410.399 32.906 415.712 15.5231ZM460.5 -18C451.978 -13.0218 441.02 -1.8465 435.712 15.5231C430.399 32.906 430.756 56.4513 444.8 86.1455C479.702 159.937 456.752 241.645 392 279.5L392.505 280.363C457.753 242.219 480.803 159.926 445.704 85.7179C431.749 56.2122 431.439 32.9241 436.668 15.8154C441.901 -1.3067 452.693 -12.2814 461.005 -17.1365L460.5 -18ZM455.712 15.5231C461.02 -1.8465 471.978 -13.0218 480.5 -18L481.005 -17.1365C472.693 -12.2814 461.901 -1.3067 456.668 15.8154C451.439 32.9241 451.749 56.2122 465.704 85.7179C500.803 159.926 477.753 242.219 412.505 280.363L412 279.5C476.752 241.645 499.702 159.937 464.8 86.1455C450.756 56.4513 450.399 32.906 455.712 15.5231ZM500.5 -18C491.978 -13.0218 481.02 -1.84647 475.712 15.5231C470.399 32.9061 470.756 56.4513 484.8 86.1455C519.702 159.937 496.752 241.645 432 279.5L432.505 280.363C497.753 242.219 520.803 159.926 485.704 85.718C471.749 56.2122 471.439 32.9241 476.668 15.8154C481.901 -1.30667 492.693 -12.2814 501.005 -17.1365L500.5 -18ZM486.459 15.5231C491.768 -1.84647 502.726 -13.0218 511.248 -18L511.752 -17.1365C503.441 -12.2814 492.649 -1.30667 487.416 15.8154C482.187 32.9241 482.497 56.2122 496.452 85.718C531.551 159.926 508.5 242.219 443.252 280.363L442.748 279.5C507.5 241.645 530.449 159.937 495.548 86.1455C481.503 56.4513 481.147 32.9061 486.459 15.5231ZM523.248 -18C514.726 -13.0218 503.768 -1.84647 498.459 15.5231C493.147 32.9061 493.503 56.4513 507.548 86.1455C542.449 159.937 519.5 241.645 454.748 279.5L455.252 280.363C520.5 242.219 543.551 159.926 508.452 85.718C494.497 56.2122 494.187 32.9241 499.416 15.8154C504.649 -1.30667 515.441 -12.2814 523.752 -17.1365L523.248 -18Z" fill="url(#paint1_linear_1023_15240)"/>
</g>
<defs>
<linearGradient id="paint0_linear_1023_15240" x1="779.5" y1="-43" x2="322" y2="108" gradientUnits="userSpaceOnUse">
<stop stop-color="white"/>
<stop offset="1" stop-color="white" stop-opacity="0"/>
</linearGradient>
<linearGradient id="paint1_linear_1023_15240" x1="789.752" y1="-44.5682" x2="332.252" y2="106.432" gradientUnits="userSpaceOnUse">
<stop stop-color="white"/>
<stop offset="1" stop-color="white" stop-opacity="0"/>
</linearGradient>
</defs>
</svg>
