<?xml version="1.0" encoding="UTF-8"?>
<svg width="60px" height="60px" viewBox="0 0 60 60" version="1.1" xmlns="http://www.w3.org/2000/svg" xmlns:xlink="http://www.w3.org/1999/xlink">
    <!-- Generator: Sketch 62 (91390) - https://sketch.com -->
    <desc>Created with Sketch.</desc>
    <g id="sync_syncing" stroke="none" stroke-width="1" fill="none" fill-rule="evenodd">
        <path d="M7.50922927,30.1415416 C7.50309563,30.297247 7.5,30.453733 7.5,30.610942 C7.5,36.9864306 12.5912151,42.1728022 18.9297874,42.326199 L19.21875,42.329692 L39.994,42.329 L35.7314185,37.6393615 L39.8935815,33.8555771 L50.9884835,46.0599693 L39.8935815,58.2643615 L35.7314185,54.4805771 L39.959,49.829 L19.21875,49.829692 C8.60452746,49.829692 -1.0658141e-14,41.2251645 -1.0658141e-14,30.610942 L0.00561171759,30.141893 L7.50922927,30.1415416 Z M22.2384835,22.625 L18.0763206,26.4087845 L6.98141854,14.2043922 L18.0763206,2 L22.2384835,5.78378447 L17.992,10.454 L40.78125,10.4543922 C51.3954725,10.4543922 60,19.0589197 60,29.6731422 L59.9943883,30.1421912 L52.4907707,30.1425426 C52.4969044,29.9868372 52.5,29.8303513 52.5,29.6731422 C52.5,23.2976536 47.4087849,18.111282 41.0702126,17.9578852 L40.78125,17.9543922 L17.992,17.954 L22.2384835,22.625 Z" id="Combined-Shape" fill="#888888" fill-rule="nonzero"></path>
    </g>
</svg>