<svg width="167" height="200" viewBox="0 0 167 200" fill="none" xmlns="http://www.w3.org/2000/svg">
  <path fill-rule="evenodd" clip-rule="evenodd"
    d="M69.2482 -16.4318C60.7262 -11.4536 49.7684 -0.278263 44.4597 17.0913C39.147 34.4743 39.5038 58.0195 53.5484 87.7138C88.4498 161.505 65.5002 243.213 0.748018 281.068L1.25271 281.932C66.5005 243.787 89.5509 161.495 54.4524 87.2862C40.4969 57.7804 40.1871 34.4924 45.416 17.3836C50.6491 0.261541 61.4412 -10.7131 69.7526 -15.5683L69.2482 -16.4318ZM89.2482 -16.4318C80.7262 -11.4536 69.7684 -0.278263 64.4597 17.0913C59.147 34.4743 59.5038 58.0195 73.5484 87.7138C108.45 161.505 85.5002 243.213 20.748 281.068L21.2527 281.932C86.5005 243.787 109.551 161.495 74.4524 87.2862C60.4969 57.7804 60.1871 34.4924 65.416 17.3836C70.6491 0.261541 81.4412 -10.7131 89.7526 -15.5683L89.2482 -16.4318ZM84.4597 17.0913C89.7684 -0.278263 100.726 -11.4536 109.248 -16.4318L109.753 -15.5683C101.441 -10.7131 90.6491 0.261541 85.416 17.3836C80.1871 34.4924 80.4969 57.7804 94.4524 87.2862C129.551 161.495 106.501 243.787 41.2527 281.932L40.748 281.068C105.5 243.213 128.45 161.505 93.5484 87.7138C79.5038 58.0195 79.147 34.4743 84.4597 17.0913ZM129.248 -16.4318C120.726 -11.4536 109.768 -0.278263 104.46 17.0913C99.147 34.4743 99.5038 58.0195 113.548 87.7138C148.45 161.505 125.5 243.213 60.748 281.068L61.2527 281.932C126.501 243.787 149.551 161.495 114.452 87.2862C100.497 57.7804 100.187 34.4924 105.416 17.3836C110.649 0.261541 121.441 -10.7131 129.753 -15.5683L129.248 -16.4318ZM124.46 17.0913C129.768 -0.278263 140.726 -11.4536 149.248 -16.4318L149.753 -15.5683C141.441 -10.7131 130.649 0.261541 125.416 17.3836C120.187 34.4924 120.497 57.7804 134.452 87.2862C169.551 161.495 146.501 243.787 81.2527 281.932L80.748 281.068C145.5 243.213 168.45 161.505 133.548 87.7138C119.504 58.0195 119.147 34.4743 124.46 17.0913ZM169.248 -16.4318C160.726 -11.4536 149.768 -0.278263 144.46 17.0913C139.147 34.4743 139.504 58.0195 153.548 87.7138C188.45 161.505 165.5 243.213 100.748 281.068L101.253 281.932C166.501 243.787 189.551 161.495 154.452 87.2862C140.497 57.7804 140.187 34.4924 145.416 17.3836C150.649 0.261541 161.441 -10.7131 169.753 -15.5683L169.248 -16.4318Z"
    fill="url(#paint0_linear_319_4539)" />
  <path fill-rule="evenodd" clip-rule="evenodd"
    d="M79.5002 -18C70.9782 -13.0218 60.0204 -1.8465 54.7117 15.5231C49.399 32.906 49.7558 56.4513 63.8004 86.1455C98.7018 159.937 75.7522 241.645 11 279.5L11.5047 280.363C76.7525 242.219 99.8029 159.926 64.7044 85.7179C50.7489 56.2122 50.4391 32.9241 55.668 15.8154C60.901 -1.3067 71.6932 -12.2814 80.0046 -17.1365L79.5002 -18ZM99.5002 -18C90.9782 -13.0218 80.0204 -1.8465 74.7117 15.5231C69.399 32.906 69.7558 56.4513 83.8004 86.1455C118.702 159.937 95.7522 241.645 31 279.5L31.5047 280.363C96.7525 242.219 119.803 159.926 84.7044 85.7179C70.7489 56.2122 70.4391 32.9241 75.668 15.8154C80.901 -1.3067 91.6932 -12.2814 100.005 -17.1365L99.5002 -18ZM94.7117 15.5231C100.02 -1.8465 110.978 -13.0218 119.5 -18L120.005 -17.1365C111.693 -12.2814 100.901 -1.3067 95.668 15.8154C90.4391 32.9241 90.7489 56.2122 104.704 85.7179C139.803 159.926 116.753 242.219 51.5047 280.363L51 279.5C115.752 241.645 138.702 159.937 103.8 86.1455C89.7558 56.4513 89.399 32.906 94.7117 15.5231ZM139.5 -18C130.978 -13.0218 120.02 -1.8465 114.712 15.5231C109.399 32.906 109.756 56.4513 123.8 86.1455C158.702 159.937 135.752 241.645 71 279.5L71.5047 280.363C136.753 242.219 159.803 159.926 124.704 85.7179C110.749 56.2122 110.439 32.9241 115.668 15.8154C120.901 -1.3067 131.693 -12.2814 140.005 -17.1365L139.5 -18ZM134.712 15.5231C140.02 -1.8465 150.978 -13.0218 159.5 -18L160.005 -17.1365C151.693 -12.2814 140.901 -1.3067 135.668 15.8154C130.439 32.9241 130.749 56.2122 144.704 85.7179C179.803 159.926 156.753 242.219 91.5047 280.363L91 279.5C155.752 241.645 178.702 159.937 143.8 86.1455C129.756 56.4513 129.399 32.906 134.712 15.5231ZM179.5 -18C170.978 -13.0218 160.02 -1.84647 154.712 15.5231C149.399 32.9061 149.756 56.4513 163.8 86.1455C198.702 159.937 175.752 241.645 111 279.5L111.505 280.363C176.753 242.219 199.803 159.926 164.704 85.718C150.749 56.2122 150.439 32.9241 155.668 15.8154C160.901 -1.30667 171.693 -12.2814 180.005 -17.1365L179.5 -18ZM165.459 15.5231C170.768 -1.84647 181.726 -13.0218 190.248 -18L190.752 -17.1365C182.441 -12.2814 171.649 -1.30667 166.416 15.8154C161.187 32.9241 161.497 56.2122 175.452 85.718C210.551 159.926 187.5 242.219 122.252 280.363L121.748 279.5C186.5 241.645 209.449 159.937 174.548 86.1455C160.503 56.4513 160.147 32.9061 165.459 15.5231ZM202.248 -18C193.726 -13.0218 182.768 -1.84647 177.459 15.5231C172.147 32.9061 172.503 56.4513 186.548 86.1455C221.449 159.937 198.5 241.645 133.748 279.5L134.252 280.363C199.5 242.219 222.551 159.926 187.452 85.718C173.497 56.2122 173.187 32.9241 178.416 15.8154C183.649 -1.30667 194.441 -12.2814 202.752 -17.1365L202.248 -18Z"
    fill="url(#paint1_linear_319_4539)" />
  <defs>
    <linearGradient id="paint0_linear_319_4539" x1="458.501" y1="-43" x2="1.00049" y2="108"
      gradientUnits="userSpaceOnUse">
      <stop stop-color="white" />
      <stop offset="1" stop-color="white" stop-opacity="0" />
    </linearGradient>
    <linearGradient id="paint1_linear_319_4539" x1="468.752" y1="-44.5682" x2="11.2524" y2="106.432"
      gradientUnits="userSpaceOnUse">
      <stop stop-color="white" />
      <stop offset="1" stop-color="white" stop-opacity="0" />
    </linearGradient>
  </defs>
</svg>
