<?xml version="1.0" encoding="UTF-8"?>
<svg width="60px" height="60px" viewBox="0 0 60 60" version="1.1" xmlns="http://www.w3.org/2000/svg" xmlns:xlink="http://www.w3.org/1999/xlink">
    <!-- Generator: Sketch 62 (91390) - https://sketch.com -->
    <desc>Created with Sketch.</desc>
    <g id="sync_failed" stroke="none" stroke-width="1" fill="none" fill-rule="evenodd">
        <path d="M15.5080548,1 L54,53.9401374 L46.4919452,59 L8,6.05986256 L15.5080548,1 Z M8.92037451,13.5813138 L13.5086079,20.1365088 C10.1850037,22.3830688 8,26.1863669 8,30.5 C8,37.3005212 13.4306294,42.8326509 20.1917732,42.9962742 L20.5,43 L29.513,42.9998389 L35.113,50.9998389 L20.5,51 C9.17816263,51 0,41.8218374 0,30.5 C0,23.4749678 3.53360962,17.2752543 8.92037451,13.5813138 Z M28.386,9.9998389 L39.5,10 C50.8218374,10 60,19.1781626 60,30.5 C60,36.4923301 57.428933,41.8841554 53.3297622,45.6325127 L48.6772083,38.9870682 C50.7395867,36.7580629 52,33.7762241 52,30.5 C52,23.6994788 46.5693706,18.1673491 39.8082268,18.0037258 L39.5,18 L33.986,17.9998389 L28.386,9.9998389 Z" id="Combined-Shape" fill="#888888" fill-rule="nonzero"></path>
    </g>
</svg>