<svg width="16" height="16" viewBox="0 0 16 16" fill="none" xmlns="http://www.w3.org/2000/svg">
<path fill-rule="evenodd" clip-rule="evenodd" d="M8 16C12.4183 16 16 12.4183 16 8C16 3.58172 12.4183 0 8 0C3.58172 0 0 3.58172 0 8C0 12.4183 3.58172 16 8 16ZM8 14.6631C11.6798 14.6631 14.6629 11.68 14.6629 8.00018C14.6629 4.32037 11.6798 1.3373 8 1.3373C4.32019 1.3373 1.33711 4.32037 1.33711 8.00018C1.33711 11.68 4.32019 14.6631 8 14.6631ZM3.43264 6.82679C3.46257 6.9262 3.51682 7.01986 3.59537 7.09841C3.72581 7.22885 3.89789 7.29226 4.06882 7.28865H11.755C12.114 7.28865 12.405 6.99763 12.405 6.63865C12.405 6.27966 12.114 5.98865 11.755 5.98865H5.62437L6.83801 4.77501C7.09185 4.52117 7.09185 4.10961 6.83801 3.85577C6.58417 3.60193 6.17261 3.60193 5.91877 3.85577L3.6036 6.17094C3.48295 6.28741 3.40724 6.45015 3.40504 6.63057L3.40499 6.63865C3.40499 6.64977 3.40527 6.66082 3.40582 6.67181L3.43264 6.82679ZM12.1395 8.90159C12.2181 8.98014 12.2723 9.0738 12.3022 9.17321L12.3291 9.32828C12.3296 9.33923 12.3299 9.35026 12.3299 9.36135L12.3298 9.36935C12.3277 9.54981 12.252 9.71257 12.1313 9.82906L9.81611 12.1442C9.56227 12.3981 9.15071 12.3981 8.89687 12.1442C8.64303 11.8904 8.64303 11.4788 8.89687 11.225L10.1105 10.0114H3.97989C3.6209 10.0114 3.32989 9.72034 3.32989 9.36135C3.32989 9.00237 3.6209 8.71135 3.97989 8.71135H11.666C11.837 8.70773 12.0091 8.77115 12.1395 8.90159Z" fill="#8DA394"/>
</svg>
