<svg width="16" height="16" viewBox="0 0 16 16" fill="none" xmlns="http://www.w3.org/2000/svg">
<path fill-rule="evenodd" clip-rule="evenodd" d="M14.2211 2.90945C14.5336 2.59703 14.5336 2.0905 14.2211 1.77808C13.9087 1.46566 13.4022 1.46566 13.0898 1.77808L7.99921 6.86864L2.90864 1.77808C2.59622 1.46566 2.08969 1.46566 1.77727 1.77808C1.46485 2.0905 1.46485 2.59703 1.77727 2.90945L6.86784 8.00001L1.77606 13.0918C1.46364 13.4042 1.46364 13.9107 1.77606 14.2232C2.08848 14.5356 2.59501 14.5356 2.90743 14.2232L7.99921 9.13138L13.091 14.2232C13.4034 14.5356 13.9099 14.5356 14.2223 14.2232C14.5348 13.9107 14.5348 13.4042 14.2224 13.0918L9.13058 8.00001L14.2211 2.90945Z" fill="#666666"/>
</svg>
