<svg width="16" height="16" viewBox="0 0 16 16" fill="none" xmlns="http://www.w3.org/2000/svg">
<path fill-rule="evenodd" clip-rule="evenodd" d="M2.27273 8C2.27273 4.83691 4.83691 2.27273 8 2.27273C11.1631 2.27273 13.7273 4.83691 13.7273 8C13.7273 11.1631 11.1631 13.7273 8 13.7273C4.83691 13.7273 2.27273 11.1631 2.27273 8ZM8 1C4.13401 1 1 4.13401 1 8C1 11.866 4.13401 15 8 15C11.866 15 15 11.866 15 8C15 4.13401 11.866 1 8 1ZM8.63636 4.18182C8.63636 3.83036 8.35145 3.54545 8 3.54545C7.64855 3.54545 7.36364 3.83036 7.36364 4.18182V8C7.36364 8.24104 7.49982 8.46139 7.71541 8.56918L10.2609 9.84191C10.5752 9.99908 10.9575 9.87167 11.1146 9.55732C11.2718 9.24297 11.1444 8.86072 10.83 8.70355L8.63636 7.60671V4.18182Z" fill="#8DA394"/>
</svg>
