<svg width="12" height="12" viewBox="0 0 12 12" fill="none" xmlns="http://www.w3.org/2000/svg">
<path fill-rule="evenodd" clip-rule="evenodd" d="M11.8025 1.14198C12.0628 0.88166 12.0628 0.459593 11.8025 0.19927C11.5421 -0.0610524 11.1199 -0.0610524 10.8596 0.19927L5.99973 5.05809L1.13991 0.19927C0.879534 -0.0610524 0.457381 -0.0610524 0.197004 0.19927C-0.063372 0.459593 -0.063372 0.88166 0.197004 1.14198L5.05683 6.00081L0.195282 10.8614C-0.0650939 11.1217 -0.0650942 11.5437 0.195282 11.8041C0.455658 12.0644 0.877812 12.0644 1.13819 11.8041L5.99973 6.94352L10.8613 11.8041C11.1217 12.0644 11.5438 12.0644 11.8042 11.8041C12.0646 11.5437 12.0646 11.1217 11.8042 10.8614L6.94264 6.00081L11.8025 1.14198Z" fill="#666666"/>
</svg>
