<?xml version="1.0" standalone="no"?><!DOCTYPE svg PUBLIC "-//W3C//DTD SVG 1.1//EN" "http://www.w3.org/Graphics/SVG/1.1/DTD/svg11.dtd"><svg t="1645433291347" class="icon" viewBox="0 0 1024 1024" version="1.1" xmlns="http://www.w3.org/2000/svg" p-id="6775" width="20" height="20" xmlns:xlink="http://www.w3.org/1999/xlink"><defs><style type="text/css"></style></defs><path d="M308.352 263.104L512 466.72l203.648-203.616a32 32 0 0 1 42.24-2.656l3.008 2.656a32 32 0 0 1 2.656 42.24l-2.656 3.008L557.248 512l203.648 203.648a32 32 0 0 1-45.248 45.248L512 557.248l-203.648 203.648a32 32 0 0 1-42.24 2.656l-3.008-2.656a32 32 0 0 1-2.656-42.24l2.656-3.008L466.72 512 263.104 308.352a32 32 0 0 1 45.248-45.248z" p-id="6776" fill="#666666"></path></svg>