<svg width="16" height="16" viewBox="0 0 16 16" fill="none" xmlns="http://www.w3.org/2000/svg">
<path d="M7.99999 15C4.14019 15 1 11.8595 1 7.99999C1 4.14048 4.14019 1 7.99999 1C11.8598 1 15 4.14048 15 7.99999C15 11.8595 11.8601 15 7.99999 15ZM7.99999 2.4C4.91216 2.4 2.4 4.91216 2.4 7.99999C2.4 11.0878 4.91216 13.6 7.99999 13.6C11.0878 13.6 13.6 11.0878 13.6 7.99999C13.6 4.91216 11.0878 2.4 7.99999 2.4ZM6.10495 10.595L4.70495 9.19503C4.43638 8.91696 4.44408 8.47381 4.72215 8.20524C4.99342 7.94324 5.42348 7.94324 5.69475 8.20524L6.59999 9.1102L10.3052 5.40496C10.5833 5.13638 11.0264 5.14409 11.295 5.42216C11.557 5.69343 11.557 6.12349 11.295 6.39476L7.09503 10.5948H7.09503C6.82178 10.8682 6.37856 10.8684 6.10508 10.5952C6.10504 10.5951 6.10499 10.5951 6.10495 10.595L6.10495 10.595Z" fill="#333333"/>
</svg>
