<svg width="12" height="12" viewBox="0 0 12 12" fill="none" xmlns="http://www.w3.org/2000/svg">
<path d="M9.797 2.22969C9.53762 2.48825 9.12507 2.51176 8.83785 2.28435C8.76546 2.22627 8.69077 2.17112 8.61393 2.11903C6.46283 0.689767 3.55728 1.27027 2.12418 3.41561C1.25975 4.70965 1.09821 6.34804 1.69334 7.78521H1.69334C2.68224 10.1661 5.41919 11.2967 7.8065 10.3105C9.34541 9.67472 10.4294 8.27092 10.6525 6.62464C10.698 6.26786 11.0024 6.00051 11.363 6.00069H11.4152C11.7382 6.00071 12 6.26186 12 6.584C12 6.6047 11.9989 6.62539 11.9967 6.64597C11.639 9.94013 8.67139 12.3214 5.36838 11.9646C2.06539 11.6079 -0.322241 8.6482 0.0354821 5.35403C0.393194 2.05987 3.36078 -0.321379 6.66379 0.0353872C7.73424 0.151007 8.75396 0.551048 9.61652 1.19376C9.65663 1.22376 9.70141 1.25909 9.75154 1.30042C10.0202 1.52059 10.0591 1.91629 9.83831 2.18425C9.82528 2.20005 9.8115 2.21521 9.79699 2.22968L9.797 2.22969Z" fill="#999999"/>
</svg>
