<?xml version="1.0" standalone="no"?><!DOCTYPE svg PUBLIC "-//W3C//DTD SVG 1.1//EN" "http://www.w3.org/Graphics/SVG/1.1/DTD/svg11.dtd"><svg t="1645448484785" class="icon" viewBox="0 0 1024 1024" version="1.1" xmlns="http://www.w3.org/2000/svg" p-id="10943" width="16" height="16" xmlns:xlink="http://www.w3.org/1999/xlink"><defs><style type="text/css"></style></defs><path d="M537.6 0c34.304 0 51.2 25.6 51.2 51.2v162.304c0 25.6-25.6 51.2-51.2 51.2H486.4c-25.6 0-51.2-25.6-51.2-51.2V51.2c0-25.6 16.896-51.2 51.2-51.2h51.2zM264.704 153.6l76.8 76.8c34.304 25.6 34.304 76.8 0 111.104-34.304 33.792-85.504 33.792-111.104 0l-76.8-76.8c-34.304-25.6-34.304-76.8 0-111.104 25.6-34.304 76.8-34.304 111.104 0zM870.4 153.6c34.304 25.6 34.304 76.8 0 111.104l-76.8 76.8c-25.6 34.304-76.8 34.304-111.104 0-34.304-25.6-34.304-76.8 0-111.104l76.8-76.8c25.6-34.304 76.8-34.304 111.104 0z m102.4 281.6c25.6 0 51.2 16.896 51.2 51.2v51.2c0 25.6-25.6 51.2-51.2 51.2h-162.304c-25.6 0-51.2-25.6-51.2-51.2V486.4c0-25.6 25.6-51.2 51.2-51.2H972.8zM221.696 435.2c25.6 0 51.2 25.6 51.2 51.2v51.2c0 34.304-25.6 51.2-59.904 51.2H51.2c-25.6 0-51.2-25.6-51.2-51.2V486.4c0-34.304 25.6-51.2 51.2-51.2h170.496zM793.6 682.496l76.8 76.8c34.304 25.6 34.304 76.8 0 111.104-25.6 34.304-76.8 34.304-111.104 0l-76.8-76.8c-34.304-25.6-34.304-76.8 0-111.104 25.6-33.792 76.8-33.792 111.104 0z m-452.096 0c34.304 25.6 34.304 76.8 0 111.104l-76.8 76.8c-25.6 34.304-76.8 34.304-111.104 0-34.304-25.6-34.304-76.8 0-111.104l76.8-76.8c25.6-33.792 76.8-33.792 111.104 0z m196.096 76.8c34.304 0 51.2 16.896 51.2 51.2V972.8c0 25.6-25.6 51.2-51.2 51.2H486.4c-25.6 0-51.2-25.6-51.2-51.2v-162.304c0-25.6 25.6-51.2 51.2-51.2h51.2z" fill="#666666" p-id="10944"></path></svg>