<svg width="20" height="20" viewBox="0 0 20 20" fill="none" xmlns="http://www.w3.org/2000/svg">
<path d="M13.1823 11.107L8.74556 16.0984C8.08259 16.8443 6.91719 16.8443 6.25421 16.0984L1.81747 11.107C1.25616 10.4756 1.25616 9.52397 1.81747 8.89255L6.25421 3.90119C6.91719 3.15533 8.08259 3.15533 8.74556 3.90119L13.1823 8.89255C13.7436 9.52397 13.7436 10.4756 13.1823 11.107Z" stroke="#8DA394" stroke-width="2" stroke-linecap="round" stroke-linejoin="round"/>
<path d="M10 5.3123L11.2543 3.90119C11.9173 3.15533 13.0827 3.15533 13.7457 3.90119L18.1824 8.89255C18.7437 9.52397 18.7437 10.4756 18.1824 11.107L13.7457 16.0984C13.0827 16.8443 11.9173 16.8443 11.2543 16.0984L10 14.6873" stroke="#8DA394" stroke-width="2" stroke-linecap="round" stroke-linejoin="round"/>
</svg>
