<svg width="16" height="16" viewBox="0 0 16 16" fill="none" xmlns="http://www.w3.org/2000/svg">
<g clip-path="url(#clip0_22441_10640)">
<path d="M12.25 2.22C11.1012 1.59438 9.5925 1.25 8 1.25C6.4075 1.25 4.89875 1.59438 3.75 2.22C2.46063 2.92438 1.75 3.91125 1.75 5V11C1.75 12.0887 2.46063 13.0756 3.75 13.78C4.89687 14.405 6.40562 14.75 8 14.75C9.59438 14.75 11.1012 14.4056 12.25 13.78C13.5413 13.0756 14.25 12.0887 14.25 11V5C14.25 3.91125 13.5394 2.92438 12.25 2.22ZM12.75 8C12.75 9.0625 10.7994 10.25 8 10.25C5.20062 10.25 3.25 9.0625 3.25 8V7.47125C3.4111 7.58291 3.578 7.68598 3.75 7.78C4.89687 8.405 6.40562 8.75 8 8.75C9.59438 8.75 11.1012 8.40563 12.25 7.78C12.422 7.68598 12.5889 7.58291 12.75 7.47125V8ZM8 2.75C10.7994 2.75 12.75 3.9375 12.75 5C12.75 6.0625 10.7994 7.25 8 7.25C5.20062 7.25 3.25 6.0625 3.25 5C3.25 3.9375 5.20062 2.75 8 2.75ZM8 13.25C5.20062 13.25 3.25 12.0625 3.25 11V10.4712C3.4111 10.5829 3.578 10.686 3.75 10.78C4.89687 11.405 6.40562 11.75 8 11.75C9.59438 11.75 11.1012 11.4056 12.25 10.78C12.422 10.686 12.5889 10.5829 12.75 10.4712V11C12.75 12.0625 10.7994 13.25 8 13.25Z" fill="#8DA394"/>
</g>
<defs>
<clipPath id="clip0_22441_10640">
<rect width="16" height="16" fill="white"/>
</clipPath>
</defs>
</svg>
