<?xml version="1.0" encoding="UTF-8"?>
<svg width="16" height="16" viewBox="0 0 16 16" fill="none" xmlns="http://www.w3.org/2000/svg">
  <path fill-rule="evenodd" clip-rule="evenodd" d="M1.70379 1.64208C1.8585 1.48675 2.06773 1.4 2.28532 1.4H9.14238C9.35996 1.4 9.56919 1.48675 9.7239 1.64208C9.8787 1.7975 9.96617 2.00888 9.96617 2.22987V2.99481C9.96617 3.38141 10.2796 3.69481 10.6662 3.69481C11.0528 3.69481 11.3662 3.38141 11.3662 2.99481V2.22987C11.3662 1.63937 11.1326 1.07249 10.7158 0.654101C10.299 0.235612 9.73307 0 9.14238 0H2.28532C1.69463 0 1.1287 0.235612 0.711872 0.654101C0.295141 1.0725 0.0615234 1.63937 0.0615234 2.22987V9.11429C0.0615234 9.70479 0.295141 10.2717 0.711872 10.6901C1.1287 11.1086 1.69463 11.3442 2.28532 11.3442H3.04721C3.43381 11.3442 3.74721 11.0308 3.74721 10.6442C3.74721 10.2576 3.43381 9.94417 3.04721 9.94417H2.28532C2.06773 9.94417 1.8585 9.85741 1.70379 9.70209C1.54899 9.54667 1.46152 9.33529 1.46152 9.11429V2.22987C1.46152 2.00888 1.54899 1.7975 1.70379 1.64208ZM6.03379 6.81935C6.03379 6.35839 6.40524 5.98948 6.85758 5.98948H13.7146C14.167 5.98948 14.5384 6.35839 14.5384 6.81935V13.7038C14.5384 14.1647 14.167 14.5336 13.7146 14.5336H6.85758C6.40524 14.5336 6.03379 14.1647 6.03379 13.7038V6.81935ZM6.85758 4.58948C5.62679 4.58948 4.63379 5.59046 4.63379 6.81935V13.7038C4.63379 14.9327 5.62679 15.9336 6.85758 15.9336H13.7146C14.9454 15.9336 15.9384 14.9327 15.9384 13.7038V6.81935C15.9384 5.59046 14.9454 4.58948 13.7146 4.58948H6.85758Z" fill="#00C891"/>
</svg>
