<?xml version="1.0" standalone="no"?><!DOCTYPE svg PUBLIC "-//W3C//DTD SVG 1.1//EN" "http://www.w3.org/Graphics/SVG/1.1/DTD/svg11.dtd"><svg t="1645447136491" class="icon" viewBox="0 0 1024 1024" version="1.1" xmlns="http://www.w3.org/2000/svg" p-id="8945" width="16" height="16" xmlns:xlink="http://www.w3.org/1999/xlink"><defs><style type="text/css"></style></defs><path d="M875.605333 237.781333L661.76 21.333333a76.8 76.8 0 0 0-14.72-11.52c-1.365333-0.768-2.773333-1.578667-4.266667-2.261333-0.896-0.512-1.92-0.896-2.816-1.28A71.552 71.552 0 0 0 610.986667 0H329.984c-39.765333 0-72.96 32.213333-72.96 72.021333V128H201.472c-39.808 0-72.533333 32.597333-72.533333 72.405333v752c0 39.808 32.725333 71.594667 72.533333 71.594667h494.976c39.808 0 71.509333-31.786667 71.509333-71.594667V896h57.002667c39.808 0 70.997333-32.213333 70.997333-72.021333V288.512c0-19.029333-6.997333-37.205333-20.394666-50.730667z m-227.584-127.402666l136.789334 137.6h-136.789334V110.378667z m48 841.642666H200.96V200.021333h55.978667v624c0 39.765333 33.237333 71.978667 73.002666 71.978667h366.037334v56.021333z m128-128H328.96V72.021333H576v176c0 39.765333 33.194667 71.978667 72.96 71.978667h175.061333v504.021333z m-183.04-404.053333A35.968 35.968 0 0 0 605.013333 384H420.992a35.968 35.968 0 1 0 0 72.021333h184.021333a35.968 35.968 0 0 0 35.968-36.010666z m128 128A35.968 35.968 0 0 0 733.013333 512H420.992a35.968 35.968 0 1 0 0 72.021333h312.021333a35.968 35.968 0 0 0 35.968-36.010666z m-64 128A35.968 35.968 0 0 0 669.013333 640H420.992a35.968 35.968 0 1 0 0 72.021333h248.021333a35.968 35.968 0 0 0 35.968-36.010666z" fill="#666666" opacity=".65" p-id="8946"></path></svg>