<svg width="16" height="17" viewBox="0 0 16 17" fill="none" xmlns="http://www.w3.org/2000/svg">
<path fill-rule="evenodd" clip-rule="evenodd" d="M1.63304 1.47151C1.80647 1.29739 2.04118 1.2 2.28541 1.2H9.14248C9.38671 1.2 9.62142 1.29739 9.79485 1.47151C9.96836 1.64571 10.0663 1.88249 10.0663 2.12987V2.89481C10.0663 3.22618 10.3349 3.49481 10.6663 3.49481C10.9976 3.49481 11.2663 3.22618 11.2663 2.89481V2.12987C11.2663 1.56576 11.0431 1.02428 10.6451 0.62467C10.247 0.224979 9.70651 0 9.14248 0H2.28541C1.72138 0 1.18092 0.224979 0.782821 0.62467C0.384799 1.02428 0.161621 1.56576 0.161621 2.12987V9.01429C0.161621 9.5784 0.384799 10.1199 0.782821 10.5195C1.18092 10.9192 1.72138 11.1442 2.28541 11.1442H3.04731C3.37868 11.1442 3.64731 10.8755 3.64731 10.5442C3.64731 10.2128 3.37868 9.94417 3.04731 9.94417H2.28541C2.04118 9.94417 1.80647 9.84678 1.63304 9.67266C1.45953 9.49846 1.36162 9.26168 1.36162 9.01429V2.12987C1.36162 1.88248 1.45953 1.64571 1.63304 1.47151ZM5.93389 6.71935C5.93389 6.20354 6.34973 5.78948 6.85768 5.78948H13.7147C14.2227 5.78948 14.6385 6.20354 14.6385 6.71935V13.6038C14.6385 14.1196 14.2227 14.5336 13.7147 14.5336H6.85768C6.34973 14.5336 5.93389 14.1196 5.93389 13.6038V6.71935ZM6.85768 4.58948C5.68249 4.58948 4.73389 5.54531 4.73389 6.71935V13.6038C4.73389 14.7778 5.68249 15.7336 6.85768 15.7336H13.7147C14.8899 15.7336 15.8385 14.7778 15.8385 13.6038V6.71935C15.8385 5.54531 14.8899 4.58948 13.7147 4.58948H6.85768Z" fill="#00C891"/>
</svg>
