<?xml version="1.0" encoding="UTF-8"?>
<svg width="60px" height="60px" viewBox="0 0 60 60" version="1.1" xmlns="http://www.w3.org/2000/svg" xmlns:xlink="http://www.w3.org/1999/xlink">
    <title>1. Icon/unknown token Copy 2</title>
    <g id="1.-Icon/unknown-token-Copy-2" stroke="none" stroke-width="1" fill="none" fill-rule="evenodd">
        <path d="M22,9 C33.5979797,9 43,18.4020203 43,30 C43,41.5979797 33.5979797,51 22,51 C10.4020203,51 1,41.5979797 1,30 C1,18.4020203 10.4020203,9 22,9 Z M39.5,10 C50.2695526,10 59,18.7304474 59,29.5 C59,40.2695526 50.2695526,49 39.5,49 C38.6134651,49 37.7407479,48.9408394 36.885581,48.8262507 C42.4381807,44.4308733 46,37.6313904 46,30 C46,21.8759279 41.9634338,14.6946464 35.7865195,10.3523735 C36.9880282,10.1214405 38.2298321,10 39.5,10 Z M20.9834711,41 C20.4214876,41 19.9586777,41.1680672 19.5619835,41.5714286 C19.1652893,41.9411765 19,42.4117647 19,42.9831933 C19,43.5546218 19.1652893,44.0252101 19.5619835,44.4285714 C19.9586777,44.7983193 20.4214876,45 20.9834711,45 C21.5454545,45 22.0082645,44.7983193 22.4049587,44.4285714 C22.8016529,44.0588235 23,43.5882353 23,42.9831933 C23,42.4117647 22.8016529,41.9411765 22.4380165,41.5714286 C22.0413223,41.1680672 21.5454545,41 20.9834711,41 Z M21.8501685,15 C18.7258859,15 16.2958884,15.9796394 14.5601759,17.9389183 C12.8967848,19.7312132 12.0702873,22.0960468 12.0043004,25.033419 L12,25.4198014 L15.8379326,25.4198014 C15.8379326,23.3469734 16.4921089,22.1292687 17.3760126,20.9436932 L17.5174235,20.7566441 C18.5135716,19.3510745 20.7669854,18.9779984 21.9047081,18.9482141 L22.0527139,18.9462157 C22.9340666,18.9462157 24.8008797,19.0219486 25.7989144,20.0906461 C26.7535563,21.0702856 27.210599,22.0466876 27.210599,23.8278502 C27.210599,25.1763003 26.5292403,25.8103126 25.7255431,26.8083406 L25.5735527,27 C25.3332233,27.32883 24.6044696,28.0186053 23.9477018,28.6831519 L23.7853338,28.8485395 C21.5,31.1399362 20.9321828,32.2816434 20.159394,33.8441082 C19.6787351,34.8717021 19.5896781,36.2706376 19.5788211,37.6355475 L19.5775547,39 L23.3681884,39 L23.3685193,37.8237148 L23.3736328,37.5122534 C23.3963259,36.7712433 23.5122552,35.9162566 24.0974171,34.651019 L24.3878708,34.1063484 C24.6777397,33.5694011 24.9939746,33.0481035 25.5896566,32.4747734 L26.7671838,31.3916852 C28.1098506,30.143173 28.9587001,29.2857339 29.3137322,28.8485395 C30.3985525,27.3790803 31,25.8316582 31,23.8278502 C31,21.1561063 30.1381957,18.8740287 28.5326616,17.3600405 C26.8403419,15.7569941 24.6273085,15 21.8501685,15 Z" id="Shape" fill="#888888"></path>
    </g>
</svg>