<?xml version="1.0" encoding="UTF-8"?>
<svg width="60px" height="60px" viewBox="0 0 60 60" version="1.1" xmlns="http://www.w3.org/2000/svg" xmlns:xlink="http://www.w3.org/1999/xlink">
    <title>1. Icon/unknown token Copy 3</title>
    <g id="1.-Icon/unknown-token-Copy-3" stroke="none" stroke-width="1" fill="none" fill-rule="evenodd">
        <path d="M53,6 C55.7614237,6 58,8.23857625 58,11 L58,49 C58,50.6352792 57.2149639,52.0872034 56.0011995,52.9994649 L56,55 C56,56.1045695 55.1045695,57 54,57 L48,57 C46.8954305,57 46,56.1045695 46,55 L46,54 L15,54 L15,55 C15,56.1045695 14.1045695,57 13,57 L7,57 C5.8954305,57 5,56.1045695 5,55 L5.00046106,53.5841577 C3.23431003,52.8127064 2,51.0504975 2,49 L2,11 C2,8.23857625 4.23857625,6 7,6 L53,6 Z M30,23 C26.9195964,23 24.3039179,24.9897247 23.3680764,27.7540622 L23.2898925,27.9999537 L8,28 L8,32 L23.2901893,32.0010432 C24.1510722,34.8919961 26.8293607,37 30,37 C33.0800496,37 35.6954808,35.0107326 36.6316009,32.2468909 L36.7098107,32.0010432 L53,32 L53,28 L36.7101075,27.9999537 C35.8495435,25.1084885 33.1710037,23 30,23 Z" id="Shape" fill="#888888"></path>
    </g>
</svg>