<?xml version="1.0" encoding="UTF-8"?>
<svg width="60px" height="60px" viewBox="0 0 60 60" version="1.1" xmlns="http://www.w3.org/2000/svg" xmlns:xlink="http://www.w3.org/1999/xlink">
    <title>1. Icon/locked Copy</title>
    <g id="1.-Icon/locked-Copy" stroke="none" stroke-width="1" fill="none" fill-rule="evenodd">
        <path d="M30,0 C38.836556,0 46,7.163444 46,16 L46,25 L48,25 C51.8659932,25 55,28.1340068 55,32 L55,53 C55,56.8659932 51.8659932,60 48,60 L12,60 C8.13400675,60 5,56.8659932 5,53 L5,32 C5,28.1340068 8.13400675,25 12,25 L14,25 L14,16 C14,7.163444 21.163444,0 30,0 Z M30,38 C27.790861,38 26,39.790861 26,42 C26,44.209139 27.790861,46 30,46 C32.209139,46 34,44.209139 34,42 C34,39.790861 32.209139,38 30,38 Z M30,7 C25.1181973,7 21.1442086,10.8868137 21.0038371,15.7346377 L21,16 L21,25 L39,25 L39,16 C39,11.1181973 35.1131863,7.14420858 30.2653623,7.00383711 L30,7 Z" id="Mask" fill="#888888"></path>
    </g>
</svg>