<svg width="16" height="16" viewBox="0 0 16 16" fill="none" xmlns="http://www.w3.org/2000/svg">
<path fill-rule="evenodd" clip-rule="evenodd" d="M2.75063 4H13.3378C14.3019 4 15.0019 4.61945 15 5.59681V13.4032C15 14.3786 14.3 15 13.3378 15H2.66218C1.61345 15 1 14.3786 1 13.491V5.68465C1 4.62143 1.69999 4 2.75063 4ZM3.50054 5H12.5753C13.4016 5 14.0016 5.50683 14 6.30648V12.6935C14 13.4916 13.4 14 12.5753 14H3.42473C2.52582 14 2 13.4916 2 12.7654V6.37835C2 5.50844 2.6 5 3.50054 5Z" fill="#333333"/>
<path fill-rule="evenodd" clip-rule="evenodd" d="M7.97199 11.5C8.13328 11.5 8.2861 11.4278 8.38853 11.3032L8.47416 11.199L9.59689 10.0339C9.78495 9.83869 9.78495 9.52974 9.59691 9.33457C9.3987 9.12885 9.0693 9.12886 8.87111 9.33459L8.47416 9.74664V7.37261C8.47416 7.09932 8.25262 6.87778 7.97933 6.87778C7.70604 6.87778 7.4845 7.09932 7.4845 7.37261V9.77283L7.06266 9.33474C6.86449 9.12895 6.53505 9.1289 6.33683 9.33463C6.14881 9.52978 6.14879 9.83868 6.33679 10.0338L7.4845 11.2252L7.57127 11.3216C7.67353 11.4352 7.81917 11.5 7.97199 11.5Z" fill="#333333"/>
<path d="M2 2.5C2 2.22386 2.22386 2 2.5 2H13.5C13.7761 2 14 2.22386 14 2.5C14 2.77614 13.7761 3 13.5 3H2.5C2.22386 3 2 2.77614 2 2.5Z" fill="#333333"/>
</svg>
