<?xml version="1.0" encoding="UTF-8"?>
<svg width="22px" height="22px" viewBox="0 0 22 22" version="1.1" xmlns="http://www.w3.org/2000/svg" xmlns:xlink="http://www.w3.org/1999/xlink">
    <!-- Generator: Sketch 52.4 (67378) - http://www.bohemiancoding.com/sketch -->
    <title>noun_Exclamation Mark_905240 Copy</title>
    <desc>Created with Sketch.</desc>
    <g id="Page-1" stroke="none" stroke-width="1" fill="none" fill-rule="evenodd">
        <g id="noun_Exclamation-Mark_905240-Copy">
            <rect id="Rectangle" x="0" y="0" width="22" height="22"></rect>
            <g id="Group" fill="#000000">
                <path d="M11,15.5662222 C10.1737778,15.5662222 9.50155556,16.2384444 9.50155556,17.0646667 C9.50155556,17.8911333 10.1737778,18.5633556 11,18.5633556 C11.8262222,18.5633556 12.4984444,17.8911333 12.4984444,17.0646667 C12.4984444,16.2384444 11.8262222,15.5662222 11,15.5662222 Z" id="Path"></path>
                <path d="M12.2271111,3.43688889 L9.77288889,3.43688889 C9.62377778,3.43688889 9.50155556,3.55911111 9.50155556,3.70822222 L9.50155556,13.5617778 C9.50155556,13.7130889 9.62377778,13.8353111 9.77288889,13.8353111 L12.2271111,13.8353111 C12.3762222,13.8353111 12.4984444,13.7130889 12.4984444,13.5617778 L12.4984444,3.70822222 C12.4984444,3.55911111 12.3762222,3.43688889 12.2271111,3.43688889 Z" id="Path"></path>
                <path d="M21.1346667,6.71733333 C20.5822222,5.40955556 19.7877778,4.23133333 18.7782222,3.22177778 C17.7686667,2.21222222 16.5904444,1.42022222 15.2824222,0.865333333 C13.926,0.290888889 12.4837778,0 11,0 C9.51622222,0 8.074,0.290888889 6.71733333,0.865333333 C5.40711111,1.42022222 4.23133333,2.21222222 3.22177778,3.22177778 C2.21222222,4.23133333 1.41777778,5.40955556 0.865333333,6.71733333 C0.290888889,8.074 0,9.51622222 0,11 C0,12.4837778 0.290888889,13.926 0.865333333,15.2826667 C1.41777778,16.5928889 2.21222222,17.7689111 3.22177778,18.7784667 C4.23133333,19.7880222 5.40711111,20.5824667 6.71733333,21.1349111 C8.074,21.7091111 9.51622222,22 11,22 C12.4837778,22 13.926,21.7091111 15.2826667,21.1346667 C16.5906889,20.5822222 17.7689111,19.7877778 18.7784667,18.7782222 C19.7880222,17.7686667 20.5824667,16.5928889 21.1349111,15.2824222 C21.7091111,13.926 22,12.4837778 22,11 C22,9.51622222 21.7091111,8.074 21.1346667,6.71733333 Z M11,21.318 C5.30933333,21.318 0.682,16.6906667 0.682,11 C0.682,5.31177778 5.30933333,0.682 11,0.682 C16.6906667,0.682 21.318,5.31177778 21.318,11 C21.318,16.6906667 16.6906667,21.318 11,21.318 Z" id="Shape" fill-rule="nonzero"></path>
            </g>
        </g>
    </g>
</svg>