<svg width="16" height="16" viewBox="0 0 16 16" fill="none" xmlns="http://www.w3.org/2000/svg">
<path fill-rule="evenodd" clip-rule="evenodd" d="M2.75063 15H13.3378C14.3019 15 15.0019 14.3805 15 13.4032V5.59681C15 4.62142 14.3 4 13.3378 4H2.66218C1.61345 4 1 4.62142 1 5.50897V13.3154C1 14.3786 1.69999 15 2.75063 15ZM3.50054 14H12.5753C13.4016 14 14.0016 13.4932 14 12.6935V6.30648C14 5.50843 13.4 5 12.5753 5H3.42473C2.52582 5 2 5.50844 2 6.23461V12.6217C2 13.4916 2.6 14 3.50054 14Z" fill="#333333"/>
<path fill-rule="evenodd" clip-rule="evenodd" d="M7.97199 7.5C8.13328 7.5 8.2861 7.5722 8.38853 7.6968L8.47416 7.80096L9.59689 8.96614C9.78495 9.16131 9.78495 9.47026 9.59691 9.66543C9.3987 9.87115 9.0693 9.87114 8.87111 9.66541L8.47416 9.25336V11.6274C8.47416 11.9007 8.25262 12.1222 7.97933 12.1222C7.70604 12.1222 7.4845 11.9007 7.4845 11.6274V9.22717L7.06266 9.66526C6.86449 9.87105 6.53505 9.8711 6.33683 9.66537C6.14881 9.47022 6.14879 9.16132 6.33679 8.96616L7.4845 7.77477L7.57127 7.6784C7.67353 7.56484 7.81917 7.5 7.97199 7.5Z" fill="#333333"/>
<path d="M2 2.5C2 2.77614 2.22386 3 2.5 3H13.5C13.7761 3 14 2.77614 14 2.5C14 2.22386 13.7761 2 13.5 2H2.5C2.22386 2 2 2.22386 2 2.5Z" fill="#333333"/>
</svg>
