<?xml version="1.0" encoding="UTF-8"?>
<svg width="14px" height="14px" viewBox="0 0 14 14" version="1.1" xmlns="http://www.w3.org/2000/svg" xmlns:xlink="http://www.w3.org/1999/xlink">
    <!-- Generator: Sketch 52.4 (67378) - http://www.bohemiancoding.com/sketch -->
    <title>Delete</title>
    <g id="LeftBar_deletewallet" stroke="none" stroke-width="1" fill="none" fill-rule="evenodd">
        <path d="M3.9999375,0 L3.9999375,2.400125 L1,2.400125 L1,4.0000625 L2.2000625,4.0000625 L2.2000625,14 L11.800125,14 L11.800125,4.0000625 L13.0001875,4.0000625 L13.0001875,2.400125 L10.00025,2.400125 L10.00025,3.88578059e-16 L4.000375,3.88578059e-16 L3.9999375,0 Z M5.2,1.2000625 L8.8001875,1.2000625 L8.8001875,2.400125 L5.2,2.400125 L5.2,1.2000625 Z M3.9999375,5.200125 L5.2,5.200125 L5.2,12.7999375 L3.9999375,12.7999375 L3.9999375,5.200125 Z M6.4000625,5.200125 L7.600125,5.200125 L7.600125,12.7999375 L6.4000625,12.7999375 L6.4000625,5.200125 Z M8.79975,5.200125 L9.9998125,5.200125 L9.9998125,12.7999375 L8.79975,12.7999375 L8.79975,5.200125 Z" id="Shape-Copy" fill="#FFFFFF" fill-rule="nonzero"></path>
    </g>
</svg>