<svg width="16" height="16" viewBox="0 0 16 16" fill="none" xmlns="http://www.w3.org/2000/svg">
<path fill-rule="evenodd" clip-rule="evenodd" d="M6.22688 1.49277C6.38301 1.33664 6.59477 1.24893 6.81557 1.24893H9.72945C9.95025 1.24893 10.162 1.33664 10.3181 1.49277C10.4743 1.6489 10.562 1.86066 10.562 2.08146V2.91339H5.98304V2.08146C5.98304 1.86066 6.07075 1.6489 6.22688 1.49277ZM4.73423 2.91339V2.08146C4.73423 1.52946 4.95352 1.00006 5.34385 0.609732C5.73417 0.219405 6.26357 0.00012207 6.81557 0.00012207H9.72945C10.2815 0.00012207 10.8109 0.219405 11.2012 0.609732C11.5915 1.00006 11.8108 1.52946 11.8108 2.08146V2.91339H14.8291C15.174 2.91339 15.4535 3.19295 15.4535 3.53779C15.4535 3.88264 15.174 4.16219 14.8291 4.16219H13.9962V13.737C13.9962 14.289 13.7769 14.8184 13.3866 15.2087C12.9963 15.599 12.4669 15.8183 11.9149 15.8183H4.63017C4.07816 15.8183 3.54877 15.599 3.15844 15.2087C2.76811 14.8184 2.54883 14.289 2.54883 13.737V4.16219H1.71669C1.37184 4.16219 1.09229 3.88264 1.09229 3.53779C1.09229 3.19295 1.37184 2.91339 1.71669 2.91339H3.17362H4.73423ZM5.35864 4.1628H11.1864H12.7474V13.737C12.7474 13.9578 12.6597 14.1695 12.5035 14.3257C12.3474 14.4818 12.1357 14.5695 11.9149 14.5695H4.63017C4.40937 14.5695 4.19761 14.4818 4.04148 14.3257C3.88535 14.1695 3.79763 13.9578 3.79763 13.737V4.1628H5.35864ZM6.81581 6.55554C7.16066 6.55554 7.44021 6.8351 7.44021 7.17994V11.5508C7.44021 11.8956 7.16066 12.1752 6.81581 12.1752C6.47096 12.1752 6.19141 11.8956 6.19141 11.5508V7.17994C6.19141 6.8351 6.47096 6.55554 6.81581 6.55554ZM10.3538 7.17994C10.3538 6.8351 10.0742 6.55554 9.72938 6.55554C9.38453 6.55554 9.10498 6.8351 9.10498 7.17994V11.5508C9.10498 11.8956 9.38453 12.1752 9.72938 12.1752C10.0742 12.1752 10.3538 11.8956 10.3538 11.5508V7.17994Z" fill="#FF1E1E"/>
</svg>
