<svg width="64" height="64" viewBox="0 0 64 64" fill="none" xmlns="http://www.w3.org/2000/svg">
<path fill-rule="evenodd" clip-rule="evenodd" d="M10 6C8.34315 6 7 7.34315 7 9C7 10.6569 8.34315 12 10 12H54C55.6569 12 57 10.6569 57 9C57 7.34315 55.6569 6 54 6H10ZM10.94 16H52.9103C56.7322 16 59.5071 18.384 59.4996 22.1454V52.1883C59.4996 55.9421 56.7246 58.3336 52.9103 58.3336H10.5893C6.43189 58.3336 4 55.9421 4 52.5263V22.4834C4 18.3916 6.77496 16 10.94 16Z" fill="#DCF9E3"/>
<path fill-rule="evenodd" clip-rule="evenodd" d="M31.8879 46C32.5331 46 33.1444 45.7112 33.5541 45.2128L33.8966 44.7962L38.3876 40.1354C39.1398 39.3548 39.1398 38.119 38.3876 37.3383C37.5948 36.5154 36.2772 36.5155 35.4844 37.3384L33.8966 38.9865V29.4904C33.8966 28.3973 33.0105 27.5111 31.9173 27.5111C30.8242 27.5111 29.938 28.3973 29.938 29.4904V39.0913L28.2506 37.339C27.458 36.5158 26.1402 36.5156 25.3473 37.3385C24.5952 38.1191 24.5952 39.3547 25.3472 40.1353L29.938 44.9009L30.2851 45.2864C30.6941 45.7406 31.2767 46 31.8879 46Z" fill="#00C891"/>
</svg>
