<svg width="16" height="16" viewBox="0 0 16 16" fill="none" xmlns="http://www.w3.org/2000/svg">
  <path
    d="M3.25198 1H12.7485C13.9608 1.00377 14.9481 1.96234 14.998 3.16367L15 3.252V12.7485C14.9962 13.9608 14.0377 14.9481 12.8363 14.998L12.748 15H3.25152C2.03919 14.9962 1.05186 14.0377 1.00197 12.8363L1 12.748V3.25154C1.00375 2.03921 1.96232 1.05188 3.16324 1.00197L3.25198 1ZM12.748 2.33861H3.25198C2.77064 2.33861 2.37303 2.71617 2.34073 3.18969L2.33861 3.25198V12.7476C2.33989 13.2307 2.71494 13.6259 3.18953 13.6591L3.25198 13.6614H12.748C13.2294 13.6614 13.627 13.2838 13.6593 12.8103L13.6614 12.748V3.25198C13.6614 2.74971 13.2503 2.33861 12.748 2.33861ZM4.84583 10.496C5.19331 10.4992 5.47605 10.7686 5.50203 11.1076L5.50396 11.1765C5.50082 11.524 5.23138 11.8067 4.88635 11.8326L4.82818 11.8345L4.76641 11.8313C4.4431 11.7993 4.19594 11.546 4.16798 11.2265L4.16535 11.153C4.16911 10.8055 4.43906 10.5232 4.77932 10.4979L4.84583 10.496ZM11.1765 10.496C11.524 10.4992 11.8067 10.7686 11.8328 11.1077L11.8347 11.1765C11.8315 11.524 11.5621 11.8067 11.2229 11.8327L11.1658 11.8347H6.94535C6.59086 11.8347 6.30688 11.5694 6.27797 11.2241L6.27555 11.1542C6.27872 10.8067 6.54816 10.5239 6.88837 10.498L6.9457 10.496H11.1765ZM4.84583 7.33069C5.19331 7.33383 5.47605 7.60326 5.50203 7.94229L5.50396 8.01118C5.50082 8.35865 5.23138 8.64139 4.88635 8.66724L4.82818 8.66913L4.76641 8.66593C4.4431 8.634 4.19594 8.38064 4.16798 8.06111L4.16535 7.98762C4.16911 7.64014 4.43906 7.35789 4.77932 7.33252L4.84583 7.33069ZM11.1765 7.33069C11.524 7.33383 11.8067 7.60325 11.8328 7.94239L11.8347 8.01119C11.8315 8.35866 11.5621 8.64139 11.2229 8.66738L11.1658 8.6693H6.94535C6.59086 8.6693 6.30688 8.40401 6.27797 8.05872L6.27555 7.9888C6.27872 7.64133 6.54816 7.3586 6.88837 7.33262L6.9457 7.33069H11.1765ZM11.1765 4.16533C11.524 4.16847 11.8067 4.4379 11.8328 4.77704L11.8347 4.84583C11.8315 5.19331 11.5621 5.47604 11.2229 5.50203L11.1658 5.50395H6.94535C6.59059 5.50395 6.30685 5.23924 6.27797 4.89346L6.27555 4.82345C6.27872 4.47597 6.54816 4.19324 6.88837 4.16726L6.9457 4.16533H11.1765ZM4.84583 4.16533C5.19331 4.16847 5.47605 4.43791 5.50203 4.77693L5.50396 4.84582C5.50082 5.1933 5.23138 5.47604 4.88637 5.50188L4.8282 5.50378L4.76647 5.50059C4.4429 5.46876 4.19591 5.21588 4.16798 4.89586L4.16535 4.82226C4.16911 4.47479 4.43906 4.19253 4.77932 4.16716L4.84583 4.16533Z"
    fill="#8DA394" />
</svg>
