<svg width="16" height="16" viewBox="0 0 16 16" fill="none" xmlns="http://www.w3.org/2000/svg">
<g clip-path="url(#clip0_28437_26292)">
<path d="M15.3343 7.66714C15.3343 3.43353 11.9007 0 7.66714 0C3.43353 0 0 3.43355 0 7.66714C0 11.9007 3.43355 15.3343 7.66714 15.3343C9.30058 15.3343 10.8007 14.8342 12.0341 13.9675L13.6009 15.5343C13.8586 15.792 14.2765 15.792 14.5342 15.5343C14.792 15.2765 14.792 14.8587 14.5342 14.6009L13.0675 13.1341C14.4676 11.7007 15.3343 9.80061 15.3343 7.66714ZM1.3334 7.66714C1.3334 4.16692 4.16692 1.3334 7.66714 1.3334C11.1674 1.3334 14.0009 4.16692 14.0009 7.66714C14.0009 11.1674 11.1674 14.0009 7.66714 14.0009C4.16692 14.0009 1.3334 11.134 1.3334 7.66714ZM10.2006 3.80032C10.1006 3.53364 9.86727 3.36696 9.60059 3.36696C9.3339 3.36696 9.06722 3.5003 8.96721 3.76699L7.53379 8.33385L6.6004 4.96705C6.50039 4.7337 6.23371 4.56703 5.96702 4.56703C5.70034 4.56703 5.46699 4.7337 5.36698 5.00039L4.50026 8.50052H3.33352V9.83394H4.93362C5.20031 9.83394 5.46699 9.66726 5.567 9.40058L6.03369 7.4701L6.93375 10.8668C7.03375 11.1001 7.2671 11.2668 7.53379 11.2668C7.80047 11.2668 8.03382 11.1001 8.13382 10.8668L9.53391 6.30336L9.9006 8.06716C10.0006 8.33384 10.234 8.50052 10.534 8.50052H12.0007V7.1671H11.0007L10.2006 3.80032Z" fill="#8DA394"/>
</g>
<defs>
<clipPath id="clip0_28437_26292">
<rect width="16" height="16" fill="white"/>
</clipPath>
</defs>
</svg>
