<svg width="16" height="16" viewBox="0 0 16 16" fill="none" xmlns="http://www.w3.org/2000/svg">
  <path fill-rule="evenodd" clip-rule="evenodd" d="M11.1667 4.66667H11.75C12.0722 4.66667 12.3333 4.92783 12.3333 5.25V11.7279C12.3301 12.9814 11.3148 13.9968 10.0612 14H5.27209C4.01858 13.9968 3.00321 12.9814 3 11.7279V5.25C3 4.92784 3.26117 4.66667 3.58333 4.66667H4.16667V0.583334C4.16667 0.261167 4.42784 0 4.75 0H10.5833C10.9055 0 11.1667 0.261168 11.1667 0.583334V4.66667ZM10 1.16667H5.33334V4.66667H10V1.16667ZM10.0613 12.8333C10.6718 12.8333 11.1667 12.3384 11.1667 11.7279V5.83333H4.16669V11.7279C4.16669 12.3384 4.6616 12.8333 5.2721 12.8333H10.0613ZM6.06251 2.33337C6.06251 2.09175 6.25838 1.89587 6.50001 1.89587C6.74163 1.89587 6.93751 2.09175 6.93751 2.33337V3.20837C6.93751 3.45 6.74163 3.64587 6.50001 3.64587C6.25838 3.64587 6.06251 3.45 6.06251 3.20837V2.33337ZM8.39584 2.33337C8.39584 2.09175 8.59172 1.89587 8.83334 1.89587C9.07497 1.89587 9.27084 2.09175 9.27084 2.33337V3.20837C9.27084 3.45 9.07497 3.64587 8.83334 3.64587C8.59172 3.64587 8.39584 3.45 8.39584 3.20837V2.33337Z" fill="#333333"/>
</svg>
