<svg width="16" height="16" viewBox="0 0 16 16" fill="none" xmlns="http://www.w3.org/2000/svg">
<path fill-rule="evenodd" clip-rule="evenodd" d="M14.2214 2.90939C14.5338 2.59697 14.5338 2.09044 14.2214 1.77802C13.909 1.4656 13.4024 1.4656 13.09 1.77802L7.99945 6.86858L2.90889 1.77802C2.59647 1.4656 2.08993 1.4656 1.77751 1.77802C1.46509 2.09044 1.46509 2.59697 1.77751 2.90939L6.86808 7.99995L1.77631 13.0917C1.46389 13.4041 1.46389 13.9107 1.77631 14.2231C2.08873 14.5355 2.59526 14.5355 2.90768 14.2231L7.99945 9.13132L13.0912 14.2231C13.4036 14.5355 13.9102 14.5355 14.2226 14.2231C14.535 13.9107 14.535 13.4041 14.2226 13.0917L9.13082 7.99995L14.2214 2.90939Z" fill="#333333"/>
</svg>
