<?xml version="1.0" encoding="UTF-8"?>
<svg width="12" height="12" viewBox="0 0 12 12" fill="none" xmlns="http://www.w3.org/2000/svg">
  <path fill-rule="evenodd" clip-rule="evenodd" d="M1.49213 10.427C1.15085 10.7076 1.10167 11.2118 1.38228 11.553C1.6629 11.8943 2.16704 11.9435 2.50831 11.6629L8.37266 6.84095C8.55747 6.68899 8.66457 6.46229 8.66457 6.22302C8.66457 5.98375 8.55747 5.75705 8.37266 5.60509L2.50831 0.783157C2.16704 0.502545 1.6629 0.551723 1.38228 0.892999C1.10167 1.23427 1.15085 1.73841 1.49213 2.01902L6.60495 6.22302L1.49213 10.427ZM9.20022 1.50003L9.20022 11C9.20022 11.4419 9.55839 11.8 10.0002 11.8C10.442 11.8 10.8002 11.4419 10.8002 11L10.8002 1.50003C10.8002 1.0582 10.442 0.700026 10.0002 0.700026C9.55839 0.700026 9.20022 1.0582 9.20022 1.50003Z" fill="#CCCCCC" />
</svg>
