<?xml version="1.0" encoding="UTF-8"?>
<svg width="60px" height="60px" viewBox="0 0 60 60" version="1.1" xmlns="http://www.w3.org/2000/svg" xmlns:xlink="http://www.w3.org/1999/xlink">
    <!-- Generator: Sketch 62 (91390) - https://sketch.com -->
    <desc>Created with Sketch.</desc>
    <defs>
        <path d="M56.557377,35 C58.3953083,35 59.8968457,36.440273 59.994906,38.2537359 L60,38.442623 L60,57.5901639 C60,58.6947334 59.1045695,59.5901639 58,59.5901639 L2,59.5901639 C0.8954305,59.5901639 1.3527075e-16,58.6947334 0,57.5901639 L0,38.442623 C0,36.5413148 1.5413148,35 3.44262295,35 C5.28055417,35 6.78209159,36.440273 6.88015194,38.2537359 L6.8852459,38.442623 L6.8852459,50.704918 C6.8852459,51.8094875 7.7806764,52.704918 8.8852459,52.704918 L51.1147541,52.704918 C52.2193236,52.704918 53.1147541,51.8094875 53.1147541,50.704918 L53.1147541,38.442623 C53.1147541,36.6046917 54.5550271,35.1031543 56.36849,35.005094 L56.557377,35 Z M30,6.5 C31.8685634,6.5 33.3951264,7.9642776 33.4948211,9.8079648 L33.5,10 L33.4998587,34.424 L43.8285217,26.2550625 C45.3445088,25.0557881 47.5456632,25.3125346 48.7449375,26.8285217 C49.9028576,28.2922334 49.7034408,30.3946741 48.3238045,31.6173699 L48.1714783,31.7449375 L30,46.1201175 L11.8285217,31.7449375 C10.3125346,30.5456632 10.0557881,28.3445088 11.2550625,26.8285217 C12.4129825,25.36481 14.5048787,25.0749921 16.0122771,26.1361854 L16.1714783,26.2550625 L26.4998587,34.425 L26.5,10 C26.5,8.06700338 28.0670034,6.5 30,6.5 Z" id="path-11"></path>
    </defs>
    <g id="download" stroke="none" stroke-width="1" fill="none" fill-rule="evenodd">
        <mask id="mask-22" fill="white">
            <use xlink:href="#path-11"></use>
        </mask>
        <use id="Combined-Shape" fill="#979797" fill-rule="nonzero" xlink:href="#path-11"></use>
    </g>
</svg>
