<?xml version="1.0" encoding="UTF-8"?>
<svg width="16" height="16" viewBox="0 0 16 16" fill="none" xmlns="http://www.w3.org/2000/svg">
  <path fill-rule="evenodd" clip-rule="evenodd" d="M7.19948 8.46915L7.19948 0.785713C7.19948 0.351775 7.55765 -3.86244e-08 7.99948 0C8.44131 3.86262e-08 8.79948 0.351775 8.79948 0.785714L8.79948 8.46915L11.4338 5.83484C11.7462 5.52242 12.2527 5.52242 12.5652 5.83484C12.8776 6.14726 12.8776 6.65379 12.5652 6.96621L8.56516 10.9662C8.25275 11.2786 7.74621 11.2786 7.43379 10.9662L3.43379 6.96621C3.12137 6.65379 3.12137 6.14725 3.43379 5.83484C3.74621 5.52242 4.25275 5.52242 4.56517 5.83484L7.19948 8.46915ZM0.8 9.60026C1.24183 9.60026 1.6 9.95843 1.6 10.4003V13.6003C1.6 13.8124 1.68429 14.0159 1.83431 14.1659C1.98434 14.316 2.18783 14.4003 2.4 14.4003H13.6C13.8122 14.4003 14.0157 14.316 14.1657 14.1659C14.3157 14.0159 14.4 13.8124 14.4 13.6003V10.4003C14.4 9.95843 14.7582 9.60026 15.2 9.60026C15.6418 9.60026 16 9.95843 16 10.4003V13.6003C16 14.2368 15.7471 14.8472 15.2971 15.2973C14.847 15.7474 14.2365 16.0003 13.6 16.0003H2.4C1.76348 16.0003 1.15303 15.7474 0.702944 15.2973C0.252856 14.8472 0 14.2368 0 13.6003V10.4003C0 9.95843 0.358172 9.60026 0.8 9.60026Z" fill="#00C891"/>
</svg>
