<svg width="16" height="16" viewBox="0 0 16 16" fill="none" xmlns="http://www.w3.org/2000/svg">
<path fill-rule="evenodd" clip-rule="evenodd" d="M11.9294 1.82657C12.0944 1.6616 12.3181 1.56893 12.5514 1.56893C12.667 1.56893 12.7813 1.59168 12.8881 1.63589C12.9948 1.68009 13.0918 1.74489 13.1734 1.82657C13.2551 1.90825 13.3199 2.00522 13.3641 2.11194C13.4083 2.21866 13.4311 2.33305 13.4311 2.44856C13.4311 2.56408 13.4083 2.67846 13.3641 2.78518C13.3199 2.89191 13.2551 2.98888 13.1734 3.07056L3.52128 12.7227L1.86262 13.1374L2.27729 11.4787L11.9294 1.82657ZM12.5514 0C11.902 0 11.2792 0.257973 10.82 0.717167L1.01424 10.523C0.913709 10.6235 0.842386 10.7495 0.807903 10.8874L0.0234388 14.0253C-0.0433927 14.2926 0.0349354 14.5754 0.229781 14.7702C0.424626 14.9651 0.707415 15.0434 0.974741 14.9766L4.1126 14.1921C4.25053 14.1576 4.3765 14.0863 4.47704 13.9858L14.2828 4.17996C14.5102 3.95259 14.6906 3.68266 14.8136 3.38559C14.9367 3.08851 15 2.77011 15 2.44856C15 2.12701 14.9367 1.80861 14.8136 1.51154C14.6906 1.21446 14.5102 0.944537 14.2828 0.717167C14.0555 0.489797 13.7855 0.309438 13.4885 0.186386C13.1914 0.0633339 12.873 0 12.5514 0ZM7.84503 13.4309C7.41178 13.4309 7.06056 13.7821 7.06056 14.2154C7.06056 14.6486 7.41178 14.9998 7.84503 14.9998H14.9052C15.3384 14.9998 15.6897 14.6486 15.6897 14.2154C15.6897 13.7821 15.3384 13.4309 14.9052 13.4309H7.84503Z" fill="#00C891"/>
</svg>
