<svg width="16" height="14" viewBox="0 0 16 14" fill="none" xmlns="http://www.w3.org/2000/svg">
  <g id="history/icon/failed" stroke="none" stroke-width="0" fill="none" fill-rule="evenodd">
    <path fill-rule="evenodd" clip-rule="evenodd" d="M7.01884 0.588149C7.31899 0.420957 7.6571 0.333374 8.00065 0.333374C8.3442 0.333374 8.68232 0.420957 8.98246 0.588149C9.28264 0.755365 9.53505 0.996782 9.71468 1.28978L9.71662 1.29295L9.71661 1.29296L15.3914 10.6661L15.3969 10.6753L15.3969 10.6754C15.5729 10.977 15.6663 11.3195 15.6673 11.6688C15.6683 12.018 15.5768 12.3611 15.4025 12.6637C15.2282 12.9662 14.9773 13.2175 14.6756 13.3931C14.374 13.5687 14.0317 13.6629 13.6827 13.6667L13.6754 13.6667V13.6667H2.32589H2.31864L2.31864 13.6667C1.96963 13.6629 1.62731 13.5687 1.32565 13.3931C1.02395 13.2175 0.773126 12.9662 0.598824 12.6637C0.424491 12.3611 0.333004 12.018 0.333992 11.6688C0.334981 11.3195 0.428408 10.977 0.604441 10.6754L0.609853 10.6661L0.609927 10.6661L6.28469 1.29296L6.855 1.63824L6.28662 1.28978C6.46625 0.996782 6.71866 0.755365 7.01884 0.588149ZM7.42413 1.98538L7.42334 1.98668L1.75378 11.3513C1.69725 11.4496 1.66764 11.5603 1.66732 11.6725C1.667 11.7862 1.69675 11.8985 1.75415 11.9981C1.81157 12.0978 1.89489 12.1817 1.99649 12.2408C2.09729 12.2995 2.21228 12.3316 2.33014 12.3334H13.6712C13.789 12.3316 13.904 12.2995 14.0048 12.2408C14.1064 12.1817 14.1897 12.0978 14.2472 11.9981C14.3046 11.8985 14.3343 11.7862 14.334 11.6725C14.3337 11.5603 14.304 11.4496 14.2475 11.3513L8.57797 1.98668L8.57717 1.98538C8.51797 1.88932 8.43433 1.80906 8.33361 1.75296C8.2324 1.69658 8.1177 1.66671 8.00065 1.66671C7.8836 1.66671 7.7689 1.69658 7.66769 1.75296C7.56697 1.80906 7.48333 1.88932 7.42413 1.98538ZM7.9987 4.33337C8.36689 4.33337 8.66536 4.63184 8.66536 5.00003V8.00003C8.66536 8.36822 8.36689 8.6667 7.9987 8.6667C7.63051 8.6667 7.33203 8.36822 7.33203 8.00003V5.00003C7.33203 4.63184 7.63051 4.33337 7.9987 4.33337ZM7.9987 9.6667C7.63051 9.6667 7.33203 9.96518 7.33203 10.3334C7.33203 10.7016 7.63051 11 7.9987 11H8.00536C8.37355 11 8.67203 10.7016 8.67203 10.3334C8.67203 9.96518 8.37355 9.6667 8.00536 9.6667H7.9987Z" fill="#FF1E1E"/>
  </g>
</svg>
