<svg width="20" height="20" viewBox="0 0 20 20" fill="none" xmlns="http://www.w3.org/2000/svg">
<path opacity="0.5" d="M17.0408 12.3675L18.9015 17.2897C19.2816 18.2924 18.5144 19.3556 17.4139 19.3533H2.58644C1.4882 19.3533 0.721059 18.297 1.09647 17.2944L2.61209 13.2395C3.02946 13.1159 3.56809 12.9807 4.18367 12.8874C6.11899 12.5936 7.87478 12.8221 9.39973 13.566C10.2018 13.9577 11.0669 14.1536 11.9763 14.1536C12.2444 14.1536 12.5172 14.1372 12.7947 14.1023C13.7367 13.9857 14.7184 13.6662 15.714 13.1579C16.2084 12.9037 16.6537 12.6286 17.0408 12.3675ZM5.88389 14.6517C5.28449 14.6517 4.79858 15.1376 4.79858 15.737C4.79858 16.3364 5.28449 16.8223 5.88389 16.8223C6.48329 16.8223 6.9692 16.3364 6.9692 15.737C6.9692 15.1376 6.48329 14.6517 5.88389 14.6517ZM14.8186 1C15.4459 1 15.9542 1.50832 15.9542 2.13555C15.9542 2.76278 15.4459 3.2711 14.8186 3.2711H14.7417C14.5878 3.2711 14.4619 3.39701 14.4619 3.5509V5.4912C14.4619 5.52385 14.4689 5.55649 14.4805 5.58914L16.5301 11.0151C16.1221 11.3088 15.6161 11.6353 15.0448 11.9268C13.1561 12.8851 11.461 13.0133 10.0106 12.3068C9.01732 11.8242 7.92608 11.5234 6.77188 11.4138C5.85551 11.3275 4.8995 11.3601 3.92484 11.5117C3.67302 11.5513 3.43285 11.5957 3.20667 11.6446L5.47078 5.59147C5.48243 5.56116 5.48943 5.52618 5.48943 5.49354V3.5509C5.48943 3.39701 5.36352 3.2711 5.20962 3.2711H5.149C4.52177 3.2711 4.01345 2.76278 4.01345 2.13555C4.01345 1.50832 4.52177 1 5.149 1H14.8186ZM11.3104 4.88389C10.711 4.88389 10.2251 5.3698 10.2251 5.9692C10.2251 6.5686 10.711 7.05451 11.3104 7.05451C11.9098 7.05451 12.3957 6.5686 12.3957 5.9692C12.3957 5.3698 11.9098 4.88389 11.3104 4.88389Z" fill="white"/>
</svg>
