<svg width="20" height="20" viewBox="0 0 20 20" fill="none" xmlns="http://www.w3.org/2000/svg">
<path fill-rule="evenodd" clip-rule="evenodd" d="M17.6564 19.1673H2.34297C1.80025 19.1673 1.31298 18.8917 1.04002 18.4306C0.767058 17.9695 0.763859 17.4172 1.03149 16.9529L6.44162 7.58401C6.46082 7.55048 6.47148 7.5117 6.47148 7.47293V2.36176H5.35092C4.9656 2.36176 4.65247 2.01929 4.65247 1.59787C4.65247 1.17646 4.9656 0.833984 5.35092 0.833984H7.11123H12.7837H14.6485C15.0338 0.833984 15.3469 1.17646 15.3469 1.59787C15.3469 2.01929 15.0349 2.36176 14.6485 2.36176H13.4234V7.46977C13.4234 7.5096 13.4341 7.54837 13.4543 7.58191L18.9615 16.9424C19.2344 17.4067 19.2344 17.9611 18.9626 18.4253C18.6896 18.8896 18.2013 19.1673 17.6564 19.1673ZM12.145 2.36176V7.46979C12.1452 7.73028 12.2151 7.98612 12.3475 8.21176L14.5555 11.9646C13.2133 11.466 11.2319 11.246 9.53716 12.1277C8.02942 12.9126 6.08875 12.5011 5.21936 12.2487L7.55477 8.20441C7.68272 7.98224 7.75096 7.72863 7.75096 7.47292V2.36176H12.145ZM7.43895 13.82C6.19199 13.82 5.09367 13.5168 4.58349 13.3499L2.14464 17.5733C2.08812 17.6708 2.12118 17.7557 2.1457 17.7976C2.17023 17.8395 2.22887 17.9097 2.34296 17.9097H17.6564C17.7715 17.9097 17.8302 17.8395 17.8547 17.7976C17.8792 17.7557 17.9123 17.6708 17.8547 17.5723L15.6351 13.7996C15.4023 13.8582 15.1451 13.7853 14.983 13.5925C14.7021 13.2672 12.1737 12.1565 10.138 13.2168C9.26695 13.6697 8.3164 13.82 7.43898 13.82H7.43895Z" fill="#333333"/>
<path d="M1.04002 18.4306L1.25515 18.3032H1.25515L1.04002 18.4306ZM1.03149 16.9529L0.81499 16.8279L0.814898 16.8281L1.03149 16.9529ZM6.44162 7.58401L6.65812 7.70903L6.6586 7.70819L6.44162 7.58401ZM6.47148 2.36176H6.72148V2.11176H6.47148V2.36176ZM13.4234 2.36176V2.11176H13.1734V2.36176H13.4234ZM13.4543 7.58191L13.6698 7.45513L13.6683 7.45264L13.4543 7.58191ZM18.9615 16.9424L19.177 16.8157L19.177 16.8157L18.9615 16.9424ZM18.9626 18.4253L19.1781 18.552L19.1783 18.5517L18.9626 18.4253ZM12.145 2.36176H12.395V2.11176H12.145V2.36176ZM12.145 7.46979H11.895V7.47007L12.145 7.46979ZM12.3475 8.21176L12.1319 8.3383L12.1321 8.33853L12.3475 8.21176ZM14.5555 11.9646L14.4684 12.199L15.1275 12.4438L14.771 11.8378L14.5555 11.9646ZM9.53716 12.1277L9.42178 11.9059L9.42171 11.9059L9.53716 12.1277ZM5.21936 12.2487L5.00286 12.1237L4.84337 12.3999L5.14968 12.4888L5.21936 12.2487ZM7.55477 8.20441L7.77127 8.32943L7.77142 8.32918L7.55477 8.20441ZM7.75096 2.36176V2.11176H7.50096V2.36176H7.75096ZM4.58349 13.3499L4.66122 13.1123L4.46843 13.0492L4.36699 13.2249L4.58349 13.3499ZM2.14464 17.5733L2.36091 17.6987L2.36113 17.6984L2.14464 17.5733ZM2.1457 17.7976L2.36149 17.6714L2.36149 17.6714L2.1457 17.7976ZM17.8547 17.7976L17.6389 17.6714L17.6389 17.6714L17.8547 17.7976ZM17.8547 17.5723L18.0705 17.4461L18.0702 17.4455L17.8547 17.5723ZM15.6351 13.7996L15.8505 13.6728L15.7556 13.5114L15.574 13.5572L15.6351 13.7996ZM14.983 13.5925L15.1743 13.4316L15.1722 13.4291L14.983 13.5925ZM10.138 13.2168L10.2534 13.4386L10.2535 13.4385L10.138 13.2168ZM2.34297 19.4173H17.6564V18.9173H2.34297V19.4173ZM0.824884 18.5579C1.14353 19.0962 1.71325 19.4173 2.34297 19.4173V18.9173C1.88725 18.9173 1.48242 18.6872 1.25515 18.3032L0.824884 18.5579ZM0.814898 16.8281C0.502206 17.3705 0.505962 18.0192 0.824884 18.5579L1.25515 18.3032C1.02815 17.9198 1.02551 17.4639 1.24808 17.0778L0.814898 16.8281ZM6.22513 7.459L0.81499 16.8279L1.24798 17.078L6.65812 7.70903L6.22513 7.459ZM6.22148 7.47293C6.22148 7.46949 6.22194 7.46696 6.22241 7.46519C6.22289 7.46342 6.22359 7.46169 6.22465 7.45983L6.6586 7.70819C6.69872 7.6381 6.72148 7.55668 6.72148 7.47293H6.22148ZM6.22148 2.36176V7.47293H6.72148V2.36176H6.22148ZM6.47148 2.11176H5.35092V2.61176H6.47148V2.11176ZM5.35092 2.11176C5.12428 2.11176 4.90247 1.90276 4.90247 1.59787H4.40247C4.40247 2.13581 4.80693 2.61176 5.35092 2.61176V2.11176ZM4.90247 1.59787C4.90247 1.29299 5.12428 1.08398 5.35092 1.08398V0.583984C4.80693 0.583984 4.40247 1.05993 4.40247 1.59787H4.90247ZM5.35092 1.08398H7.11123V0.583984H5.35092V1.08398ZM7.11123 1.08398H12.7837V0.583984H7.11123V1.08398ZM12.7837 1.08398H14.6485V0.583984H12.7837V1.08398ZM14.6485 1.08398C14.8751 1.08398 15.0969 1.29299 15.0969 1.59787H15.5969C15.5969 1.05993 15.1924 0.583984 14.6485 0.583984V1.08398ZM15.0969 1.59787C15.0969 1.90304 14.876 2.11176 14.6485 2.11176V2.61176C15.1939 2.61176 15.5969 2.13553 15.5969 1.59787H15.0969ZM14.6485 2.11176H13.4234V2.61176H14.6485V2.11176ZM13.6734 7.46977V2.36176H13.1734V7.46977H13.6734ZM13.6683 7.45264C13.6721 7.45894 13.6734 7.46501 13.6734 7.46977H13.1734C13.1734 7.55418 13.196 7.63781 13.2403 7.71118L13.6683 7.45264ZM19.177 16.8157L13.6698 7.45514L13.2389 7.70868L18.746 17.0692L19.177 16.8157ZM19.1783 18.5517C19.4959 18.0094 19.4959 17.3582 19.177 16.8157L18.746 17.0692C18.973 17.4552 18.973 17.9128 18.7468 18.299L19.1783 18.5517ZM17.6564 19.4173C18.2887 19.4173 18.8596 19.0936 19.1781 18.552L18.747 18.2986C18.5196 18.6855 18.1138 18.9173 17.6564 18.9173V19.4173ZM11.895 2.36176V7.46979H12.395V2.36176H11.895ZM11.895 7.47007C11.8953 7.77516 11.9771 8.07456 12.1319 8.3383L12.5631 8.08521C12.4531 7.89769 12.3952 7.68539 12.395 7.4695L11.895 7.47007ZM12.1321 8.33853L14.34 12.0914L14.771 11.8378L12.563 8.08498L12.1321 8.33853ZM14.6426 11.7303C13.26 11.2167 11.2001 10.9808 9.42178 11.9059L9.65253 12.3494C11.2638 11.5113 13.1666 11.7154 14.4684 12.199L14.6426 11.7303ZM9.42171 11.9059C8.72131 12.2706 7.90828 12.3626 7.15047 12.3275C6.39452 12.2924 5.71255 12.1316 5.28904 12.0086L5.14968 12.4888C5.59556 12.6182 6.31862 12.7894 7.12728 12.8269C7.93408 12.8644 8.84526 12.7697 9.6526 12.3494L9.42171 11.9059ZM5.43586 12.3737L7.77127 8.32943L7.33828 8.07939L5.00286 12.1237L5.43586 12.3737ZM7.77142 8.32918C7.92105 8.06935 8.00096 7.77276 8.00096 7.47292H7.50096C7.50096 7.6845 7.4444 7.89513 7.33813 8.07965L7.77142 8.32918ZM8.00096 7.47292V2.36176H7.50096V7.47292H8.00096ZM12.145 2.11176H7.75096V2.61176H12.145V2.11176ZM4.50576 13.5875C5.02854 13.7585 6.15506 14.07 7.43895 14.07V13.57C6.22892 13.57 5.15879 13.2751 4.66122 13.1123L4.50576 13.5875ZM2.36113 17.6984L4.79999 13.4749L4.36699 13.2249L1.92814 17.4483L2.36113 17.6984ZM2.36149 17.6714C2.36151 17.6714 2.36153 17.6714 2.36155 17.6715C2.36158 17.6715 2.36168 17.6718 2.36183 17.6722C2.3621 17.6729 2.36286 17.6752 2.36327 17.6789C2.36371 17.6829 2.36364 17.6877 2.36266 17.6926C2.36164 17.6977 2.36025 17.6999 2.36091 17.6987L1.92836 17.4479C1.80779 17.6559 1.88289 17.8435 1.92992 17.9238L2.36149 17.6714ZM2.34296 17.6597C2.34055 17.6597 2.34198 17.6594 2.34582 17.6607C2.34952 17.6619 2.35302 17.6638 2.35582 17.6658C2.3584 17.6676 2.35983 17.6692 2.36038 17.6698C2.36089 17.6704 2.36117 17.6708 2.36149 17.6714L1.92991 17.9238C1.97859 18.007 2.10556 18.1597 2.34296 18.1597V17.6597ZM17.6564 17.6597H2.34296V18.1597H17.6564V17.6597ZM17.6389 17.6714C17.6392 17.6708 17.6396 17.6703 17.6401 17.6697C17.6407 17.669 17.6422 17.6674 17.6448 17.6655C17.6477 17.6635 17.6511 17.6617 17.6546 17.6606C17.6582 17.6594 17.6593 17.6597 17.6564 17.6597V18.1597C17.8942 18.1597 18.0214 18.0078 18.0705 17.9238L17.6389 17.6714ZM17.6389 17.6984C17.6399 17.7001 17.6386 17.6984 17.6376 17.6935C17.6366 17.6887 17.6364 17.6838 17.6369 17.6797C17.6373 17.6758 17.6381 17.6734 17.6384 17.6724C17.6386 17.672 17.6388 17.6717 17.6388 17.6716C17.6389 17.6715 17.6389 17.6714 17.6389 17.6714L18.0705 17.9239C18.1181 17.8424 18.1924 17.6547 18.0705 17.4461L17.6389 17.6984ZM15.4196 13.9264L17.6392 17.6991L18.0702 17.4455L15.8505 13.6728L15.4196 13.9264ZM14.7916 13.7534C15.0188 14.0235 15.3758 14.1227 15.6961 14.042L15.574 13.5572C15.4287 13.5937 15.2714 13.547 15.1743 13.4316L14.7916 13.7534ZM10.2535 13.4385C11.2021 12.9444 12.2788 12.9506 13.1692 13.1301C13.6122 13.2194 14.0016 13.3503 14.2945 13.4769C14.4411 13.5403 14.561 13.6015 14.6499 13.6544C14.6944 13.6808 14.7293 13.704 14.755 13.7233C14.7677 13.7328 14.7773 13.7407 14.7842 13.7468C14.7913 13.7531 14.7939 13.7561 14.7937 13.7559L15.1722 13.4291C15.1093 13.3563 15.0096 13.2865 14.9054 13.2246C14.7944 13.1586 14.6547 13.0879 14.4929 13.018C14.1692 12.878 13.7465 12.7365 13.268 12.64C12.3149 12.4478 11.1096 12.4288 10.0225 12.995L10.2535 13.4385ZM7.43898 14.07C8.34323 14.07 9.33647 13.9153 10.2534 13.4386L10.0227 12.995C9.19742 13.4241 8.28956 13.57 7.43898 13.57V14.07ZM7.43895 14.07H7.43898V13.57H7.43895V14.07Z" fill="#333333"/>
</svg>
