<?xml version="1.0" standalone="no"?><!DOCTYPE svg PUBLIC "-//W3C//DTD SVG 1.1//EN" "http://www.w3.org/Graphics/SVG/1.1/DTD/svg11.dtd"><svg t="1645427995408" class="icon" viewBox="0 0 1024 1024" version="1.1" xmlns="http://www.w3.org/2000/svg" p-id="4653" xmlns:xlink="http://www.w3.org/1999/xlink" width="16" height="16"><defs><style type="text/css"></style></defs><path d="M874.666667 42.666667h-725.333334C89.6 42.666667 42.666667 89.6 42.666667 149.333333v725.333334C42.666667 934.4 89.6 981.333333 149.333333 981.333333h725.333334c59.733333 0 106.666667-46.933333 106.666666-106.666666v-725.333334C981.333333 89.6 934.4 42.666667 874.666667 42.666667z m-725.333334 85.333333h725.333334c12.8 0 21.333333 8.533333 21.333333 21.333333V341.333333H128V149.333333c0-12.8 8.533333-21.333333 21.333333-21.333333z m725.333334 768h-725.333334c-12.8 0-21.333333-8.533333-21.333333-21.333333V426.666667h768v448c0 12.8-8.533333 21.333333-21.333333 21.333333z" p-id="4654" fill="#fff"></path><path d="M234.666667 277.333333h42.666666c25.6 0 42.666667-17.066667 42.666667-42.666666s-17.066667-42.666667-42.666667-42.666667h-42.666666c-25.6 0-42.666667 17.066667-42.666667 42.666667s17.066667 42.666667 42.666667 42.666666zM405.333333 277.333333h42.666667c25.6 0 42.666667-17.066667 42.666667-42.666666s-17.066667-42.666667-42.666667-42.666667h-42.666667c-25.6 0-42.666667 17.066667-42.666666 42.666667s17.066667 42.666667 42.666666 42.666666zM576 277.333333h42.666667c25.6 0 42.666667-17.066667 42.666666-42.666666s-17.066667-42.666667-42.666666-42.666667h-42.666667c-25.6 0-42.666667 17.066667-42.666667 42.666667s17.066667 42.666667 42.666667 42.666666z" p-id="4655" fill="#fff"></path></svg>
