<svg width="16" height="16" viewBox="0 0 16 16" fill="none" xmlns="http://www.w3.org/2000/svg">
  <path
    d="M10.7872 5.21283C10.9592 5.3847 11.0192 5.63901 10.9423 5.86967L9.77567 9.36967C9.71181 9.56138 9.56138 9.71181 9.36967 9.77567L5.86967 10.9423C5.53357 11.0547 5.17002 10.8733 5.05767 10.5372C5.01353 10.4052 5.01353 10.2624 5.05767 10.1303L6.22433 6.63033C6.28819 6.43862 6.43862 6.28819 6.63033 6.22433L10.1303 5.05767C10.361 4.98077 10.6153 5.04084 10.7872 5.21283ZM7.34083 7.34083L6.68167 9.31833L8.65917 8.65917L9.31833 6.68167L7.34083 7.34083ZM8 13.6C11.0928 13.6 13.6 11.0928 13.6 8C13.6 4.9072 11.0928 2.4 8 2.4H8C4.9072 2.4 2.4 4.9072 2.4 8C2.4 11.0928 4.9072 13.6 8 13.6H8ZM15 8C15 11.866 11.866 15 8 15C4.13401 15 1 11.866 1 8V8C1 4.13401 4.13401 1 8 1C11.866 1 15 4.13401 15 8V8Z"
    fill="#8DA394" />
</svg>
