<svg width="12" height="12" viewBox="0 0 12 12" fill="none" xmlns="http://www.w3.org/2000/svg">
<path fill-rule="evenodd" clip-rule="evenodd" d="M5.39961 6.3515L5.39961 0.589285C5.39961 0.263831 5.66824 0 5.99961 0C6.33098 0 6.59961 0.263832 6.59961 0.589285L6.59961 6.3515L8.57535 4.37576C8.80966 4.14145 9.18956 4.14145 9.42387 4.37576C9.65819 4.61007 9.65819 4.98997 9.42387 5.22429L6.42387 8.22429C6.18956 8.4586 5.80966 8.4586 5.57535 8.22429L2.57535 5.22429C2.34103 4.98997 2.34103 4.61007 2.57535 4.37576C2.80966 4.14145 3.18956 4.14145 3.42387 4.37576L5.39961 6.3515ZM0.6 7.20007C0.931371 7.20007 1.2 7.4687 1.2 7.80007V10.2001C1.2 10.3592 1.26321 10.5118 1.37574 10.6243C1.48826 10.7369 1.64087 10.8001 1.8 10.8001H10.2C10.3591 10.8001 10.5117 10.7369 10.6243 10.6243C10.7368 10.5118 10.8 10.3592 10.8 10.2001V7.80007C10.8 7.4687 11.0686 7.20007 11.4 7.20007C11.7314 7.20007 12 7.4687 12 7.80007V10.2001C12 10.6775 11.8104 11.1353 11.4728 11.4729C11.1352 11.8104 10.6774 12.0001 10.2 12.0001H1.8C1.32261 12.0001 0.864773 11.8104 0.527208 11.4729C0.189642 11.1353 0 10.6775 0 10.2001V7.80007C0 7.4687 0.268629 7.20007 0.6 7.20007Z" fill="#00C891"/>
</svg>
