<svg width="16" height="16" viewBox="0 0 16 16" fill="none" xmlns="http://www.w3.org/2000/svg">
<path fill-rule="evenodd" clip-rule="evenodd" d="M8.39999 12.7999C3.92247 12.7999 0.799988 8.85395 0.799988 7.5999C0.799988 6.34587 3.92247 2.3999 8.39999 2.3999C12.8775 2.3999 16 6.34586 16 7.5999C16 8.85394 12.8775 12.7999 8.39999 12.7999ZM12.0002 7.5999C12.0002 5.61179 10.3882 3.9999 8.40018 3.9999C6.41172 3.9999 4.80018 5.61178 4.80018 7.5999C4.80018 9.58801 6.41212 11.1999 8.40018 11.1999C10.3886 11.1995 12.0002 9.58802 12.0002 7.5999ZM8.40057 9.5999C9.50518 9.5999 10.4006 8.70444 10.4006 7.5999C10.4006 6.49537 9.50518 5.5999 8.40057 5.5999C7.29596 5.5999 6.40057 6.49537 6.40057 7.5999C6.40057 8.70443 7.29597 9.5999 8.40057 9.5999Z" fill="#666666"/>
</svg>
