<svg width="16" height="16" viewBox="0 0 16 16" fill="none" xmlns="http://www.w3.org/2000/svg">
<path fill-rule="evenodd" clip-rule="evenodd" d="M7.2 8.72669C6.63254 8.65592 6.07502 8.53457 5.53339 8.36542C5.50051 8.4431 5.45539 8.5169 5.39802 8.5839L3.02548 10.9568C2.86932 11.1117 2.65856 11.1991 2.43863 11.2C2.21579 11.2013 2.00161 11.1138 1.8434 10.9568C1.51835 10.6298 1.51835 10.1016 1.8434 9.77456L3.92151 7.69611C2.81569 7.11455 1.81642 6.31556 0.987171 5.32888C0.706994 4.99395 0.745431 4.49022 1.07302 4.20376C1.40062 3.91731 1.89331 3.95661 2.17349 4.29154L2.17349 4.29154C5.12506 7.7995 10.2992 8.19694 13.7303 5.17925C14.041 4.90596 14.3313 4.60923 14.5986 4.29154C14.8788 3.9478 15.3784 3.90135 15.7147 4.1878C16.0509 4.47426 16.0963 4.98513 15.8161 5.32888C14.9863 6.31627 13.9861 7.1157 12.8794 7.69737L14.9562 9.77455C15.2813 10.1016 15.2813 10.6298 14.9562 10.9568C14.798 11.1138 14.5838 11.2013 14.361 11.2C14.1411 11.1991 13.9303 11.1117 13.7741 10.9568L11.4016 8.58389C11.3443 8.51692 11.2993 8.4435 11.2666 8.36645C10.4723 8.61419 9.6438 8.75916 8.8 8.79254V11.2C8.8 11.6418 8.44183 12 8 12C7.55817 12 7.2 11.6418 7.2 11.2V8.72669Z" fill="#666666"/>
</svg>
