<?xml version="1.0" encoding="UTF-8"?>
<svg width="60px" height="60px" viewBox="0 0 60 60" version="1.1" xmlns="http://www.w3.org/2000/svg" xmlns:xlink="http://www.w3.org/1999/xlink">
    <title>failed_frame</title>
    <g id="failed_frame" stroke="none" stroke-width="1" fill="none" fill-rule="evenodd">
        <path d="M30,0 C46.5685425,0 60,13.4314575 60,30 C60,46.5685425 46.5685425,60 30,60 C13.4314575,60 0,46.5685425 0,30 C0,13.4314575 13.4314575,0 30,0 Z M30,4 C15.6405965,4 4,15.6405965 4,30 C4,44.3594035 15.6405965,56 30,56 C44.3594035,56 56,44.3594035 56,30 C56,15.6405965 44.3594035,4 30,4 Z M38.0187879,18 L42,21.9812121 L33.981,30 L42,38.0187879 L38.0187879,42 L30,33.981 L21.9812121,42 L18,38.0187879 L26.019,30 L18,21.9812121 L21.9812121,18 L30,26.018 L38.0187879,18 Z" id="Shape" fill="#d03a3a" fill-rule="nonzero"></path>
    </g>
</svg>
