<?xml version="1.0" encoding="utf-8"?>
<!-- Generator: Adobe Illustrator 23.0.2, SVG Export Plug-In . SVG Version: 6.00 Build 0)  -->
<svg version="1.1" id="Layer_1" xmlns="http://www.w3.org/2000/svg" xmlns:xlink="http://www.w3.org/1999/xlink" x="0px" y="0px"
	 viewBox="0 0 60 60" style="enable-background:new 0 0 60 60;" xml:space="preserve">
<style type="text/css">
	.st0{fill-rule:evenodd;clip-rule:evenodd;fill:#3CC68A;}
</style>
<desc>Created with Sketch.</desc>
<g id="experimental">
	<path id="Shape-Copy" class="st0" d="M38.4,8.8c0.5,0,0.9,0.4,1,0.9v0.1v12c0,0.2,0,0.4,0.1,0.7l0.1,0.2l12.7,28.9
		c0.3,0.8,0.5,1.6,0.5,2.4c0,3.2-2.6,5.9-5.8,6h-0.2H13c-0.8,0-1.7-0.2-2.4-0.5c-3-1.3-4.3-4.7-3.1-7.7l0.1-0.2l12.8-28.9
		c0.1-0.2,0.1-0.4,0.2-0.6v-0.2v-12c0-0.5,0.4-0.9,0.9-1h0.1L38.4,8.8L38.4,8.8z M43,49.1c-1.8,0-3.3,1.5-3.3,3.3s1.5,3.3,3.3,3.3
		s3.3-1.5,3.3-3.3S44.8,49.1,43,49.1z M36.5,48c-1.2,0-2.2,1-2.2,2.2s1,2.2,2.2,2.2s2.2-1,2.2-2.2S37.7,48,36.5,48z M38.9,0
		c1.7,0,3,1.3,3,3v0.5c0,1.7-1.3,3-3,3h-18c-1.7,0-3-1.3-3-3V3c0-1.7,1.3-3,3-3H38.9z"/>
</g>
</svg>
