<?xml version="1.0" encoding="UTF-8"?>
<svg width="60px" height="60px" viewBox="0 0 60 60" version="1.1" xmlns="http://www.w3.org/2000/svg" xmlns:xlink="http://www.w3.org/1999/xlink">
    <title>1. Icon/hardwallet_import</title>
    <g id="1.-Icon/hardwallet_import" stroke="none" stroke-width="1" fill="none" fill-rule="evenodd">
        <path d="M44,0 L44,14 L45,14 C47.7614237,14 50,16.2385763 50,19 L50.0008546,30.0044651 C48.7380969,29.5250029 47.3964241,29.2058057 46.0006763,29.0717138 L46,19 C46,18.4871642 45.6139598,18.0644928 45.1166211,18.0067277 L45,18 L15,18 C14.4871642,18 14.0644928,18.3860402 14.0067277,18.8833789 L14,19 L14,55 C14,55.5128358 14.3860402,55.9355072 14.8833789,55.9932723 L15,56 L34.1081339,56.000562 C36.8572779,58.4862284 40.5018588,60 44.5,60 L15,60 C12.2385763,60 10,57.7614237 10,55 L10,19 C10,16.2385763 12.2385763,14 15,14 L16,14 L16,0 L44,0 Z M44.5,31.5 C51.9558441,31.5 58,37.3202983 58,44.5 C58,51.6797017 51.9558441,57.5 44.5,57.5 C37.0441559,57.5 31,51.6797017 31,44.5 C31,37.3202983 37.0441559,31.5 44.5,31.5 Z M44.6762525,36 L36.5502525,44.1058851 L39.3786797,46.9343123 L42.4992525,43.8127105 L42.5,52.0082866 L46.5,52.0082866 L46.4992525,43.4587105 L49.9748737,46.9343123 L52.8033009,44.1058851 L44.6762525,36 Z M29.4172965,48.0862145 C29.7291112,49.4037817 30.2091297,50.6557259 30.833276,51.8187853 L30.7126511,51.8693019 C30.4912744,51.9537484 30.2510385,52 30,52 C28.8954305,52 28,51.1045695 28,50 C28,49.0981209 28.5969562,48.3356683 29.4172965,48.0862145 Z M44,22 L44.0006472,29.0078914 C42.9720499,29.040446 41.9687369,29.1732172 41.0001496,29.3967637 L41,25 L19,25 L19,41 L29.3967637,41.0001496 C29.1732172,41.9687369 29.040446,42.9720499 29.0078914,44.0006472 L16,44 L16,22 L44,22 Z M40,4 L20,4 L20,14 L40,14 L40,4 Z" id="hardwallet_import" fill="#979797" fill-rule="nonzero"></path>
    </g>
</svg>