<?xml version="1.0" encoding="UTF-8"?>
<svg width="60px" height="60px" viewBox="0 0 60 60" version="1.1" xmlns="http://www.w3.org/2000/svg" xmlns:xlink="http://www.w3.org/1999/xlink">
    <title>1. Icon/hardwallet_disconnected</title>
    <g id="1.-Icon/hardwallet_disconnected" stroke="none" stroke-width="1" fill="none" fill-rule="evenodd">
        <path d="M5.21317352,3.71465789 L57.2853421,54.7131735 L53.7868265,58.2853421 L49.9996579,54.576 L50,55 C50,57.7614237 47.7614237,60 45,60 L15,60 C12.2385763,60 10,57.7614237 10,55 L10,19 C10,17.9728845 10.3097022,17.0181039 10.8408175,16.2239472 L1.71465789,7.28682648 L5.21317352,3.71465789 Z M13.9996579,19.318 L14,55 C14,55.5128358 14.3860402,55.9355072 14.8833789,55.9932723 L15,56 L45,56 C45.5128358,56 45.9355072,55.6139598 45.9932723,55.1166211 L46,55 L45.9996579,50.658 L39.2006579,44 L16,44 L16,22 L16.7386579,22 L13.9996579,19.318 Z M30,48 C31.1045695,48 32,48.8954305 32,50 C32,51.1045695 31.1045695,52 30,52 C28.8954305,52 28,51.1045695 28,50 C28,48.8954305 28.8954305,48 30,48 Z M44,0 L44,14 L45,14 C47.7614237,14 50,16.2385763 50,19 L50,42.681 L46,38.764 L46,19 C46,18.4871642 45.6139598,18.0644928 45.1166211,18.0067277 L45,18 L24.8,18 L20.715,14 L40,14 L40,4 L20,4 L20,13.299 L16,9.382 L16,0 L44,0 Z M19.8016579,25 L19,25 L19,41 L36.1376579,41 L19.8016579,25 Z M44,22 L44,36.805 L41,33.867 L41,25 L31.947,25 L28.884,22 L44,22 Z" id="hardwallet_disconnected" fill="#979797" fill-rule="nonzero"></path>
    </g>
</svg>