<svg width="16" height="16" viewBox="0 0 16 16" fill="none" xmlns="http://www.w3.org/2000/svg">
<path fill-rule="evenodd" clip-rule="evenodd" d="M12.5 5.98132H13.25C13.6642 5.98132 14 6.31605 14 6.72898V13.0878C13.9959 14.6945 12.6904 15.9959 11.0788 16H4.92126C3.30961 15.9959 2.00413 14.6945 2 13.0879V6.72898C2 6.31606 2.33579 5.98132 2.75 5.98132H3.5V1.74766C3.5 1.33474 3.83579 1 4.25 1H11.75C12.1642 1 12.5 1.33474 12.5 1.74766V5.98132ZM11 2.49533H5.00002V5.98132H11V2.49533ZM11.0788 14.5047C11.8637 14.5047 12.5 13.8703 12.5 13.0879V7.47664H3.50003V13.0879C3.50003 13.8703 4.13634 14.5047 4.92128 14.5047H11.0788ZM5.93753 3.99483C5.93753 3.68514 6.18937 3.43408 6.50003 3.43408C6.81069 3.43408 7.06253 3.68514 7.06253 3.99483V4.5465C7.06253 4.85619 6.81069 5.10725 6.50003 5.10725C6.18937 5.10725 5.93753 4.85619 5.93753 4.5465V3.99483ZM8.93754 3.99483C8.93754 3.68514 9.18938 3.43408 9.50004 3.43408C9.8107 3.43408 10.0625 3.68514 10.0625 3.99483V4.5465C10.0625 4.85619 9.8107 5.10725 9.50004 5.10725C9.18938 5.10725 8.93754 4.85619 8.93754 4.5465V3.99483Z" fill="#333333"/>
</svg>
