<svg width="20" height="20" viewBox="0 0 20 20" fill="none" xmlns="http://www.w3.org/2000/svg">
<g opacity="0.5">
<path fill-rule="evenodd" clip-rule="evenodd" d="M3.33333 1C2.59695 1 2 1.59695 2 2.33333V17.6667C2 18.403 2.59695 19 3.33333 19H9.99951C8.38062 17.7837 7.3335 15.8475 7.3335 13.6667C7.3335 9.98477 10.3183 7 14.0002 7C15.5009 7 16.8858 7.49588 18 8.33272V2.33333C18 1.59695 17.403 1 16.6667 1H3.33333ZM13.9419 5.03707H4.58076C4.187 5.03707 3.8678 4.71787 3.8678 4.32411C3.8678 3.93035 4.187 3.61115 4.58076 3.61115H13.9419C14.3356 3.61115 14.6548 3.93035 14.6548 4.32411C14.6548 4.71787 14.3356 5.03707 13.9419 5.03707ZM7.88169 8.60189H4.58076C4.187 8.60189 3.8678 8.28269 3.8678 7.88893C3.8678 7.49517 4.187 7.17596 4.58076 7.17596H7.88169C8.27545 7.17596 8.59466 7.49517 8.59466 7.88893C8.59466 8.28269 8.27545 8.60189 7.88169 8.60189ZM19.3332 13.6667C19.3332 16.6122 16.9454 19 13.9998 19C11.0543 19 8.6665 16.6122 8.6665 13.6667C8.6665 10.7212 11.0543 8.33337 13.9998 8.33337C16.9454 8.33337 19.3332 10.7212 19.3332 13.6667ZM14.6233 15C13.9108 15 13.3333 14.4211 13.3333 13.7071V11.6465C13.3333 11.2894 13.622 11 13.9783 11C14.3345 11 14.6233 11.2894 14.6233 11.6465V13.7067L16.6882 13.7071C17.0445 13.7071 17.3333 13.9965 17.3333 14.3535C17.3333 14.7106 17.0445 15 16.6882 15H14.6233Z" fill="white"/>
</g>
</svg>
