<?xml version="1.0" encoding="UTF-8"?>
<svg width="17px" height="16px" viewBox="0 0 17 16" version="1.1" xmlns="http://www.w3.org/2000/svg" xmlns:xlink="http://www.w3.org/1999/xlink">
    <!-- Generator: Sketch 52.4 (67378) - http://www.bohemiancoding.com/sketch -->
    <title>noun_Wallet_972515-05 Copy</title>
    <desc>Created with Sketch.</desc>
    <g id="Page-1" stroke="none" stroke-width="1" fill="none" fill-rule="evenodd">
        <g id="noun_Wallet_972515-05-Copy">
            <path d="M1.99423077,2.79192308 L8.99038462,2.79192308 L8.5,2.01384615 C8.23304707,1.46313937 7.67352743,1.11471124 7.06153846,1.11807692 L1.99423077,1.11807692 C1.43505414,1.16972685 1.01336459,1.64878913 1.03307692,2.21 L1.03307692,3.145 C1.30714963,2.92699821 1.64421089,2.80317979 1.99423077,2.79192308 Z M9.84038462,2.79192308 L12.5276923,2.79192308 C13.4925214,2.86845116 14.2236677,3.69496442 14.1819231,4.66192308 L14.1819231,12.325 C14.2050258,12.7864145 14.0435986,13.2380616 13.7332565,13.5802966 C13.4229144,13.9225316 12.9891606,14.1272302 12.5276923,14.1492308 L1.99423077,14.1492308 C1.5333019,14.1272659 1.10017541,13.922347 0.79087052,13.5799023 C0.481565635,13.2374576 0.321636814,12.7857795 0.346538462,12.325 L0.346538462,2.21 C0.301155869,1.24416335 1.03036499,0.416568862 1.99423077,0.34 L7.06153846,0.34 C7.92060527,0.333703999 8.70778006,0.818705239 9.08846154,1.58884615 L9.84038462,2.79192308 Z M12.5276923,3.57 L1.99423077,3.57 C1.72177161,3.58679924 1.46722375,3.71142591 1.28686016,3.91632877 C1.10649656,4.12123163 1.01517247,4.38953431 1.03307692,4.66192308 L1.03307692,12.325 C1.01452374,12.8774929 1.44214727,13.3429334 1.99423077,13.3711538 L12.5015385,13.3711538 C13.053622,13.3429334 13.4812455,12.8774929 13.4626923,12.325 L13.4626923,4.66192308 C13.4805968,4.38953431 13.3892727,4.12123163 13.2089091,3.91632877 C13.0285455,3.71142591 12.7739976,3.58679924 12.5015385,3.57 L12.5276923,3.57 Z" id="Shape" fill="#FFFFFF" fill-rule="nonzero"></path>
            <circle id="Oval" fill="#FFFFFF" cx="13.4234615" cy="11.5730769" r="3.45884615"></circle>
            <path d="M13.7307692,12.2988462 L14.0838462,11.9784615 L14.1426923,11.9196154 C14.4434615,11.645 14.6788462,11.4161538 14.7965385,11.2657692 L15.2934615,11.7365385 C15.1430769,11.8934615 14.9011538,12.1288462 14.5873077,12.3903846 L14.5284615,12.4492308 L13.8746154,13.0246154 C13.7503846,13.1423077 13.6457692,13.2273077 13.5869231,13.2796154 L13.3646154,13.4823077 L13.1357692,13.2796154 L12.9069231,13.0769231 L12.2530769,12.5015385 L12.1876923,12.4426923 C11.8803846,12.155 11.6384615,11.9196154 11.4815385,11.7561538 L11.9784615,11.2853846 C12.1223077,11.4357692 12.3576923,11.6580769 12.6323077,11.9392308 L12.6911538,11.9980769 L13.0180769,12.2988462 L13.0180769,9.62461538 L13.6719231,9.62461538 L13.7307692,12.2988462 Z" id="Path" fill="#000000"></path>
        </g>
    </g>
</svg>