<?xml version="1.0" encoding="UTF-8"?>
<svg width="18px" height="16px" viewBox="0 0 18 16" version="1.1" xmlns="http://www.w3.org/2000/svg" xmlns:xlink="http://www.w3.org/1999/xlink">
    <!-- Generator: Sketch 52.4 (67378) - http://www.bohemiancoding.com/sketch -->
    <title>noun_Wallet_972515-06 Copy</title>
    <desc>Created with Sketch.</desc>
    <g id="Page-1" stroke="none" stroke-width="1" fill="none" fill-rule="evenodd">
        <g id="noun_Wallet_972515-06-Copy" transform="translate(1.000000, 1.000000)">
            <polyline id="Path" stroke="#FFFFFF" stroke-width="0.7" points="12.9676 14.1712 0.0748 14.1712 0.0748 0.204 10.8188 0.204"></polyline>
            <path d="M14.042,2.7812 L14.042,13.4504" id="Path" stroke="#FFFFFF" stroke-width="0.7"></path>
            <polygon id="Path" stroke="#FFFFFF" stroke-width="0.7" stroke-linecap="round" stroke-linejoin="round" points="10.8188 0.204 14.042 2.7812 10.8188 2.7812"></polygon>
            <path d="M2.074,3.2912 L8.3028,3.2912" id="Path" stroke="#FFFFFF" stroke-width="0.7"></path>
            <path d="M2.074,5.6508 L11.6416,5.6508" id="Path" stroke="#FFFFFF" stroke-width="0.7"></path>
            <circle id="Oval" fill="#FFFFFF" cx="12.8792" cy="10.8256" r="3.5972"></circle>
            <path d="M13.226,11.56 L13.5864,11.2336 L13.6476,11.1724 C13.9604,10.88 14.2052,10.6488 14.3276,10.4924 L14.8444,10.982 C14.6812,11.152 14.4296,11.39 14.11,11.696 L14.042,11.7504 C13.8312,11.9476 13.6136,12.1516 13.362,12.3488 L13.0628,12.6208 L12.8248,12.8248 L12.5868,12.614 L12.2876,12.3488 L11.6076,11.7504 L11.5464,11.6892 C11.22,11.39 10.9684,11.1452 10.812,11.0092 L11.3288,10.5196 C11.4716,10.6692 11.7164,10.9072 12.0088,11.1996 L12.07,11.254 L12.41,11.5668 L12.41,8.7652 L13.124,8.7652 L13.226,11.56 Z" id="Path" fill="#000000"></path>
        </g>
    </g>
</svg>