<?xml version="1.0" standalone="no"?><!DOCTYPE svg PUBLIC "-//W3C//DTD SVG 1.1//EN" "http://www.w3.org/Graphics/SVG/1.1/DTD/svg11.dtd"><svg t="1645449152990" class="icon" viewBox="0 0 1024 1024" version="1.1" xmlns="http://www.w3.org/2000/svg" p-id="12276" width="16" height="16" xmlns:xlink="http://www.w3.org/1999/xlink"><defs><style type="text/css"></style></defs><path d="M893.456828 709.055005" p-id="12277" fill="#ffffff"></path><path d="M491.889987 337.939709" p-id="12278" fill="#ffffff"></path><path d="M568.154951 338.993714" p-id="12279" fill="#ffffff"></path><path d="M953.576067 767.43974 587.612095 396.544455c35.753295-95.363951 15.47239-200.659089-55.477522-271.613094C483.524458 76.321246 419.484933 49.5403 350.739223 49.5403c-68.750827 0-133.084041 26.779923-181.694155 75.391061C120.428813 173.542498 93.803409 238.174518 93.803409 306.931484c0 68.74571 26.849508 133.378753 75.465762 181.988868 49.374524 49.384757 116.001991 75.93546 183.428659 75.924203 24.37106 0 48.836265-3.697205 72.655763-10.80816l110.324688 110.550839c3.227508 3.233648 7.235798 5.191232 11.417027 5.929036 1.566682 0.551562 3.195785 0.981351 4.92108 1.156336l52.467979 5.368264 5.406127 54.031591c0.988514 9.858532 8.613168 17.759479 18.434861 19.098987l55.110155 7.503904 4.117784 49.835012c0.408299 4.939499 2.517333 9.586332 5.969968 13.144368l109.777219 113.25953c1.425466 1.826602 3.082198 3.461845 5.019317 4.746094 3.852748 3.00852 8.458649 2.309602 13.113669 2.309602 2.12643 0 4.231371-3.330862 6.284123-3.330862l114.27465 0c17.638729 0 18.584264-6.043646 18.584264-23.844058L960.576505 800.865014C960.576505 794.387485 964.219475 778.167059 953.576067 767.43974zM917.597645 894.660236l-88.098477 0L729.638809 793.982256l-4.90266-58.161654c-0.826831-10.015098-8.507768-17.527189-18.46556-18.876929l-55.407937-7.251148-5.462408-54.480822c-1.01512-10.130731-9.021467-18.083867-19.151176-19.10922l-64.974827-6.600325L446.571848 514.572592c-6.060019-6.075369-14.842033-7.682983-22.413476-4.962012l-0.019443-0.048095c-77.515445 27.92091-165.615968 7.91425-224.487797-50.952462-40.515762-40.510646-62.833047-94.383624-62.833047-151.680585 0-57.307194 22.317285-111.170962 62.833047-151.691841s94.385671-62.832024 151.686724-62.832024c57.296961 0 111.165846 22.312168 151.686724 62.833047 58.774615 58.779731 76.608795 146.175197 47.124274 225.605248-1.157359 0.769526-2.26253 1.653663-3.285836 2.670829-8.398274 8.340969-8.445346 21.914102-0.104377 30.30726L921.909857 796.439214c0.25071 0.952698-4.312212 2.605338-4.312212 4.426823L917.597645 894.660236 917.597645 894.660236z" p-id="12280" fill="#ffffff"></path><path d="M301.221436 174.36933c-41.36306 0-75.014484 33.655518-75.014484 75.014484s33.650401 75.014484 75.014484 75.014484 75.014484-33.655518 75.014484-75.014484S342.584496 174.36933 301.221436 174.36933zM301.221436 281.532001c-17.727757 0-32.149211-14.421454-32.149211-32.149211s14.421454-32.149211 32.149211-32.149211 32.149211 14.421454 32.149211 32.149211C333.370647 267.110547 318.949192 281.532001 301.221436 281.532001z" p-id="12281" fill="#ffffff"></path></svg>