<svg width="16" height="16" viewBox="0 0 16 16" fill="none" xmlns="http://www.w3.org/2000/svg">
    <path
        d="M8 0C6.41775 0 4.87103 0.469192 3.55544 1.34824C2.23985 2.22729 1.21447 3.47672 0.608967 4.93853C0.00346628 6.40034 -0.15496 8.00887 0.153721 9.56072C0.462403 11.1126 1.22433 12.538 2.34315 13.6569C3.46197 14.7757 4.88743 15.5376 6.43928 15.8463C7.99113 16.155 9.59966 15.9965 11.0615 15.391C12.5233 14.7855 13.7727 13.7602 14.6518 12.4446C15.5308 11.129 16 9.58225 16 8C15.9978 5.87895 15.1542 3.84542 13.6544 2.34562C12.1546 0.845814 10.121 0.00223986 8 0ZM14.7408 7.38461H11.6769C11.5685 5.19538 10.8869 3.11769 9.74462 1.46154C11.0825 1.82072 12.2783 2.5808 13.1715 3.63965C14.0646 4.69849 14.6122 6.00536 14.7408 7.38461ZM8 14.7608C6.55923 13.2015 5.68539 10.9915 5.55616 8.61538H10.4438C10.3146 10.99 9.44077 13.2015 8 14.7608ZM5.55616 7.38461C5.68539 5.01 6.55616 2.79846 8 1.23923C9.44077 2.79846 10.3146 5.00846 10.4438 7.38461H5.55616ZM6.25539 1.46154C5.11308 3.11769 4.43154 5.19538 4.32308 7.38461H1.25923C1.38776 6.00536 1.93539 4.69849 2.82854 3.63965C3.72168 2.5808 4.91753 1.82072 6.25539 1.46154ZM1.25923 8.61538H4.32308C4.43154 10.8046 5.11308 12.8823 6.25539 14.5385C4.91753 14.1793 3.72168 13.4192 2.82854 12.3603C1.93539 11.3015 1.38776 9.99464 1.25923 8.61538ZM9.74462 14.5385C10.8869 12.88 11.5685 10.8023 11.6769 8.61538H14.7408C14.6122 9.99464 14.0646 11.3015 13.1715 12.3603C12.2783 13.4192 11.0825 14.1793 9.74462 14.5385Z"
        fill="#8DA394" />
</svg>