<svg width="32" height="32" viewBox="0 0 32 32" fill="none" xmlns="http://www.w3.org/2000/svg">
  <path d="M26.1253 5.94583C25.4336 6.63533 24.3335 6.69803 23.5676 6.0916C23.3746 5.93672 23.1754 5.78965 22.9705 5.65075C17.2342 1.83938 9.48608 3.38738 5.66447 9.1083C3.35935 12.5591 2.92857 16.9281 4.51558 20.7606H4.51558C7.15264 27.1097 14.4512 30.1246 20.8173 27.4946C24.9211 25.7993 27.8116 22.0558 28.4068 17.6657C28.528 16.7143 29.3398 16.0014 30.3015 16.0018H30.4405C31.3018 16.0019 32 16.6983 32 17.5573C32 17.6125 31.997 17.6677 31.9912 17.7226C31.0373 26.507 23.1237 32.857 14.3157 31.9056C5.50772 30.9543 -0.859309 23.0619 0.0946189 14.2774C1.04852 5.49299 8.96208 -0.857012 17.7701 0.0943659C20.6246 0.402686 23.3439 1.46946 25.6441 3.18337C25.751 3.26336 25.8704 3.35757 26.0041 3.46779C26.7206 4.0549 26.8242 5.1101 26.2355 5.82466C26.2008 5.8668 26.164 5.90723 26.1253 5.9458L26.1253 5.94583Z" fill="#00C891"/>
</svg>
