<svg width="16" height="16" viewBox="0 0 16 16" fill="none" xmlns="http://www.w3.org/2000/svg">
<g clip-path="url(#clip0_22441_10085)">
<path d="M13 5.5H11.25V4.25C11.25 3.38805 10.9076 2.5614 10.2981 1.9519C9.6886 1.34241 8.86195 1 8 1C7.13805 1 6.3114 1.34241 5.7019 1.9519C5.09241 2.5614 4.75 3.38805 4.75 4.25V5.5H3C2.66848 5.5 2.35054 5.6317 2.11612 5.86612C1.8817 6.10054 1.75 6.41848 1.75 6.75V13.75C1.75 14.0815 1.8817 14.3995 2.11612 14.6339C2.35054 14.8683 2.66848 15 3 15H13C13.3315 15 13.6495 14.8683 13.8839 14.6339C14.1183 14.3995 14.25 14.0815 14.25 13.75V6.75C14.25 6.41848 14.1183 6.10054 13.8839 5.86612C13.6495 5.6317 13.3315 5.5 13 5.5ZM6.25 4.25C6.25 3.78587 6.43437 3.34075 6.76256 3.01256C7.09075 2.68437 7.53587 2.5 8 2.5C8.46413 2.5 8.90925 2.68437 9.23744 3.01256C9.56563 3.34075 9.75 3.78587 9.75 4.25V5.5H6.25V4.25ZM12.75 13.5H3.25V7H12.75V13.5ZM9 10.25C9 10.4478 8.94135 10.6411 8.83147 10.8056C8.72159 10.97 8.56541 11.0982 8.38268 11.1739C8.19996 11.2496 7.99889 11.2694 7.80491 11.2308C7.61093 11.1922 7.43275 11.097 7.29289 10.9571C7.15304 10.8173 7.0578 10.6391 7.01921 10.4451C6.98063 10.2511 7.00043 10.05 7.07612 9.86732C7.15181 9.68459 7.27998 9.52841 7.44443 9.41853C7.60888 9.30865 7.80222 9.25 8 9.25C8.26522 9.25 8.51957 9.35536 8.70711 9.54289C8.89464 9.73043 9 9.98478 9 10.25Z" fill="#8DA394"/>
</g>
<defs>
<clipPath id="clip0_22441_10085">
<rect width="16" height="16" fill="white"/>
</clipPath>
</defs>
</svg>
