<svg width="16" height="16" viewBox="0 0 16 16" fill="none" xmlns="http://www.w3.org/2000/svg">
<path d="M13.318 5.86952H12.2527V4.80421C12.2527 2.4508 10.3449 0.542969 7.99146 0.542969C5.63804 0.542969 3.73023 2.45081 3.73023 4.80421V5.86952H2.66485C2.07653 5.86952 1.59961 6.34645 1.59961 6.93477V14.392C1.59961 14.9803 2.07653 15.4572 2.66485 15.4572H13.318C13.9063 15.4572 14.3832 14.9803 14.3832 14.392V6.93477C14.3832 6.34646 13.9063 5.86952 13.318 5.86952ZM4.79554 4.80421C4.79554 3.03914 6.22641 1.60828 7.99147 1.60828C9.75654 1.60828 11.1874 3.03915 11.1874 4.80421V5.86952H4.79554V4.80421ZM13.318 13.8637C13.318 14.1555 13.0815 14.392 12.7897 14.392H3.19329C2.90148 14.392 2.66493 14.1555 2.66493 13.8637V7.4632C2.66493 7.17139 2.90148 6.93484 3.19329 6.93484H12.7897C13.0815 6.93484 13.318 7.17139 13.318 7.4632V13.8637ZM7.99147 8.00014C6.81476 8.00014 5.86086 8.95406 5.86086 10.1308C5.86086 11.1235 6.53985 11.9577 7.45879 12.1943V12.7983C7.45879 13.0901 7.69534 13.3267 7.98715 13.3267H7.99574C8.28755 13.3267 8.5241 13.0901 8.5241 12.7983V12.1943C9.44307 11.9577 10.1221 11.1236 10.1221 10.1308C10.1221 8.95405 9.16817 8.00014 7.99147 8.00014ZM7.99147 11.1961C7.40312 11.1961 6.92616 10.7191 6.92616 10.1308C6.92616 9.54241 7.40312 9.06545 7.99147 9.06545C8.57983 9.06545 9.05678 9.54241 9.05678 10.1308C9.05678 10.7191 8.57983 11.1961 7.99147 11.1961Z" fill="#333333"/>
</svg>
