<svg width="14" height="14" viewBox="0 0 14 14" fill="none" xmlns="http://www.w3.org/2000/svg">
<g clip-path="url(#clip0_52537_113424)">
<path d="M8.68564 6.99957H9.14905C9.35847 6.99957 9.52821 7.16931 9.52821 7.37873V9.78012C9.52821 9.98955 9.35847 10.1593 9.14905 10.1593H4.85182C4.64242 10.1593 4.47266 9.98955 4.47266 9.78012V7.37873C4.47266 7.16931 4.64242 6.99957 4.85182 6.99957H5.31525M8.68564 6.99957V5.4197C8.68564 4.89309 8.34856 3.83984 7.00043 3.83984C5.65229 3.83984 5.31525 4.89309 5.31525 5.4197V6.99957M8.68564 6.99957H5.31525" stroke="#00C891" stroke-width="1.3125" stroke-linecap="round" stroke-linejoin="round"/>
<path d="M1.16797 11.5357V2.46394C1.16797 1.74819 1.74819 1.16797 2.46394 1.16797H11.5357C12.2515 1.16797 12.8317 1.74819 12.8317 2.46394V11.5357C12.8317 12.2515 12.2515 12.8317 11.5357 12.8317H2.46394C1.74819 12.8317 1.16797 12.2515 1.16797 11.5357Z" stroke="#00C891" stroke-width="1.34582"/>
</g>
<defs>
<clipPath id="clip0_52537_113424">
<rect width="14" height="14" fill="white"/>
</clipPath>
</defs>
</svg>
