<svg width="30px" height="30px" viewBox="0 0 60 60" version="1.1" xmlns="http://www.w3.org/2000/svg" xmlns:xlink="http://www.w3.org/1999/xlink">
    <g stroke="none" stroke-width="1" fill="none" fill-rule="evenodd">
        <g id="token/logo/ckb">
            <path d="M6,0 L54,0 C57.3137085,0 60,2.6862915 60,6 L60,54 C60,57.3137085 57.3137085,60 54,60 L6,60 C2.6862915,60 0,57.3137085 0,54 L0,6 C0,2.6862915 2.6862915,0 6,0 Z" id="Rectangle" fill="#EAEAEA"></path>
            <g id="ckb" transform="translate(7.000000, 10.000000)" fill-rule="nonzero">
                <polygon fill="#424242" points="0 0 0 7.76137894 0 15.5226648 0 23.2839506 7.95061728 23.2839506 7.95061728 15.5226648 7.95061728 7.76137894 7.95061728 0"></polygon>
                <polygon fill="#424242" points="38.0493827 15.3333333 38.0493827 23.0947123 38.0493827 30.8559981 38.0493827 38.617284 46 38.617284 46 15.3333333"></polygon>
                <polygon fill="#424242" points="22.7160494 0 22.7160494 7.71813541 22.7160494 15.0327233 30.6666667 22.7160494 30.6666667 15.4361782 30.6666667 7.71813541"></polygon>
                <polygon fill="#424242" points="15.3333333 23.1795957 15.3333333 30.8983936 23.2839506 38.617284 23.2839506 30.8983936 23.2839506 23.5845715 15.3333333 15.9012346"></polygon>
                <polygon fill="#000000" points="22.7160494 0 38.2388073 15.3333333 46 15.3333333 30.4774283 0"></polygon>
                <polygon fill="#000000" points="0 23.2839506 15.5226648 38.617284 23.2839506 38.617284 7.76137894 23.2839506"></polygon>
                <polygon fill="#3CC68A" points="7.66666667 2.72374715e-14 7.66666667 7.72351238 7.66666667 8.19969481 7.66666667 15.4469321 7.66666667 23.1703518 15.4175426 30.8937716 15.4175426 23.1703518 15.4175426 15.8876325 38.3333333 38.617284 38.3333333 30.8937716 38.3333333 30.420739 38.3333333 23.1703518 38.3333333 15.4469321 30.5823645 7.72351238 30.5823645 15.4469321 30.5823645 22.7318749"></polygon>
            </g>
        </g>
    </g>
</svg>
