<svg width="20" height="20" viewBox="0 0 20 20" fill="none" xmlns="http://www.w3.org/2000/svg">
<path opacity="0.5" fill-rule="evenodd" clip-rule="evenodd" d="M10 19C14.9706 19 19 14.9706 19 10C19 5.02944 14.9706 1 10 1C5.02944 1 1 5.02944 1 10C1 14.9706 5.02944 19 10 19ZM6.39768 16.3566C6.62891 16.4897 6.89533 16.5571 7.18959 16.5571C7.9829 16.5571 8.97908 16.0594 10 15.1543C11.02 16.059 12.0157 16.5566 12.8089 16.5566C13.1028 16.5566 13.3689 16.4892 13.5999 16.3564C14.4667 15.8581 14.7422 14.5061 14.3589 12.6412C16.1655 12.0424 17.2 11.1288 17.2 10.1294C17.2 9.1308 16.1656 8.21602 14.3589 7.61416C14.74 5.75011 14.4646 4.39879 13.5999 3.90128C13.3685 3.7681 13.102 3.70066 12.8078 3.70066C12.016 3.70066 11.0208 4.19765 10.0001 5.10162C8.97967 4.19721 7.98386 3.7 7.19092 3.7C6.89666 3.7 6.63053 3.76758 6.39997 3.90084C5.53567 4.40048 5.26026 5.75253 5.64112 7.616C3.83433 8.21557 2.8 9.12925 2.8 10.1282C2.8 11.1265 3.83455 12.0405 5.64105 12.6414C5.25747 14.5064 5.53206 15.8586 6.39768 16.3566ZM12.8418 15.6888C12.3083 15.6888 11.4878 15.2591 10.6367 14.5364C11.0426 14.112 11.4203 13.6615 11.7672 13.1878C12.3517 13.124 12.9314 13.0227 13.5029 12.8844C13.7565 14.2542 13.6373 15.3073 13.1958 15.5976L13.17 15.6124C13.0822 15.663 12.9718 15.6888 12.8418 15.6888ZM7.15629 15.6882C7.02713 15.6882 6.91734 15.6627 6.82993 15.6123C6.36822 15.3474 6.23839 14.2816 6.49487 12.8862C7.06724 13.0226 7.64769 13.1225 8.23274 13.1854C8.57811 13.6584 8.95342 14.1088 9.35639 14.5339C8.50719 15.2578 7.68841 15.6882 7.15629 15.6882ZM9.9977 13.9374C9.78617 13.7226 9.58274 13.5 9.38783 13.2701C9.62332 13.2807 9.81685 13.2856 9.99999 13.2856C10.1973 13.2856 10.3984 13.2816 10.6103 13.2737C10.4147 13.5026 10.2103 13.724 9.9977 13.9374ZM10.0004 12.4511C9.56456 12.449 9.12354 12.425 8.68907 12.38C8.43855 12.0277 8.20445 11.664 7.98752 11.2901C7.77633 10.9259 7.58126 10.5479 7.39171 10.1354C7.57044 9.73677 7.76849 9.34708 7.98516 8.9677C8.2035 8.59055 8.43988 8.22411 8.69349 7.86965C9.12531 7.82744 9.56449 7.80597 9.99955 7.80597C10.4376 7.80822 10.8753 7.83188 11.3111 7.87686C11.5592 8.22365 11.7907 8.582 12.0048 8.9507L12.0147 8.96784C12.2305 9.34198 12.4286 9.72607 12.6082 10.1188C12.4297 10.5192 12.2308 10.9101 12.0123 11.2902C11.7948 11.667 11.5592 12.033 11.3064 12.3871C10.8747 12.4296 10.4353 12.4511 10.0004 12.4511ZM12.4206 12.2292C12.481 12.1336 12.5404 12.0374 12.5988 11.9405V11.9454L12.7361 11.7084C12.8387 11.5306 12.9372 11.3504 13.0314 11.168C13.1331 11.4523 13.224 11.7403 13.3041 12.0315C13.0121 12.1083 12.7174 12.1742 12.4206 12.2292ZM7.5753 12.2237C7.24024 12.163 6.95055 12.1004 6.69583 12.0337C6.76395 11.7849 6.85256 11.5083 6.96979 11.1779C7.06526 11.3556 7.16323 11.5321 7.26366 11.7071C7.36396 11.8814 7.46786 12.0537 7.5753 12.2237ZM3.65994 10.1295C3.65994 9.59888 4.52011 8.95606 5.85819 8.48251C6.02412 9.04377 6.22619 9.59373 6.46313 10.129C6.2253 10.6657 6.02244 11.2172 5.85583 11.7801C4.51916 11.3053 3.65994 10.6611 3.65994 10.1295ZM14.144 11.7755C13.9763 11.2135 13.7735 10.6625 13.5368 10.1259C13.773 9.58968 13.9751 9.03911 14.1418 8.47746C15.4598 8.94532 16.34 9.60484 16.34 10.1293C16.34 10.6583 15.4808 11.3008 14.144 11.7755ZM6.96858 9.08579C6.86707 8.80228 6.77614 8.5151 6.69597 8.22484C6.98723 8.14789 7.28131 8.08202 7.57757 8.02739C7.46947 8.19979 7.36412 8.37391 7.26159 8.54968C7.1543 8.73338 7.05614 8.91724 6.96858 9.08579ZM12.7386 8.55107C12.6409 8.38002 12.5406 8.21572 12.4267 8.03445C12.7675 8.09622 13.051 8.15737 13.3039 8.22356C13.2359 8.47102 13.1474 8.74673 13.03 9.07664C12.9354 8.90007 12.8383 8.72486 12.7386 8.55107ZM6.49723 7.37375C6.2409 5.97845 6.36969 4.91218 6.83001 4.64648L6.84723 4.6361C6.93258 4.59168 7.03751 4.56911 7.15939 4.56911C7.69305 4.56911 8.5125 4.99903 9.36103 5.72216C8.95568 6.14708 8.57804 6.59754 8.23045 7.07076C7.64682 7.13462 7.06789 7.23583 6.49723 7.37375ZM13.5028 7.37023C12.932 7.23411 12.3531 7.13424 11.7697 7.07121C11.4241 6.59776 11.048 6.1473 10.6438 5.72269C11.4926 5.00007 12.3112 4.57052 12.8432 4.57052C12.9725 4.57052 13.0825 4.59604 13.17 4.64649L13.1894 4.65752C13.6338 4.94124 13.7555 5.99604 13.5028 7.37023ZM10.6136 6.9859C10.4233 6.97737 10.215 6.97031 10.0088 6.97031L9.99987 6.9703C9.80156 6.97052 9.59699 6.97457 9.38963 6.98244C9.58513 6.75359 9.78933 6.5323 10.0018 6.31903C10.2135 6.5341 10.4175 6.75653 10.6136 6.9859ZM9.45125 10.1295C9.45125 10.4316 9.69742 10.6775 10 10.6775C10.3025 10.6775 10.5487 10.4316 10.5487 10.1295C10.5487 9.82732 10.3025 9.58147 10 9.58147C9.69743 9.58147 9.45125 9.82732 9.45125 10.1295Z" fill="white"/>
</svg>
