<?xml version="1.0" encoding="UTF-8"?>
<svg width="30px" height="30px" viewBox="0 0 60 60" version="1.1" xmlns="http://www.w3.org/2000/svg" xmlns:xlink="http://www.w3.org/1999/xlink">
    <title>logo/token/ckb</title>
    <g id="logo/token/ckb" stroke="none" stroke-width="1" fill="none" fill-rule="evenodd">
        <g id="Group">
            <path d="M6,0 L54,0 C57.3137085,0 60,2.6862915 60,6 L60,54 C60,57.3137085 57.3137085,60 54,60 L6,60 C2.6862915,60 0,57.3137085 0,54 L0,6 C0,2.6862915 2.6862915,0 6,0 Z" id="Rectangle" fill="#EAEAEA"></path>
            <g transform="translate(10.000000, 10.000000)" fill="#000000" fill-rule="nonzero" id="logo/Nervos_dark">
                <g id="logoMark" transform="translate(0.000000, 0.156250)">
                    <polygon id="logoMark_PathItem_" points="0.0509615385 0 0.0509615385 39.6765385 10.2723077 39.6765385 10.2723077 18.0571154 18.1078846 18.0571154"></polygon>
                    <polygon id="logoMark_PathItem_2" points="29.7673077 0 29.7673077 21.6196154 21.9319231 21.6196154 39.9886538 39.6765385 39.9886538 0"></polygon>
                </g>
            </g>
        </g>
    </g>
</svg>
