<svg width="12" height="13" viewBox="0 0 12 13" fill="none" xmlns="http://www.w3.org/2000/svg">
<path d="M4.24999 1.52637C4.38807 1.52637 4.49999 1.6383 4.49999 1.77637V2.27638C4.49999 2.41445 4.38806 2.52638 4.24999 2.52638H3.49999C2.54824 2.52638 2.02424 3.02888 2.00074 3.96062L1.99999 4.02637V9.27637C1.99999 10.1489 2.41774 10.5101 3.43 10.5259L3.5 10.5264H8.5C9.59875 10.5264 9.98425 10.1271 9.9995 9.09187L10 9.02637V8.14487C10 8.0068 10.1119 7.89487 10.25 7.89487H10.75C10.8881 7.89487 11 8.0068 11 8.14487V9.02637C11 10.6156 10.223 11.4966 8.584 11.5256L8.5 11.5264H3.5C1.95125 11.5264 1.03199 10.7964 1.00075 9.35287L1 9.27637V4.02636C1 2.52612 1.94125 1.55961 3.42301 1.52712L3.50001 1.52637H4.25001H4.24999ZM10.5 1.52638C10.7616 1.52629 10.9791 1.72796 10.9987 1.98888L11 2.02638V5.27637C11 5.41444 10.8881 5.52637 10.75 5.52637C10.75 5.52637 10.75 5.52637 10.75 5.52637H10.25C10.1119 5.52637 9.99999 5.41444 9.99999 5.27637V3.23337L6.98025 6.25338C6.88262 6.35097 6.72437 6.35097 6.62675 6.25338L6.27325 5.89963C6.17565 5.802 6.17565 5.64375 6.27325 5.54613L9.2925 2.52638H7.25C7.11193 2.52638 7 2.41445 7 2.27638V2.27638V1.77638V1.77638C7 1.63831 7.11193 1.52638 7.25 1.52638H10.5H10.5Z" fill="#00C891"/>
</svg>
