<svg width="12" height="12" viewBox="0 0 12 12" fill="none" xmlns="http://www.w3.org/2000/svg">
<path d="M4.24999 1C4.38807 1 4.49999 1.11194 4.49999 1.25001V1.75001C4.49999 1.88808 4.38806 2.00001 4.24999 2.00001H3.49999C2.54824 2.00001 2.02424 2.50251 2.00074 3.43425L1.99999 3.50001V8.75001C1.99999 9.62251 2.41774 9.98376 3.43 9.99951L3.5 10H8.5C9.59875 10 9.98425 9.60076 9.9995 8.5655L10 8.5V7.6185C10 7.48043 10.1119 7.3685 10.25 7.3685H10.75C10.8881 7.3685 11 7.48043 11 7.6185V8.5C11 10.0893 10.223 10.9703 8.584 10.9993L8.5 11H3.5C1.95125 11 1.03199 10.27 1.00075 8.8265L1 8.75V3.5C1 1.99975 1.94125 1.03325 3.42301 1.00075L3.50001 1H4.25001H4.24999ZM10.5 1.00001C10.7616 0.999925 10.9791 1.20159 10.9987 1.46251L11 1.50001V4.75001C11 4.88808 10.8881 5.00001 10.75 5.00001C10.75 5.00001 10.75 5.00001 10.75 5.00001H10.25C10.1119 5.00001 9.99999 4.88808 9.99999 4.75001V2.70701L6.98025 5.72701C6.88262 5.82461 6.72437 5.82461 6.62675 5.72701L6.27325 5.37326C6.17565 5.27563 6.17565 5.11738 6.27325 5.01976L9.2925 2.00001H7.25C7.11193 2.00001 7 1.88808 7 1.75001V1.75001V1.25001V1.25001C7 1.11194 7.11193 1.00001 7.25 1.00001H10.5H10.5Z" fill="#00C891"/>
</svg>
