<svg width="16" height="16" viewBox="0 0 16 16" fill="none" xmlns="http://www.w3.org/2000/svg">
<g clip-path="url(#clip0_25599_24575)">
<path fill-rule="evenodd" clip-rule="evenodd" d="M2.20463 13.7959V2.20561H13.7949V13.7959H2.20463ZM2.1839 1.00098C1.53005 1.00098 1 1.53103 1 2.18488V13.8166C1 14.4704 1.53005 15.0005 2.1839 15.0005H13.8156C14.4695 15.0005 14.9995 14.4704 14.9995 13.8166V2.18488C14.9995 1.53103 14.4695 1.00098 13.8156 1.00098H2.1839ZM5.6 5C5.26863 5 5 5.26863 5 5.6V10.4C5 10.7314 5.26863 11 5.6 11C5.93137 11 6.2 10.7314 6.2 10.4V5.6C6.2 5.26863 5.93137 5 5.6 5ZM7.4 4.6C7.4 4.26863 7.66863 4 8 4C8.33137 4 8.6 4.26863 8.6 4.6V11.4C8.6 11.7314 8.33137 12 8 12C7.66863 12 7.4 11.7314 7.4 11.4V4.6ZM10.4 5C10.0686 5 9.8 5.26863 9.8 5.6V10.4C9.8 10.7314 10.0686 11 10.4 11C10.7314 11 11 10.7314 11 10.4V5.6C11 5.26863 10.7314 5 10.4 5Z" fill="#00C891"/>
</g>
<defs>
<clipPath id="clip0_25599_24575">
<rect width="16" height="16" fill="white"/>
</clipPath>
</defs>
</svg>
