<?xml version="1.0" standalone="no"?><!DOCTYPE svg PUBLIC "-//W3C//DTD SVG 1.1//EN" "http://www.w3.org/Graphics/SVG/1.1/DTD/svg11.dtd"><svg t="1656895607585" class="icon" viewBox="0 0 1024 1024" version="1.1" xmlns="http://www.w3.org/2000/svg" p-id="2007" width="16" height="16" xmlns:xlink="http://www.w3.org/1999/xlink"><defs><style type="text/css">@font-face { font-family: feedback-iconfont; src: url("//at.alicdn.com/t/font_1031158_u69w8yhxdu.woff2?t=1630033759944") format("woff2"), url("//at.alicdn.com/t/font_1031158_u69w8yhxdu.woff?t=1630033759944") format("woff"), url("//at.alicdn.com/t/font_1031158_u69w8yhxdu.ttf?t=1630033759944") format("truetype"); }
</style></defs><path d="M927.68 384a32.16 32.16 0 0 1 32.064 35.968l-52.992 419.968A64.416 64.416 0 0 1 842.624 896H181.376a64.416 64.416 0 0 1-64.128-56.064L64.256 419.968a32.064 32.064 0 0 1 28.032-35.712l2.016-0.192L927.68 384z m-36.576 64H132.896l48.48 384h661.248l48.48-384zM342.944 128c24.512 0 46.88 13.728 57.824 35.424L447.36 256h387.68a64.32 64.32 0 0 1 64.608 64v64h-64.64v-64H407.456l-64.48-128H188.928v192H124.32V192c0-35.36 28.928-64 64.64-64h153.984z" p-id="2008" fill="#666666"></path></svg>