<svg width="20" height="20" viewBox="0 0 20 20" fill="none" xmlns="http://www.w3.org/2000/svg">
<g opacity="0.5">
<path d="M7.33333 2H3.33333C2.59695 2 2 2.59695 2 3.33333V7.33333C2 8.06971 2.59695 8.66667 3.33333 8.66667H7.33333C8.06971 8.66667 8.66667 8.06971 8.66667 7.33333V3.33333C8.66667 2.59695 8.06971 2 7.33333 2Z" fill="white" stroke="white" stroke-width="1.33333"/>
<path d="M7.33333 11.333H3.33333C2.59695 11.333 2 11.93 2 12.6663V16.6663C2 17.4027 2.59695 17.9997 3.33333 17.9997H7.33333C8.06971 17.9997 8.66667 17.4027 8.66667 16.6663V12.6663C8.66667 11.93 8.06971 11.333 7.33333 11.333Z" fill="white" stroke="white" stroke-width="1.33333"/>
<path d="M16.6663 2H12.6663C11.93 2 11.333 2.59695 11.333 3.33333V7.33333C11.333 8.06971 11.93 8.66667 12.6663 8.66667H16.6663C17.4027 8.66667 17.9997 8.06971 17.9997 7.33333V3.33333C17.9997 2.59695 17.4027 2 16.6663 2Z" fill="white" stroke="white" stroke-width="1.33333"/>
<path d="M16.6663 11.333H12.6663C11.93 11.333 11.333 11.93 11.333 12.6663V16.6663C11.333 17.4027 11.93 17.9997 12.6663 17.9997H16.6663C17.4027 17.9997 17.9997 17.4027 17.9997 16.6663V12.6663C17.9997 11.93 17.4027 11.333 16.6663 11.333Z" fill="white" stroke="white" stroke-width="1.33333"/>
</g>
</svg>
