<svg width="64" height="64" viewBox="0 0 64 64" fill="none" xmlns="http://www.w3.org/2000/svg">
<path fill-rule="evenodd" clip-rule="evenodd" d="M8.22133 12.3967L22.0728 4.91415C23.2316 4.28815 24.5187 3.9613 25.8251 3.9613C30.3138 3.9613 33.9526 7.73796 33.9526 12.3967H8.22133ZM55.7262 16.5053C56.8194 16.5053 57.8091 16.9652 58.5254 17.7087C59.2418 18.4522 59.6849 19.4794 59.6849 20.6139V32.1523H59.6847H52.011C50.0241 32.1523 48.2388 32.9951 46.964 34.3241C45.6906 35.6516 44.9143 37.4738 44.9143 39.4666C44.9143 41.4593 45.6906 43.2816 46.964 44.6091C48.2388 45.9381 50.0241 46.7809 52.011 46.7809H59.6847H59.6849V53.5621C59.6849 54.6967 59.2418 55.7238 58.5254 56.4673C57.8091 57.2109 56.8194 57.6707 55.7262 57.6707H8.22233C7.12918 57.6707 6.13951 57.2109 5.42314 56.4673C4.70676 55.7238 4.26367 54.6967 4.26367 53.5621V20.6139C4.26367 19.4794 4.70676 18.4522 5.42314 17.7087C6.13951 16.9652 7.12918 16.5053 8.22233 16.5053H55.7262ZM52.011 36.1142C51.1725 36.1142 50.4 36.4653 49.8232 37.0666C49.245 37.6694 48.8762 38.5138 48.8762 39.4666C48.8762 40.4194 49.245 41.2638 49.8232 41.8665C50.4 42.4678 51.1725 42.819 52.011 42.819H57.7038V36.1142H52.011Z" fill="#DCF9E4"/>
<path fill-rule="evenodd" clip-rule="evenodd" d="M27.8713 46.4889C28.5165 46.4889 29.1278 46.2001 29.5375 45.7017L29.88 45.2851L34.371 40.6243C35.1232 39.8437 35.1232 38.6079 34.371 37.8272C33.5782 37.0043 32.2606 37.0043 31.4678 37.8273L29.88 39.4754V29.9793C29.88 28.8862 28.9939 28 27.9007 28C26.8076 28 25.9214 28.8862 25.9214 29.9793V39.5802L24.234 37.8279C23.4414 37.0047 22.1236 37.0045 21.3307 37.8274C20.5786 38.608 20.5786 39.8436 21.3306 40.6242L25.9214 45.3898L26.2685 45.7753C26.6775 46.2295 27.2601 46.4889 27.8713 46.4889Z" fill="#00C891"/>
</svg>
