<svg width="64" height="64" viewBox="0 0 64 64" fill="none" xmlns="http://www.w3.org/2000/svg">
<path fill-rule="evenodd" clip-rule="evenodd" d="M8.22133 12.3967L22.0728 4.91415C23.2316 4.28815 24.5187 3.9613 25.8251 3.9613C30.3138 3.9613 33.9526 7.73796 33.9526 12.3967H8.22133ZM55.7262 16.5053C56.8194 16.5053 57.8091 16.9652 58.5254 17.7087C59.2418 18.4522 59.6849 19.4794 59.6849 20.6139V32.1523H59.6847H52.011C50.0241 32.1523 48.2388 32.9951 46.964 34.3241C45.6906 35.6516 44.9143 37.4738 44.9143 39.4666C44.9143 41.4593 45.6906 43.2816 46.964 44.6091C48.2388 45.9381 50.0241 46.7809 52.011 46.7809H59.6847H59.6849V53.5621C59.6849 54.6967 59.2418 55.7238 58.5254 56.4673C57.8091 57.2109 56.8194 57.6707 55.7262 57.6707H8.22233C7.12918 57.6707 6.13951 57.2109 5.42314 56.4673C4.70676 55.7238 4.26367 54.6967 4.26367 53.5621V20.6139C4.26367 19.4794 4.70676 18.4522 5.42314 17.7087C6.13951 16.9652 7.12918 16.5053 8.22233 16.5053H55.7262ZM52.011 36.1142C51.1726 36.1142 50.4 36.4653 49.8232 37.0666C49.245 37.6694 48.8762 38.5138 48.8762 39.4666C48.8762 40.4194 49.245 41.2638 49.8232 41.8665C50.4 42.4678 51.1726 42.819 52.011 42.819H57.7038V36.1142H52.011Z" fill="#DCF9E4"/>
<path fill-rule="evenodd" clip-rule="evenodd" d="M23.8342 28C23.1891 28 22.5778 28.2888 22.168 28.7872L21.8255 29.2038L17.3346 33.8646C16.5824 34.6452 16.5824 35.881 17.3345 36.6617C18.1274 37.4846 19.445 37.4845 20.2377 36.6616L21.8255 35.0134L21.8255 44.5096C21.8255 45.6027 22.7117 46.4889 23.8048 46.4889C24.898 46.4889 25.7842 45.6027 25.7842 44.5096L25.7842 34.9087L27.4715 36.661C28.2642 37.4842 29.582 37.4844 30.3749 36.6615C31.1269 35.8809 31.127 34.6453 30.375 33.8647L25.7842 29.0991L25.4371 28.7136C25.0281 28.2594 24.4455 28 23.8342 28Z" fill="#00C891"/>
</svg>
