<svg width="16" height="17" viewBox="0 0 16 17" fill="none" xmlns="http://www.w3.org/2000/svg">
<path d="M2.66699 15.166C2.66699 12.2205 5.05481 9.83268 8.00033 9.83268C10.9459 9.83268 13.3337 12.2205 13.3337 15.166H2.66699ZM8.66699 11.2213V13.8327H11.7727C11.2952 12.4817 10.1126 11.4638 8.66699 11.2213ZM7.33366 13.8327V11.2213C5.88809 11.4638 4.70543 12.4817 4.22793 13.8327H7.33366ZM8.00033 9.16602C5.79033 9.16602 4.00033 7.37602 4.00033 5.16602C4.00033 2.95602 5.79033 1.16602 8.00033 1.16602C10.2103 1.16602 12.0003 2.95602 12.0003 5.16602C12.0003 7.37602 10.2103 9.16602 8.00033 9.16602ZM8.00033 7.83268C9.47393 7.83268 10.667 6.63964 10.667 5.16602C10.667 3.6924 9.47393 2.49935 8.00033 2.49935C6.52671 2.49935 5.33366 3.6924 5.33366 5.16602C5.33366 6.63964 6.52671 7.83268 8.00033 7.83268Z" fill="#333333"/>
</svg>
