<svg width="16" height="11" viewBox="0 0 16 11" fill="none" xmlns="http://www.w3.org/2000/svg">
  <path fill-rule="evenodd" clip-rule="evenodd" d="M8.40005 10.8C3.92253 10.8 0.800049 6.85407 0.800049 5.60002C0.800049 4.34599 3.92253 0.400024 8.40005 0.400024C12.8776 0.400024 16 4.34598 16 5.60002C16 6.85406 12.8776 10.8 8.40005 10.8ZM12.0002 5.60002C12.0002 3.61191 10.3883 2.00002 8.40024 2.00002C6.41178 2.00002 4.80024 3.6119 4.80024 5.60002C4.80024 7.58813 6.41218 9.20002 8.40024 9.20002C10.3887 9.19963 12.0002 7.58814 12.0002 5.60002ZM8.40063 7.60002C9.50524 7.60002 10.4006 6.70456 10.4006 5.60002C10.4006 4.49549 9.50524 3.60002 8.40063 3.60002C7.29603 3.60002 6.40063 4.49549 6.40063 5.60002C6.40063 6.70456 7.29603 7.60002 8.40063 7.60002Z" fill="#666666"/>
</svg>
