<svg width="16" height="16" viewBox="0 0 16 16" fill="none" xmlns="http://www.w3.org/2000/svg">
<path fill-rule="evenodd" clip-rule="evenodd" d="M8.3998 12.8C3.92229 12.8 0.799805 8.85407 0.799805 7.60002C0.799805 6.34599 3.92229 2.40002 8.3998 2.40002C12.8773 2.40002 15.9998 6.34598 15.9998 7.60002C15.9998 8.85406 12.8773 12.8 8.3998 12.8ZM12 7.60002C12 5.61191 10.3881 4.00002 8.4 4.00002C6.41154 4.00002 4.8 5.6119 4.8 7.60002C4.8 9.58813 6.41194 11.2 8.4 11.2C10.3885 11.1996 12 9.58814 12 7.60002ZM8.40039 9.60002C9.505 9.60002 10.4004 8.70456 10.4004 7.60002C10.4004 6.49549 9.505 5.60002 8.40039 5.60002C7.29578 5.60002 6.40039 6.49549 6.40039 7.60002C6.40039 8.70456 7.29578 9.60002 8.40039 9.60002Z" fill="#999999"/>
</svg>
