<svg width="16" height="16" viewBox="0 0 16 16" fill="none" xmlns="http://www.w3.org/2000/svg">
  <path fill-rule="evenodd" clip-rule="evenodd" d="M7.20024 8.72669C6.63279 8.65592 6.07527 8.53457 5.53364 8.36542C5.50076 8.4431 5.45564 8.5169 5.39827 8.5839L3.02572 10.9568C2.86957 11.1117 2.65881 11.1991 2.43887 11.2C2.21603 11.2013 2.00185 11.1138 1.84364 10.9568C1.51859 10.6298 1.51859 10.1016 1.84364 9.77456L3.92175 7.69611C2.81593 7.11455 1.81666 6.31556 0.987415 5.32888C0.707238 4.99395 0.745675 4.49022 1.07327 4.20376C1.40086 3.91731 1.89355 3.95661 2.17373 4.29154L2.17373 4.29154C5.1253 7.7995 10.2995 8.19694 13.7306 5.17925C14.0413 4.90596 14.3315 4.60923 14.5988 4.29154C14.879 3.9478 15.3787 3.90135 15.7149 4.1878C16.0511 4.47426 16.0965 4.98513 15.8164 5.32888C14.9865 6.31627 13.9864 7.1157 12.8796 7.69737L14.9565 9.77455C15.2815 10.1016 15.2815 10.6298 14.9565 10.9568C14.7982 11.1138 14.5841 11.2013 14.3612 11.2C14.1413 11.1991 13.9305 11.1117 13.7744 10.9568L11.4018 8.58389C11.3445 8.51692 11.2996 8.4435 11.2668 8.36645C10.4725 8.61419 9.64405 8.75916 8.80024 8.79254V11.2C8.80024 11.6418 8.44207 12 8.00024 12C7.55842 12 7.20024 11.6418 7.20024 11.2V8.72669Z" fill="#666666"/>
</svg>
