<?xml version="1.0" encoding="UTF-8"?>
<svg width="16px" height="16px" viewBox="0 0 16 16" version="1.1" xmlns="http://www.w3.org/2000/svg" xmlns:xlink="http://www.w3.org/1999/xlink">
    <!-- Generator: Sketch 62 (91390) - https://sketch.com -->
    <desc>Created with Sketch.</desc>
    <g id="history/icon/pending" stroke="none" stroke-width="1" fill="none" fill-rule="evenodd">
        <g id="Group-8-Copy" transform="translate(8.000000, 8.000000) rotate(-46.000000) translate(-8.000000, -8.000000) " fill="#FA8F00">
            <path d="M8,0 C12.418278,0 16,3.581722 16,8 C16,12.418278 12.418278,16 8,16 C3.581722,16 0,12.418278 0,8 C0,3.581722 3.581722,0 8,0 Z M6.18999559,11.5349158 L5.12726996,13.5259764 C5.69567098,13.8302234 6.31697278,14.0485357 6.97381325,14.1635514 L7.30511467,14.2123707 L7.57651568,11.9720447 C7.16290421,11.9224626 6.76894799,11.8089445 6.40481514,11.6416583 L6.18999559,11.5349158 Z M4.52900854,9.83816295 L2.51617436,10.8591349 C2.81564942,11.4483789 3.20644668,11.9834027 3.66993086,12.4455712 L3.90764392,12.6704978 L5.41406637,10.9904714 C5.11280129,10.7199411 4.85336191,10.4037606 4.64663332,10.052815 L4.52900854,9.83816295 Z M8.05147492,1.84615385 C5.52937377,1.84615385 3.35870331,3.35080744 2.38815228,5.51142585 L2.29206629,5.73724325 L4.38669906,6.57803049 C4.97065764,5.12696086 6.39144413,4.10263424 8.05147492,4.10263424 C10.1642068,4.10263424 11.8894151,5.76181969 11.9951774,7.8482681 L12.0003156,8.05147492 L10.8804626,8.05147492 L13.1350655,10.3267424 L15.3896683,8.05147492 L14.256796,8.05147492 C14.256796,4.62437072 11.4785791,1.84615385 8.05147492,1.84615385 Z M1.90738426,7.17633603 C1.86702618,7.4622496 1.84615385,7.75442476 1.84615385,8.05147492 C1.84615385,8.43877166 1.88163512,8.8177813 1.94952446,9.18543064 L2.00646995,9.45898957 L4.20456183,8.94677036 C4.13788158,8.65911396 4.10263424,8.35941067 4.10263424,8.05147492 C4.10263424,7.92549579 4.10853357,7.80089453 4.12007107,7.67793232 L4.14157328,7.49475094 L1.90738426,7.17633603 Z" id="pending-shape"></path>
        </g>
    </g>
</svg>