<svg width="20" height="20" viewBox="0 0 20 20" fill="none" xmlns="http://www.w3.org/2000/svg">
<path d="M10.0003 18.3327C5.39795 18.3327 1.66699 14.6017 1.66699 9.99935C1.66699 5.39697 5.39795 1.66602 10.0003 1.66602C14.6027 1.66602 18.3337 5.39697 18.3337 9.99935C18.3337 14.6017 14.6027 18.3327 10.0003 18.3327ZM10.0003 16.666C13.6822 16.666 16.667 13.6813 16.667 9.99935C16.667 6.31745 13.6822 3.33268 10.0003 3.33268C6.31843 3.33268 3.33366 6.31745 3.33366 9.99935C3.33366 13.6813 6.31843 16.666 10.0003 16.666ZM10.0003 8.82085L12.3573 6.46382L13.5358 7.64232L11.1788 9.99935L13.5358 12.3563L12.3573 13.5348L10.0003 11.1778L7.6433 13.5348L6.46479 12.3563L8.82183 9.99935L6.46479 7.64232L7.6433 6.46382L10.0003 8.82085Z" fill="#8DA394"/>
</svg>
