<?xml version="1.0" standalone="no"?>
<!DOCTYPE svg PUBLIC "-//W3C//DTD SVG 20010904//EN"
 "http://www.w3.org/TR/2001/REC-SVG-20010904/DTD/svg10.dtd">
<svg version="1.0" xmlns="http://www.w3.org/2000/svg"
 width="512.000000pt" height="512.000000pt" viewBox="0 0 512.000000 512.000000"
 preserveAspectRatio="xMidYMid meet">

<g transform="translate(0.000000,512.000000) scale(0.100000,-0.100000)"
fill="#000000" stroke="none">
<path d="M2455 5063 c-4 -10 -137 -367 -297 -793 -271 -726 -517 -1383 -938
-2507 l-176 -471 430 -379 c907 -797 994 -873 1000 -873 16 0 13 12 -234 830
-360 1196 -344 1141 -334 1156 5 6 188 170 407 364 304 270 397 358 397 375 0
13 -38 409 -85 882 -47 472 -96 977 -110 1123 -14 146 -28 275 -31 288 -5 26
-19 29 -29 5z"/>
<path d="M2640 5059 c0 -11 18 -111 40 -222 36 -184 103 -533 316 -1651 73
-381 74 -390 56 -410 -10 -12 -146 -176 -302 -365 l-282 -344 81 -991 c45
-545 84 -1001 87 -1014 3 -13 9 -22 14 -20 5 2 328 283 717 626 l709 624 -167
446 c-214 571 -778 2079 -1037 2772 -110 294 -204 543 -207 553 -10 24 -25 22
-25 -4z"/>
</g>
</svg>
