<svg width="20" height="20" viewBox="0 0 20 20" fill="none" xmlns="http://www.w3.org/2000/svg">
<path fill-rule="evenodd" clip-rule="evenodd" d="M1.85867 2.85586C1.99603 2.68525 2.15071 2.61895 2.28562 2.61895H17.7142C17.8491 2.61895 18.0038 2.68525 18.1411 2.85586C18.2795 3.02765 18.3809 3.28757 18.3809 3.59684V16.403C18.3809 16.7122 18.2795 16.9722 18.1411 17.144C18.0038 17.3146 17.8491 17.3809 17.7142 17.3809H2.28562C2.15071 17.3809 1.99603 17.3146 1.85867 17.144C1.72036 16.9722 1.61895 16.7122 1.61895 16.403V3.59684C1.61895 3.28757 1.72036 3.02765 1.85867 2.85586ZM2.28562 1.38086C1.71045 1.38086 1.22227 1.67205 0.894295 2.07942C0.567271 2.4856 0.380859 3.02414 0.380859 3.59684V16.403C0.380859 16.9757 0.567271 17.5142 0.894295 17.9204C1.22227 18.3278 1.71045 18.619 2.28562 18.619H17.7142C18.2894 18.619 18.7775 18.3278 19.1055 17.9204C19.4325 17.5142 19.619 16.9757 19.619 16.403V3.59684C19.619 3.02414 19.4325 2.4856 19.1055 2.07942C18.7775 1.67205 18.2894 1.38086 17.7142 1.38086H2.28562ZM9.3448 6.24612C9.47301 6.09029 9.66422 6 9.86601 6C10.0572 6 10.2394 6.08108 10.3674 6.2231L10.4759 6.34346L12.9051 8.8315C13.1435 9.07563 13.1447 9.465 12.9079 9.71061C12.6612 9.96643 12.252 9.96826 12.0031 9.71465L10.4759 8.15896V13.1587C10.4759 13.5006 10.1987 13.7778 9.85682 13.7778C9.51493 13.7778 9.23777 13.5006 9.23777 13.1587V8.1917L7.74171 9.71487C7.49272 9.96838 7.08362 9.96649 6.83696 9.7107C6.60008 9.46505 6.60133 9.07561 6.83977 8.83147L9.23777 6.3762L9.3448 6.24612Z" fill="#8DA394"/>
</svg>
