<?xml version="1.0" encoding="UTF-8"?>
<svg width="26px" height="26px" viewBox="0 0 26 26" version="1.1" xmlns="http://www.w3.org/2000/svg" xmlns:xlink="http://www.w3.org/1999/xlink">
    <!-- Generator: Sketch 52.4 (67378) - http://www.bohemiancoding.com/sketch -->
    <title>Receive_Copy</title>
    <desc>Created with Sketch.</desc>
    <g id="Receive_Copy" stroke="none" stroke-width="1" fill="none" fill-rule="evenodd">
        <path d="M23.7182759,0 L6.76448276,0 C5.50482759,0 4.48275862,1.02206897 4.48275862,2.28172414 L4.48275862,4.48275862 L2.28172414,4.48275862 C1.02206897,4.48275862 0,5.50482759 0,6.76448276 L0,23.7182759 C0,24.977931 1.02206897,26 2.28172414,26 L19.2355172,26 C20.4951724,26 21.5172414,24.977931 21.5172414,23.7182759 L21.5172414,21.5172414 L23.7182759,21.5172414 C24.977931,21.5172414 26,20.4951724 26,19.2355172 L26,2.28172414 C26,1.02206897 24.977931,0 23.7182759,0 Z M19.7241379,23.7182759 C19.7241379,23.9872414 19.5044828,24.2068966 19.2355172,24.2068966 L2.28172414,24.2068966 C2.01275862,24.2068966 1.79310345,23.9872414 1.79310345,23.7182759 L1.79310345,6.76448276 C1.79310345,6.49551724 2.01275862,6.27586207 2.28172414,6.27586207 L19.2355172,6.27586207 C19.5044828,6.27586207 19.7241379,6.49551724 19.7241379,6.76448276 L19.7241379,23.7182759 Z M24.2068966,19.2355172 C24.2068966,19.5044828 23.9872414,19.7241379 23.7182759,19.7241379 L21.5172414,19.7241379 L21.5172414,6.76448276 C21.5172414,5.50482759 20.4951724,4.48275862 19.2355172,4.48275862 L6.27586207,4.48275862 L6.27586207,2.28172414 C6.27586207,2.01275862 6.49551724,1.79310345 6.76448276,1.79310345 L23.7182759,1.79310345 C23.9872414,1.79310345 24.2068966,2.01275862 24.2068966,2.28172414 L24.2068966,19.2355172 Z" id="Shape-Copy" fill="#000000" fill-rule="nonzero"></path>
    </g>
</svg>