<svg width="20" height="20" viewBox="0 0 20 20" fill="none" xmlns="http://www.w3.org/2000/svg">
<path fill-rule="evenodd" clip-rule="evenodd" d="M4.96216 3.63606H2.85683L4.70951 2.63606L7.18896 1.29776C7.55139 1.10214 7.95395 1 8.36253 1C9.42507 1 10.3353 1.67609 10.7152 2.63606C10.8372 2.94444 10.9044 3.2821 10.9044 3.63606H9.90445H4.96216ZM9.58358 2.63606H6.81485L7.66394 2.17776C7.88166 2.06024 8.12116 2 8.36253 2C8.84543 2 9.29578 2.24345 9.58358 2.63606ZM2.4273 5.72601C2.54197 5.60708 2.69357 5.53929 2.85714 5.53929H17.7143C17.8779 5.53929 18.0295 5.60708 18.1441 5.72601C18.2592 5.84533 18.3333 6.01316 18.3333 6.20419V9.80999H16.5523C15.9312 9.80999 15.373 10.0732 14.9744 10.4885C14.5761 10.9033 14.3333 11.4728 14.3333 12.0957C14.3333 12.7186 14.5761 13.2881 14.9744 13.7029C15.373 14.1182 15.9312 14.3814 16.5523 14.3814H18.3333V16.5005C18.3333 16.6915 18.2592 16.8594 18.1441 16.9787C18.0295 17.0976 17.8779 17.1654 17.7143 17.1654H2.85714C2.69357 17.1654 2.54197 17.0976 2.4273 16.9787C2.31224 16.8594 2.2381 16.6915 2.2381 16.5005V6.20419C2.2381 6.01316 2.31224 5.84533 2.4273 5.72601ZM2.85714 4.3012C2.33693 4.3012 1.86949 4.52083 1.53606 4.8666C1.20302 5.21198 1 5.68612 1 6.20419V16.5005C1 17.0186 1.20302 17.4927 1.53606 17.8381C1.86949 18.1839 2.33693 18.4035 2.85714 18.4035H17.7143C18.2345 18.4035 18.7019 18.1839 19.0354 17.8381C19.3684 17.4927 19.5714 17.0186 19.5714 16.5005V6.20419C19.5714 5.68612 19.3684 5.21198 19.0354 4.8666C18.7019 4.52083 18.2345 4.3012 17.7143 4.3012H2.85714ZM16.5523 11.0481C16.2897 11.0481 16.0479 11.1579 15.8675 11.3459C15.6866 11.5343 15.5713 11.7981 15.5713 12.0957C15.5713 12.3933 15.6866 12.6571 15.8675 12.8455C16.0479 13.0335 16.2897 13.1433 16.5523 13.1433H18.3333V11.0481H16.5523ZM7.26621 14.0521C7.39442 14.2079 7.58563 14.2982 7.78743 14.2982C7.97861 14.2982 8.16083 14.2171 8.28882 14.0751L8.39728 13.9547L9.83273 12.4658C10.0681 12.2217 10.0681 11.8352 9.83269 11.5911C9.58484 11.3341 9.17315 11.3341 8.92537 11.5912L8.39728 12.1392L8.39728 9.13944C8.39728 8.79755 8.12012 8.5204 7.77823 8.5204C7.43634 8.5204 7.15919 8.79755 7.15919 9.13944V12.1065L6.66224 11.591C6.41443 11.334 6.00279 11.334 5.75497 11.591C5.51957 11.8351 5.51957 12.2218 5.75498 12.4659L7.15919 13.922L7.26621 14.0521Z" fill="#8DA394"/>
</svg>
