<svg width="16" height="16" viewBox="0 0 16 16" fill="none" xmlns="http://www.w3.org/2000/svg">
<path d="M6.0465 8.16259C6.13566 8.5458 5.7149 8.83673 5.388 8.63183L4.27433 7.93579L2.88381 10.1616C2.52093 10.7434 2.94012 11.5005 3.62521 11.5005H5.04702C5.22846 11.5005 5.37549 11.6475 5.37549 11.8289V12.9223C5.37549 13.1037 5.22846 13.2507 5.04702 13.2507H3.62834C1.56837 13.2507 0.3108 10.9796 1.40257 9.23402L2.79153 7.00825L1.67786 6.31221C1.34783 6.10574 1.43229 5.60209 1.81081 5.5145L4.82491 4.81846C5.06109 4.76371 5.29571 4.91074 5.3489 5.14693L6.0465 8.16259ZM8.74151 3.16047L9.87082 4.96705L8.75716 5.66309C8.42712 5.86956 8.51159 6.37321 8.89011 6.4608L11.9042 7.15685C12.142 7.21159 12.375 7.063 12.4282 6.82838L13.1242 3.81428C13.2118 3.43576 12.7958 3.13857 12.4657 3.34504L11.3536 4.03952L10.2259 2.23293C9.19981 0.590587 6.80198 0.587458 5.77434 2.23293L5.2832 3.0197C5.18779 3.17298 5.23471 3.37632 5.388 3.47173L6.31553 4.05203C6.46882 4.14744 6.67216 4.10208 6.76757 3.94723L7.25871 3.16047C7.60595 2.6052 8.40522 2.62397 8.74151 3.16047ZM14.5977 9.23559L13.8453 8.0312C13.7499 7.87791 13.5466 7.83099 13.3933 7.9264L12.4673 8.50514C12.314 8.60055 12.2671 8.80389 12.3625 8.95717L13.1164 10.1631C13.4793 10.7434 13.0601 11.502 12.375 11.502H9.75039V10.1897C9.75039 9.80181 9.27958 9.60472 9.00273 9.88001L6.81606 12.0667C6.64557 12.2372 6.64557 12.514 6.81606 12.6861L9.00429 14.8727C9.27802 15.1465 9.75195 14.9541 9.75195 14.563V13.2507H12.3719C14.4303 13.2507 15.6894 10.9812 14.5977 9.23559Z" fill="#8DA394"/>
</svg>
