<?xml version="1.0" standalone="no"?><!DOCTYPE svg PUBLIC "-//W3C//DTD SVG 1.1//EN" "http://www.w3.org/Graphics/SVG/1.1/DTD/svg11.dtd"><svg t="1645448125449" class="icon" viewBox="0 0 1024 1024" version="1.1" xmlns="http://www.w3.org/2000/svg" p-id="9278" width="16" height="16" xmlns:xlink="http://www.w3.org/1999/xlink"><defs><style type="text/css"></style></defs><path d="M696.672 534.016l-2.944 3.392-2.496 2.24-247.008 249.92a34.976 34.976 0 0 1-49.92 0 36.032 36.032 0 0 1-2.944-47.136l2.976-3.392L618.72 512l-224.384-227.04a36.032 36.032 0 0 1-2.976-47.104l2.976-3.392a34.976 34.976 0 0 1 49.92 0l246.976 249.856 2.496 2.272c6.368 6.432 9.792 14.72 10.272 23.136v4.512a35.84 35.84 0 0 1-7.328 19.776z" p-id="9279" fill="#666666"></path></svg>