<svg width="16" height="16" viewBox="0 0 16 16" fill="none" xmlns="http://www.w3.org/2000/svg">
<g clip-path="url(#clip0_25577_9684)">
<path d="M12.3636 0C14.3379 0 15.9447 1.57337 15.9986 3.53466L16 3.63644V12.3636C16 14.3379 14.4266 15.9447 12.4653 15.9986L12.3636 16H3.63644C1.62808 16 0 14.3719 0 12.3636V3.63644C0 1.62808 1.6281 0 3.63644 0H12.3636ZM12.3636 1.45422H3.63644C2.45862 1.45422 1.49875 2.38733 1.45573 3.55463L1.45422 3.63644V12.3636C1.45422 13.5688 2.43124 14.5458 3.63644 14.5458H12.3636C13.5414 14.5458 14.5013 13.6127 14.5443 12.4454L14.5458 12.3636V3.63644C14.5458 2.43123 13.5688 1.45422 12.3636 1.45422ZM3.84133 8.58667C4.24444 8.58667 4.57156 8.91378 4.57156 9.31689V11.1422C4.57156 11.5458 4.89822 11.8724 5.30178 11.8724H7.12711C7.5304 11.8724 7.85733 12.1994 7.85733 12.6027C7.85733 13.006 7.5304 13.3329 7.12711 13.3329H5.30178C4.09208 13.3329 3.11135 12.3524 3.1111 11.1427V9.31734C3.1111 8.91422 3.43822 8.58711 3.84133 8.58711L3.84133 8.58667ZM11.1427 3.11111C12.3525 3.11111 13.3333 4.09191 13.3333 5.30178V7.12711C13.3333 7.53041 13.0064 7.85734 12.6031 7.85734C12.1998 7.85734 11.8729 7.53041 11.8729 7.12711V5.30178C11.8729 4.89823 11.5462 4.57156 11.1427 4.57156H9.31735C8.91406 4.57156 8.58712 4.24463 8.58712 3.84134C8.58712 3.43822 8.91423 3.11111 9.31734 3.11111H11.1427Z" fill="white"/>
</g>
<defs>
<clipPath id="clip0_25577_9684">
<rect width="16" height="16" fill="white"/>
</clipPath>
</defs>
</svg>
