<svg width="16" height="16" viewBox="0 0 16 16" fill="none" xmlns="http://www.w3.org/2000/svg">
<g clip-path="url(#clip0_25577_9680)">
<path d="M1.77779 4.44446C1.78016 4.93538 1.38412 5.33528 0.8932 5.33766C0.40228 5.34003 0.00238352 4.94398 0 4.45306C0 4.4502 0 4.44733 0 4.44446V1.7778C0 0.795961 0.795951 1.05467e-05 1.77779 1.05467e-05C1.77779 1.05467e-05 1.77779 1.05467e-05 1.77779 1.05467e-05H4.44445C4.93537 -0.00235551 5.33527 0.393681 5.33765 0.884599C5.34002 1.37552 4.94398 1.77541 4.45307 1.77778C4.4502 1.7778 4.44733 1.7778 4.44447 1.77778H1.7778L1.77779 4.44446ZM14.2223 4.44446V1.7778H11.5556C11.0647 1.77542 10.6686 1.37552 10.671 0.884599C10.6734 0.397033 11.068 0.00237928 11.5556 2.53431e-05H14.2223C15.2041 2.53431e-05 16 0.795966 16 1.7778V4.44446C15.9977 4.93538 15.5978 5.33142 15.1068 5.32905C14.6193 5.32669 14.2246 4.93203 14.2223 4.44446ZM1.77779 11.5556V14.2223H4.44445C4.93537 14.2246 5.33141 14.6245 5.32904 15.1155C5.32667 15.603 4.93201 15.9977 4.44444 16H1.77777C0.795941 16 1.47964e-05 15.2041 1.47964e-05 14.2223V11.5556C0.00238764 11.0647 0.402268 10.6686 0.893185 10.671C1.38075 10.6734 1.77543 11.068 1.77779 11.5556ZM14.2223 11.5556C14.2246 11.0647 14.6245 10.6686 15.1154 10.671C15.603 10.6734 15.9977 11.068 16 11.5556V14.2223C16 15.2041 15.2041 16 14.2223 16H11.5556C11.0647 15.9977 10.6686 15.5978 10.671 15.1068C10.6734 14.6193 11.068 14.2246 11.5556 14.2223H14.2223L14.2223 11.5556ZM0.888909 7.11113H15.1111C15.6021 7.11113 16 7.5091 16 8.00002C16 8.49095 15.6021 8.88892 15.1111 8.88892H0.888909C0.397985 8.88892 1.47964e-05 8.49095 1.47964e-05 8.00002C1.47964e-05 7.5091 0.397985 7.11113 0.888909 7.11113Z" fill="#00C891"/>
</g>
<defs>
<clipPath id="clip0_25577_9680">
<rect width="16" height="16" fill="white"/>
</clipPath>
</defs>
</svg>
