<?xml version="1.0" standalone="no"?><!DOCTYPE svg PUBLIC "-//W3C//DTD SVG 1.1//EN" "http://www.w3.org/Graphics/SVG/1.1/DTD/svg11.dtd"><svg t="1645448294928" class="icon" viewBox="0 0 1024 1024" version="1.1" xmlns="http://www.w3.org/2000/svg" p-id="9611" width="16" height="16" xmlns:xlink="http://www.w3.org/1999/xlink"><defs><style type="text/css"></style></defs><path d="M845 844.9l-193 0.1v64h193c35.2 0 64-28.8 64-64V652h-64v192.9zM845 115H652v64h192.9l0.1 0.1V372h64V179c0-35.2-28.8-64-64-64zM179 179.1l0.1-0.1H372v-64H179c-35.2 0-64 28.8-64 64v193h64V179.1zM179 844.9V652h-64v193c0 35.2 28.8 64 64 64h193v-64H179.1l-0.1-0.1zM115 512c0 17.7 14.3 32 32 32h730c17.7 0 32-14.3 32-32s-14.3-32-32-32H147c-17.7 0-32 14.3-32 32z" p-id="9612" fill="#666666"></path></svg>