<svg width="16" height="16" viewBox="0 0 16 16" fill="none" xmlns="http://www.w3.org/2000/svg">
<path opacity="0.8" fill-rule="evenodd" clip-rule="evenodd" d="M1.59995 7.60023C1.59995 4.28633 4.28626 1.59995 7.59992 1.59995C10.9136 1.59995 13.5999 4.28633 13.5999 7.60023C13.5999 9.20973 12.9662 10.6712 11.9348 11.7488C11.8994 11.7741 11.8656 11.8026 11.8339 11.8344C11.8021 11.8662 11.7736 11.8999 11.7483 11.9353C10.6707 12.9668 9.20932 13.6005 7.59992 13.6005C4.28626 13.6005 1.59995 10.9141 1.59995 7.60023ZM12.3786 13.5104C11.0731 14.5673 9.41045 15.2005 7.59992 15.2005C3.40257 15.2005 0 11.7977 0 7.60023C0 3.40277 3.40257 0 7.59992 0C11.7973 0 15.1998 3.40277 15.1998 7.60023C15.1998 9.41079 14.5668 11.0735 13.5099 12.379L15.7653 14.6344C16.0777 14.9468 16.0777 15.4533 15.7653 15.7657C15.4529 16.0781 14.9464 16.0782 14.634 15.7657L12.3786 13.5104Z" fill="#999999"/>
</svg>
