<svg width="16" height="16" viewBox="0 0 16 16" fill="none" xmlns="http://www.w3.org/2000/svg">
  <path opacity="0.8" fill-rule="evenodd" clip-rule="evenodd"
    d="M1.60092 7.60023C1.60092 4.28633 4.28724 1.59995 7.6009 1.59995C10.9146 1.59995 13.6009 4.28633 13.6009 7.60023C13.6009 9.20956 12.9673 10.6709 11.9361 11.7484C11.9006 11.7738 11.8667 11.8024 11.8349 11.8343C11.803 11.8661 11.7744 11.9 11.749 11.9355C10.6715 12.9669 9.2102 13.6005 7.6009 13.6005C4.28724 13.6005 1.60092 10.9141 1.60092 7.60023ZM12.3796 13.5103C11.0742 14.5673 9.41147 15.2005 7.6009 15.2005C3.40354 15.2005 0.000976562 11.7977 0.000976562 7.60023C0.000976562 3.40277 3.40354 0 7.6009 0C11.7983 0 15.2008 3.40277 15.2008 7.60023C15.2008 9.41076 14.5678 11.0734 13.5109 12.3789L15.7663 14.6343C16.0787 14.9467 16.0787 15.4532 15.7663 15.7656C15.4539 16.078 14.9474 16.078 14.635 15.7656L12.3796 13.5103Z"
    fill="#999999" />
</svg>
