<svg width="20" height="20" viewBox="0 0 20 20" fill="none" xmlns="http://www.w3.org/2000/svg">
<g opacity="0.5">
<path fill-rule="evenodd" clip-rule="evenodd" d="M2.57079 3.87396L6.90291 1.53566C7.26534 1.34004 7.66791 1.2379 8.07649 1.2379C9.48035 1.2379 10.6184 2.4181 10.6184 3.87396H2.57079ZM18.3037 5.53396C18.0797 5.30161 17.7701 5.1579 17.4282 5.1579H2.5711C2.22921 5.1579 1.91969 5.30161 1.69564 5.53396C1.47159 5.76631 1.33301 6.0873 1.33301 6.44185V16.7381C1.33301 17.0927 1.47159 17.4137 1.69564 17.646C1.91969 17.8784 2.22921 18.0221 2.5711 18.0221H17.4282C17.7701 18.0221 18.0797 17.8784 18.3037 17.646C18.5278 17.4137 18.6663 17.0927 18.6663 16.7381V14.619H18.6663H16.2663C15.6452 14.619 15.087 14.3558 14.6883 13.9405C14.2901 13.5257 14.0472 12.9562 14.0472 12.3333C14.0472 11.7104 14.2901 11.1409 14.6883 10.7261C15.087 10.3108 15.6452 10.0476 16.2663 10.0476H18.6663H18.6663V6.44185C18.6663 6.0873 18.5278 5.76631 18.3037 5.53396ZM15.5815 11.5835C15.7619 11.3956 16.0037 11.2857 16.2663 11.2857H18.0472V13.3809H16.2663C16.0037 13.3809 15.7619 13.2711 15.5815 13.0831C15.4006 12.8947 15.2853 12.6309 15.2853 12.3333C15.2853 12.0357 15.4006 11.7719 15.5815 11.5835ZM7.50139 8.75926C7.29959 8.75926 7.10838 8.84955 6.98017 9.00537L6.87315 9.13545L5.46894 10.5916C5.23353 10.8357 5.23353 11.2223 5.46892 11.4664C5.71675 11.7234 6.12839 11.7234 6.3762 11.4664L6.87315 10.951V13.918C6.87315 14.2599 7.1503 14.537 7.49219 14.537C7.83408 14.537 8.11124 14.2599 8.11124 13.918L8.11124 10.9182L8.63933 11.4662C8.8871 11.7233 9.2988 11.7234 9.54665 11.4663C9.78201 11.2223 9.78203 10.8357 9.54669 10.5916L8.11124 9.10271L8.00278 8.98236C7.87479 8.84034 7.69257 8.75926 7.50139 8.75926Z" fill="white"/>
</g>
</svg>
