<svg width="20" height="20" viewBox="0 0 20 20" fill="none" xmlns="http://www.w3.org/2000/svg">
<path opacity="0.5" d="M7.35815 1C7.67641 1.00088 7.97961 1.13481 8.19348 1.369L8.25304 1.47105C8.4399 1.77172 8.69938 2.02211 9.00868 2.199L9.01613 2.20317L9.0236 2.20731C10.0442 2.77005 11.3308 2.40413 11.8971 1.39L11.9518 1.33447C12.1589 1.13855 12.4345 1.02814 12.7224 1.028H12.7425C12.8885 1.02851 13.0327 1.06023 13.1652 1.121L13.1954 1.131L15.4397 2.455L15.4598 2.472C15.8692 2.79419 16.0166 3.34544 15.8222 3.827L15.7761 3.94045C15.6751 4.20738 15.6191 4.48937 15.6108 4.77501L15.6101 4.86712C15.6245 6.15147 16.6531 7.20784 17.9558 7.25401H18.0363C18.4809 7.31501 18.8119 7.69299 18.8112 8.13901L18.8555 8.37064C19.0619 9.53083 19.0472 10.72 18.8112 11.876L18.809 11.9425C18.7794 12.3597 18.4593 12.7044 18.0363 12.762H17.9558C16.6225 12.8093 15.5763 13.9148 15.6108 15.24L15.6173 15.3623C15.6391 15.6469 15.7083 15.9263 15.8222 16.189L15.8487 16.2617C16.001 16.7248 15.8485 17.2373 15.4598 17.543L15.4397 17.559L13.1551 18.899L13.1249 18.91C12.9954 18.9689 12.8547 18.9996 12.7123 19H12.6922C12.3706 18.9996 12.0653 18.8593 11.8568 18.616L11.8039 18.5172C11.6004 18.1605 11.2961 17.8698 10.9276 17.6819C9.88575 17.1504 8.60756 17.5588 8.07271 18.594L8.01817 18.6518C7.81136 18.8558 7.53091 18.9713 7.23738 18.971H7.22731C7.07798 18.9716 6.9303 18.9399 6.79455 18.878L6.77443 18.867L4.56029 17.559L4.54016 17.543C4.13516 17.218 3.98859 16.6699 4.17785 16.188L4.22394 16.0746C4.32505 15.8077 4.38099 15.5257 4.3892 15.24C4.43298 13.9136 3.38758 12.8045 2.0543 12.761H1.95366C1.51817 12.6863 1.1973 12.315 1.18878 11.876L1.14454 11.6444C0.938055 10.4842 0.952804 9.29505 1.18878 8.13901L1.1923 8.07259C1.22966 7.65571 1.55109 7.31416 1.97379 7.254L2.05594 7.25395C3.3892 7.20962 4.43384 6.09975 4.38921 4.77501L4.38274 4.65273C4.36087 4.36808 4.29173 4.08871 4.17786 3.826L4.15073 3.74946C4.00458 3.2874 4.15638 2.77939 4.54017 2.472L4.57037 2.455L6.90526 1.1L6.92539 1.089C7.05498 1.03047 7.19567 1 7.33802 1H7.35815ZM10.005 6.75001C8.19859 6.75001 6.73417 8.20508 6.73417 10C6.73417 11.7949 8.19859 13.25 10.005 13.25H10.0352C11.7699 13.1851 13.1606 11.8152 13.2519 10.1041L13.2558 10.001C13.2596 8.24584 11.8597 6.81271 10.1065 6.75198L10.005 6.75001Z" fill="white"/>
</svg>
