<?xml version="1.0" standalone="no"?><!DOCTYPE svg PUBLIC "-//W3C//DTD SVG 1.1//EN" "http://www.w3.org/Graphics/SVG/1.1/DTD/svg11.dtd"><svg t="1645448519580" class="icon" viewBox="0 0 1024 1024" version="1.1" xmlns="http://www.w3.org/2000/svg" p-id="11942" width="16" height="16" xmlns:xlink="http://www.w3.org/1999/xlink"><defs><style type="text/css"></style></defs><path d="M512 320c-106 0-192 86-192 192s86 192 192 192 192-86 192-192-86-192-192-192z m90.5 282.5C578.3 626.7 546.2 640 512 640s-66.3-13.3-90.5-37.5S384 546.2 384 512s13.3-66.3 37.5-90.5S477.8 384 512 384s66.3 13.3 90.5 37.5S640 477.8 640 512s-13.3 66.3-37.5 90.5z" p-id="11943" fill="#666666"></path><path d="M916 579.3l-54.3-31.4c1.2-11.8 1.8-23.8 1.8-35.9s-0.6-24.1-1.8-35.9l54.3-31.4c30.6-17.7 41-56.8 23.4-87.4l-79.9-138.6c-11.8-20.5-33.3-32-55.4-32-10.8 0-21.8 2.8-31.9 8.6l-54.3 31.4c-19.3-14-40.1-26.1-62.1-36V128c0-35.3-28.6-64-63.9-64H432.1c-35.3 0-63.9 28.7-63.9 64v62.7c-22 9.9-42.8 22-62.1 36l-54.3-31.4c-10.1-5.8-21.1-8.6-31.9-8.6-22.1 0-43.6 11.5-55.4 32L84.6 357.3c-17.7 30.6-7.2 69.8 23.4 87.4l54.3 31.4c-1.2 11.8-1.8 23.8-1.8 35.9s0.6 24.1 1.8 35.9L108 579.3c-30.6 17.7-41 56.8-23.4 87.4l79.9 138.6c11.8 20.5 33.3 32 55.4 32 10.8 0 21.8-2.8 31.9-8.6l54.3-31.4c19.3 14 40.1 26.1 62.1 36V896c0 35.3 28.6 64 63.9 64h159.8c35.3 0 63.9-28.7 63.9-64v-62.7c22-9.9 42.8-22 62.1-36l54.3 31.4c10.1 5.8 21.1 8.6 31.9 8.6 22.1 0 43.6-11.5 55.4-32l79.9-138.6c17.7-30.6 7.2-69.7-23.4-87.4z m-32 55.4l-79.9 138.5-54.2-31.3c-9.9-5.7-21-8.6-32-8.6-13.2 0-26.4 4.1-37.6 12.2-15.9 11.5-33 21.4-50.8 29.4-23 10.3-37.8 33.2-37.8 58.4V896H432.2v-62.7c0-25.2-14.8-48-37.8-58.4-17.8-8-34.9-17.9-50.8-29.4-11.2-8.1-24.3-12.2-37.6-12.2-11 0-22.1 2.8-32 8.6l-54.2 31.3L140 634.7l54.3-31.4c21.8-12.6 34.2-36.8 31.6-61.8-1-9.7-1.5-19.6-1.5-29.5 0-9.8 0.5-19.7 1.5-29.5 2.5-25-9.9-49.3-31.6-61.8L140 389.3l79.9-138.5 54.2 31.3c9.9 5.7 21 8.6 32 8.6 13.2 0 26.4-4.1 37.6-12.2 15.9-11.5 33-21.4 50.8-29.4 23-10.3 37.8-33.2 37.8-58.4V128h159.6v62.7c0 25.2 14.8 48 37.8 58.4 17.8 8 34.9 17.9 50.8 29.4 11.2 8.1 24.3 12.2 37.6 12.2 11 0 22.1-2.8 32-8.6l54.2-31.3L884 389.3l-54.3 31.4c-21.8 12.6-34.2 36.8-31.6 61.8 1 9.7 1.5 19.6 1.5 29.5 0 9.8-0.5 19.7-1.5 29.5-2.5 25 9.9 49.3 31.6 61.8l54.3 31.4z" p-id="11944" fill="#666666"></path></svg>