<svg width="12" height="12" viewBox="0 0 12 12" fill="none" xmlns="http://www.w3.org/2000/svg">
<path fill-rule="evenodd" clip-rule="evenodd" d="M9.42214 0.0867435C9.28368 0.144092 9.15788 0.22815 9.05192 0.334116L3.60519 5.78084L3 7.99988L5.21904 7.39469L10.6658 1.94796C10.7717 1.84199 10.8558 1.71619 10.9131 1.57774C10.9705 1.43929 11 1.2909 11 1.14104C11 0.991179 10.9705 0.842787 10.9131 0.704335C10.8558 0.565883 10.7717 0.440083 10.6658 0.334116C10.5598 0.22815 10.434 0.144092 10.2955 0.0867435C10.1571 0.0293949 10.0087 -0.00012207 9.85884 -0.00012207C9.70898 -0.00012207 9.56059 0.0293949 9.42214 0.0867435ZM1.2 7.80007C1.2 7.4687 0.931371 7.20007 0.6 7.20007C0.268629 7.20007 0 7.4687 0 7.80007V10.2001C0 10.6775 0.189642 11.1353 0.527208 11.4729C0.864773 11.8104 1.32261 12.0001 1.8 12.0001H10.2C10.6774 12.0001 11.1352 11.8104 11.4728 11.4729C11.8104 11.1353 12 10.6775 12 10.2001V7.80007C12 7.4687 11.7314 7.20007 11.4 7.20007C11.0686 7.20007 10.8 7.4687 10.8 7.80007V10.2001C10.8 10.3592 10.7368 10.5118 10.6243 10.6243C10.5117 10.7369 10.3591 10.8001 10.2 10.8001H1.8C1.64087 10.8001 1.48826 10.7369 1.37574 10.6243C1.26321 10.5118 1.2 10.3592 1.2 10.2001V7.80007Z" fill="#00C891"/>
</svg>
