<?xml version="1.0" encoding="UTF-8"?>
<svg width="60px" height="60px" viewBox="0 0 60 60" version="1.1" xmlns="http://www.w3.org/2000/svg" xmlns:xlink="http://www.w3.org/1999/xlink">
    <title>1. Icon/softwallet_import_seed</title>
    <g id="1.-Icon/softwallet_import_seed" stroke="none" stroke-width="1" fill="none" fill-rule="evenodd">
        <path d="M44.5,31.5 C51.9558441,31.5 58,37.3202983 58,44.5 C58,51.6797017 51.9558441,57.5 44.5,57.5 C37.0441559,57.5 31,51.6797017 31,44.5 C31,37.3202983 37.0441559,31.5 44.5,31.5 Z M44.6762525,36 L36.5502525,44.1058851 L39.3786797,46.9343123 L42.4992525,43.8127105 L42.5,52.0082866 L46.5,52.0082866 L46.4992525,43.4587105 L49.9748737,46.9343123 L52.8033009,44.1058851 L44.6762525,36 Z M22.3399084,2 C24.2988573,2 26.1681753,2.82085332 27.4937783,4.26316302 L32.766,10 L46,10 C48.209139,10 50,11.790861 50,14 L50,30.0040844 C48.7370857,29.5247197 47.3954153,29.2056181 45.9996787,29.0716179 L46,15 C46,14.4477153 45.5522847,14 45,14 L5,14 C4.44771525,14 4,14.4477153 4,15 L4,46 C4,46.5522847 4.44771525,47 5,47 L29.2005423,46.9998747 C29.4284755,48.4055988 29.8454756,49.747927 30.4246047,51 L4,51 C1.790861,51 -5.26867439e-12,49.209139 -5.26867439e-12,47 L-5.26867439e-12,14 C-5.26867439e-12,13.9293184 0.00183327753,13.859065 0.00545487656,13.7892848 L-5.26867439e-12,13.7895791 L-5.26867439e-12,6 C-5.26867439e-12,3.790861 1.790861,2 4,2 L22.3399084,2 Z M22.3399084,5 L4,5 C3.48716416,5 3.06449284,5.38604019 3.00672773,5.88337887 L3,6 L2.99923866,10.1262135 C3.3190878,10.0438225 3.65442625,10 4,10 L28.692,10 L25.2849769,6.29323601 C24.5779886,5.52400417 23.6003511,5.06411951 22.5630285,5.00622036 L22.3399084,5 Z" id="softwallet_import_seed" fill="#979797" fill-rule="nonzero"></path>
    </g>
</svg>