<?xml version="1.0" encoding="UTF-8"?>
<svg width="60px" height="60px" viewBox="0 0 60 60" version="1.1" xmlns="http://www.w3.org/2000/svg" xmlns:xlink="http://www.w3.org/1999/xlink">
    <title>1. Icon/softwallet_create</title>
    <g id="1.-Icon/softwallet_create" stroke="none" stroke-width="1" fill="none" fill-rule="evenodd">
        <path d="M44.5,31.5 C51.9558441,31.5 58,37.3202983 58,44.5 C58,51.6797017 51.9558441,57.5 44.5,57.5 C37.0441559,57.5 31,51.6797017 31,44.5 C31,37.3202983 37.0441559,31.5 44.5,31.5 Z M46.5,37.5 L42.5,37.5 L42.5,43 L37,43 L37,47 L42.5,47 L42.5,52.5 L46.5,52.5 L46.5,47 L52,47 L52,43 L46.5,43 L46.5,37.5 Z M52.2580645,1.7408297e-13 C56.5338174,1.7408297e-13 60,3.46618258 60,7.74193548 L60,43.5483871 C60,43.6790013 59.9967655,43.80886 59.9903722,43.9378875 C59.8577934,40.2300651 58.4233442,36.8540698 56.1301747,34.2532964 L56.129,33.87 L55.7813854,33.8707165 C54.1837706,32.1757157 52.2083931,30.8407143 49.9898212,30.0002806 L56.1290323,30 L56.1290323,21.2903226 L39.1935484,21.2903226 C36.8571548,21.2903226 34.9504944,23.1302289 34.8434497,25.440159 L34.8387097,25.6451613 C34.8387097,27.9815548 36.678616,29.8882152 38.9885461,29.99526 L39.0212162,29.9961043 C37.4291901,30.5977958 35.9621879,31.4540879 34.66988,32.51531 C32.439529,31.0452669 30.9677419,28.5170912 30.9677419,25.6451613 C30.9677419,21.1021738 34.6505609,17.4193548 39.1935484,17.4193548 L56.129,17.419 L56.1290323,7.74193548 C56.1290323,5.66884317 54.4993854,3.97637528 52.4512648,3.87570514 L52.2580645,3.87096774 L12.207,3.87 L12.207,47.23 L12.4219355,47.4193548 L29.2745386,47.4195125 C29.5341147,48.7814025 29.9718894,50.0801028 30.5626777,51.2904284 L10.9564148,51.2903226 L0,41.5956382 L0,7.74193548 C0,3.46618258 3.46618258,1.7408297e-13 7.74193548,1.7408297e-13 L52.2580645,1.7408297e-13 Z M8.336,3.87 L7.74193548,3.87096774 C5.66884317,3.87096774 3.97637528,5.50061465 3.87570514,7.54873515 L3.87096774,7.74193548 L3.87096774,39.8535484 L8.336,43.805 L8.336,3.87 Z M39.1935484,24.1935484 C39.9952521,24.1935484 40.6451613,24.8434576 40.6451613,25.6451613 C40.6451613,26.446865 39.9952521,27.0967742 39.1935484,27.0967742 C38.3918447,27.0967742 37.7419355,26.446865 37.7419355,25.6451613 C37.7419355,24.8434576 38.3918447,24.1935484 39.1935484,24.1935484 Z" id="softwallet_create" fill="#979797" fill-rule="nonzero"></path>
    </g>
</svg>