<?xml version="1.0" encoding="UTF-8"?>
<svg width="60px" height="60px" viewBox="0 0 60 60" version="1.1" xmlns="http://www.w3.org/2000/svg" xmlns:xlink="http://www.w3.org/1999/xlink">
    <title>1. Icon/softwallet_import_keystore</title>
    <g id="1.-Icon/softwallet_import_keystore" stroke="none" stroke-width="1" fill="none" fill-rule="evenodd">
        <path d="M44.5,31.5 C51.9558441,31.5 58,37.3202983 58,44.5 C58,51.6797017 51.9558441,57.5 44.5,57.5 C37.0441559,57.5 31,51.6797017 31,44.5 C31,37.3202983 37.0441559,31.5 44.5,31.5 Z M44.6762525,36 L36.5502525,44.1058851 L39.3786797,46.9343123 L42.4992525,43.8127105 L42.5,52.0082866 L46.5,52.0082866 L46.4992525,43.4587105 L49.9748737,46.9343123 L52.8033009,44.1058851 L44.6762525,36 Z M31,-8.41993142e-13 L35.499,3.999 L45,12.444 L49,16 L49.0003911,29.6634396 C47.7284638,29.2781336 46.3873998,29.0519106 45.0003516,29.007923 L45,16 L31,16 L31,3.999 L4,4 L4,47 L29.2007046,47.0008753 C29.4287339,48.4066086 29.8458343,49.7489362 30.4250656,51.0009177 L2.60769184e-12,51 L2.60769184e-12,3.70903308e-12 L31,-8.41993142e-13 Z M37,22 L37,25 L8,25 L8,22 L37,22 Z M27,13 L27,16 L8,16 L8,13 L27,13 Z M34,6.681 L34,13 L41.109,13 L34,6.681 Z" id="softwallet_import_keystore" fill="#979797" fill-rule="nonzero"></path>
    </g>
</svg>