<svg width="16" height="16" viewBox="0 0 16 16" fill="none" xmlns="http://www.w3.org/2000/svg">
<path d="M8.00001 16C3.5888 16 0 12.4109 0 8.00001C0 3.58913 3.5888 0 8.00001 0C12.4112 0 16 3.58913 16 8.00001C16 12.4109 12.4115 16 8.00001 16ZM8.00001 1.6C4.47105 1.6 1.6 4.47105 1.6 8.00001C1.6 11.529 4.47105 14.4 8.00001 14.4C11.529 14.4 14.4 11.529 14.4 8.00001C14.4 4.47105 11.529 1.6 8.00001 1.6ZM5.83424 10.9658L4.23424 9.36578C3.9273 9.04797 3.9361 8.54152 4.2539 8.23458C4.56392 7.93515 5.05542 7.93515 5.36544 8.23458L6.4 9.26882L10.6346 5.03425C10.9524 4.72731 11.4588 4.73611 11.7658 5.05391C12.0652 5.36393 12.0652 5.85543 11.7658 6.16545L6.96576 10.9655H6.96576C6.65347 11.278 6.14694 11.2782 5.83439 10.9659C5.83434 10.9659 5.83429 10.9658 5.83424 10.9658L5.83424 10.9658Z" fill="#00C891"/>
</svg>
