<svg width="20" height="20" viewBox="0 0 20 20" fill="none" xmlns="http://www.w3.org/2000/svg">
<g clip-path="url(#clip0_1763_10921)">
<path fill-rule="evenodd" clip-rule="evenodd" d="M9.99984 0C10.4601 0 10.8332 0.373096 10.8332 0.833333V2.5C10.8332 2.96024 10.4601 3.33333 9.99984 3.33333C9.5396 3.33333 9.1665 2.96024 9.1665 2.5V0.833333C9.1665 0.373096 9.5396 0 9.99984 0ZM10 6.66667C8.15905 6.66667 6.66667 8.15905 6.66667 10C6.66667 11.8409 8.15905 13.3333 10 13.3333C11.8409 13.3333 13.3333 11.8409 13.3333 10C13.3333 8.15905 11.8409 6.66667 10 6.66667ZM5 10C5 7.23858 7.23858 5 10 5C12.7614 5 15 7.23858 15 10C15 12.7614 12.7614 15 10 15C7.23858 15 5 12.7614 5 10ZM10.8332 17.5C10.8332 17.0397 10.4601 16.6666 9.99984 16.6666C9.5396 16.6666 9.1665 17.0397 9.1665 17.5V19.1666C9.1665 19.6269 9.5396 20 9.99984 20C10.4601 20 10.8332 19.6269 10.8332 19.1666V17.5ZM2.92718 2.92731C3.25262 2.60187 3.78026 2.60187 4.10569 2.92731L5.28903 4.11064C5.61446 4.43608 5.61446 4.96371 5.28903 5.28915C4.96359 5.61459 4.43595 5.61459 4.11052 5.28915L2.92718 4.10582C2.60175 3.78038 2.60175 3.25274 2.92718 2.92731ZM15.8889 14.7108C15.5635 14.3853 15.0358 14.3853 14.7104 14.7108C14.3849 15.0362 14.3849 15.5638 14.7104 15.8893L15.8937 17.0726C16.2192 17.398 16.7468 17.398 17.0722 17.0726C17.3977 16.7472 17.3977 16.2195 17.0722 15.8941L15.8889 14.7108ZM0 9.99996C0 9.53972 0.373096 9.16663 0.833333 9.16663H2.5C2.96024 9.16663 3.33333 9.53972 3.33333 9.99996C3.33333 10.4602 2.96024 10.8333 2.5 10.8333H0.833333C0.373096 10.8333 0 10.4602 0 9.99996ZM17.4998 9.16663C17.0396 9.16663 16.6665 9.53972 16.6665 9.99996C16.6665 10.4602 17.0396 10.8333 17.4998 10.8333H19.1665C19.6267 10.8333 19.9998 10.4602 19.9998 9.99996C19.9998 9.53972 19.6267 9.16663 19.1665 9.16663H17.4998ZM5.28903 14.7108C5.61446 15.0362 5.61446 15.5638 5.28903 15.8893L4.10569 17.0726C3.78026 17.398 3.25262 17.398 2.92718 17.0726C2.60175 16.7472 2.60175 16.2195 2.92718 15.8941L4.11052 14.7108C4.43595 14.3853 4.96359 14.3853 5.28903 14.7108ZM17.0722 4.10582C17.3977 3.78038 17.3977 3.25274 17.0722 2.92731C16.7468 2.60187 16.2192 2.60187 15.8937 2.92731L14.7104 4.11064C14.3849 4.43608 14.3849 4.96371 14.7104 5.28915C15.0358 5.61459 15.5635 5.61459 15.8889 5.28915L17.0722 4.10582Z" fill="#00C891"/>
</g>
<defs>
<clipPath id="clip0_1763_10921">
<rect width="20" height="20" fill="white"/>
</clipPath>
</defs>
</svg>
