<svg width="14" height="14" viewBox="0 0 14 15" fill="none" xmlns="http://www.w3.org/2000/svg">
<path fill-rule="evenodd" clip-rule="evenodd" d="M7 14.5C10.866 14.5 14 11.366 14 7.5C14 3.63401 10.866 0.5 7 0.5C3.13401 0.5 0 3.63401 0 7.5C0 11.366 3.13401 14.5 7 14.5ZM7.00011 13.3313C10.2199 13.3313 12.8301 10.7211 12.8301 7.50125C12.8301 4.28142 10.2199 1.67122 7.00011 1.67122C3.78028 1.67122 1.17008 4.28142 1.17008 7.50125C1.17008 10.7211 3.78028 13.3313 7.00011 13.3313ZM4.91995 5.73991H10.2854C10.5995 5.73991 10.8542 5.99455 10.8542 6.30866C10.8542 6.62277 10.5995 6.87741 10.2854 6.87741H3.54792C3.2338 6.87741 2.97917 6.62277 2.97917 6.30866C2.97917 6.25787 2.98582 6.20864 2.99831 6.16178C3.0231 6.06776 3.07235 5.97884 3.14606 5.90512L5.17904 3.87215C5.40115 3.65004 5.76126 3.65004 5.98337 3.87215C6.20548 4.09426 6.20548 4.45437 5.98337 4.67648L4.91995 5.73991ZM3.48232 9.26009H8.84779L7.78437 10.3235C7.56226 10.5456 7.56226 10.9057 7.78437 11.1279C8.00648 11.35 8.36659 11.35 8.5887 11.1279L10.6217 9.09488C10.6954 9.02116 10.7446 8.93224 10.7694 8.83822C10.7819 8.79136 10.7886 8.74213 10.7886 8.69134C10.7886 8.37723 10.5339 8.12259 10.2198 8.12259H3.48232C3.16821 8.12259 2.91357 8.37723 2.91357 8.69134C2.91357 9.00545 3.16821 9.26009 3.48232 9.26009Z" fill="#999999"/>
</svg>
