<svg width="16" height="16" viewBox="0 0 16 16" fill="none" xmlns="http://www.w3.org/2000/svg">
<path fill-rule="evenodd" clip-rule="evenodd" d="M1.45455 8C1.45455 4.38505 4.38505 1.45455 8 1.45455C11.615 1.45455 14.5455 4.38505 14.5455 8C14.5455 11.615 11.615 14.5455 8 14.5455C4.38505 14.5455 1.45455 11.615 1.45455 8ZM8 0C3.58172 0 0 3.58172 0 8C0 12.4183 3.58172 16 8 16C12.4183 16 16 12.4183 16 8C16 3.58172 12.4183 0 8 0ZM8.72727 3.63636C8.72727 3.2347 8.40166 2.90909 8 2.90909C7.59834 2.90909 7.27273 3.2347 7.27273 3.63636V8C7.27273 8.27547 7.42837 8.5273 7.67475 8.65049L10.5838 10.105C10.9431 10.2847 11.38 10.139 11.5596 9.77979C11.7392 9.42054 11.5936 8.98368 11.2343 8.80405L8.72727 7.55052V3.63636Z" fill="#00C891"/>
</svg>
