<svg t="1637919844806" class="icon" viewBox="0 0 1024 1024" version="1.1" xmlns="http://www.w3.org/2000/svg" p-id="2303" width="16" height="16"><path d="M512 85.333333c235.52 0 426.666667 191.146667 426.666667 426.666667 0 235.52-191.146667 426.666667-426.666667 426.666667-235.52 0-426.666667-191.146667-426.666667-426.666667 0-235.52 191.146667-426.666667 426.666667-426.666667zM512 170.666667C323.584 170.666667 170.666667 323.584 170.666667 512s152.917333 341.333333 341.333333 341.333333 341.333333-152.917333 341.333333-341.333333-152.917333-341.333333-341.333333-341.333333z" p-id="2304" fill="#707070"></path><path d="M614.741333 698.538667H557.169778V426.211556A27.989333 27.989333 0 0 0 529.180444 398.222222H445.838222a27.989333 27.989333 0 1 0 0 55.978667h46.648889v244.337778H426.211556a27.989333 27.989333 0 1 0 0 55.978666h188.529777a27.989333 27.989333 0 1 0 0-55.978666zM456.021333 284.444444a55.978667 55.978667 0 1 0 111.957334 0 55.978667 55.978667 0 0 0-111.957334 0z" p-id="2305" fill="#707070"></path></svg>
