<svg width="16" height="16" viewBox="0 0 16 16" fill="none" xmlns="http://www.w3.org/2000/svg">
<path fill-rule="evenodd" clip-rule="evenodd" d="M3.96979 2.90866H2.28553L3.76767 2.10866L5.75123 1.03802C6.04117 0.881516 6.36322 0.799805 6.69009 0.799805C7.54012 0.799805 8.26834 1.34067 8.5722 2.10866C8.6698 2.35535 8.72362 2.62549 8.72362 2.90866H7.92362H3.96979ZM7.66692 2.10866L5.45194 2.10866L6.13121 1.74201C6.30539 1.648 6.49699 1.5998 6.69009 1.5998C7.0764 1.5998 7.43668 1.79456 7.66692 2.10866ZM2.01732 4.65356C2.09056 4.57761 2.18511 4.53623 2.28579 4.53623H14.1715C14.2722 4.53623 14.3667 4.57761 14.44 4.65356C14.5136 4.72989 14.562 4.83824 14.562 4.96339V7.7434H13.2417C12.7145 7.7434 12.2411 7.96696 11.9037 8.3184C11.5668 8.66942 11.3617 9.15089 11.3617 9.67673C11.3617 10.2026 11.5668 10.684 11.9037 11.0351C12.2411 11.3865 12.7145 11.6101 13.2417 11.6101H14.562V13.2004C14.562 13.3256 14.5136 13.4339 14.44 13.5103C14.3667 13.5862 14.2722 13.6276 14.1715 13.6276H2.28579C2.18511 13.6276 2.09056 13.5862 2.01732 13.5103C1.94372 13.4339 1.89531 13.3256 1.89531 13.2004V4.96339C1.89531 4.83824 1.94372 4.72989 2.01732 4.65356ZM2.28579 3.33623C1.83944 3.33623 1.43876 3.52478 1.15351 3.8206C0.86863 4.11603 0.695312 4.52126 0.695312 4.96339V13.2004C0.695312 13.6426 0.86863 14.0478 1.15351 14.3432C1.43876 14.639 1.83944 14.8276 2.28579 14.8276H14.1715C14.6178 14.8276 15.0185 14.639 15.3038 14.3432C15.5887 14.0478 15.762 13.6426 15.762 13.2004V4.96339C15.762 4.52126 15.5887 4.11603 15.3038 3.8206C15.0185 3.52478 14.6178 3.33623 14.1715 3.33623H2.28579ZM13.2417 8.9434C13.062 8.9434 12.8953 9.01832 12.7694 9.14944C12.6431 9.281 12.5617 9.46619 12.5617 9.67673C12.5617 9.88727 12.6431 10.0725 12.7694 10.204C12.8953 10.3351 13.062 10.4101 13.2417 10.4101H14.5617V8.9434H13.2417ZM5.81283 7.01364C5.9154 6.88898 6.06837 6.81674 6.2298 6.81674C6.38275 6.81674 6.52852 6.88161 6.63092 6.99523L6.71769 7.09151L7.86604 8.28261C8.05432 8.47789 8.0543 8.78714 7.86601 8.98241C7.66773 9.18803 7.33838 9.18798 7.14016 8.9823L6.71769 8.54391V10.9437C6.71769 11.2172 6.49596 11.439 6.22245 11.439C5.94894 11.439 5.72721 11.2172 5.72721 10.9437V8.57011L5.32965 8.98245C5.1314 9.18807 4.8021 9.18808 4.60383 8.98247C4.41552 8.78718 4.41552 8.47787 4.60385 8.28259L5.72721 7.1177L5.81283 7.01364Z" fill="white"/>
</svg>
