<svg width="16" height="16" viewBox="0 0 16 16" fill="none" xmlns="http://www.w3.org/2000/svg">
  <path fill-rule="evenodd" clip-rule="evenodd"
    d="M8 16C12.4183 16 16 12.4183 16 8C16 3.58172 12.4183 0 8 0C3.58172 0 0 3.58172 0 8C0 12.4183 3.58172 16 8 16ZM7.9998 14.6637C11.6796 14.6637 14.6627 11.6806 14.6627 8.00078C14.6627 4.32097 11.6796 1.33789 7.9998 1.33789C4.31999 1.33789 1.33691 4.32097 1.33691 8.00078C1.33691 11.6806 4.31999 14.6637 7.9998 14.6637ZM5.62266 5.99023H11.7553C12.1143 5.99023 12.4053 6.28125 12.4053 6.64023C12.4053 6.99922 12.1143 7.29023 11.7553 7.29023H4.05527C3.73029 7.29023 3.46102 7.05174 3.41292 6.74023C3.38171 6.5419 3.44253 6.33189 3.59536 6.17905L5.91876 3.85565C6.1726 3.60181 6.58416 3.60181 6.838 3.85565C7.09184 4.10949 7.09184 4.52105 6.838 4.77489L5.62266 5.99023ZM3.98008 10.0098H10.1127L8.89735 11.2251C8.64351 11.479 8.64351 11.8905 8.89735 12.1444C9.15119 12.3982 9.56275 12.3982 9.81659 12.1443L12.14 9.82095C12.2928 9.66811 12.3536 9.45811 12.3224 9.25977C12.2743 8.94826 12.0051 8.70977 11.6801 8.70977H3.98008C3.62109 8.70977 3.33008 9.00078 3.33008 9.35977C3.33008 9.71875 3.62109 10.0098 3.98008 10.0098Z"
    fill="#050505" />
</svg>
