<svg width="16" height="16" viewBox="0 0 16 16" fill="none" xmlns="http://www.w3.org/2000/svg">
<path fill-rule="evenodd" clip-rule="evenodd" d="M6.22735 1.49265C6.38348 1.33652 6.59524 1.2488 6.81604 1.2488H9.72992C9.95072 1.2488 10.1625 1.33652 10.3186 1.49265C10.4747 1.64878 10.5625 1.86054 10.5625 2.08134V2.91332H5.98351V2.08134C5.98351 1.86054 6.07122 1.64878 6.22735 1.49265ZM4.7347 2.91332V2.08134C4.7347 1.52933 4.95399 0.999937 5.34431 0.60961C5.73464 0.219283 6.26404 0 6.81604 0H9.72992C10.2819 0 10.8113 0.219283 11.2016 0.60961C11.592 0.999937 11.8113 1.52933 11.8113 2.08134V2.91332H14.8291C15.174 2.91332 15.4535 3.19287 15.4535 3.53772C15.4535 3.88257 15.174 4.16212 14.8291 4.16212H13.9967V13.7368C13.9967 14.2888 13.7774 14.8182 13.3871 15.2086C12.9967 15.5989 12.4673 15.8182 11.9153 15.8182H4.63064C4.07863 15.8182 3.54923 15.5989 3.15891 15.2086C2.76858 14.8182 2.5493 14.2888 2.5493 13.7368V4.16212H1.71669C1.37184 4.16212 1.09229 3.88257 1.09229 3.53772C1.09229 3.19287 1.37184 2.91332 1.71669 2.91332H3.17362H4.7347ZM5.3591 4.16268H11.1869H12.7479V13.7368C12.7479 13.9576 12.6601 14.1694 12.504 14.3255C12.3479 14.4817 12.1361 14.5694 11.9153 14.5694H4.63064C4.40983 14.5694 4.19807 14.4817 4.04194 14.3255C3.88581 14.1694 3.7981 13.9576 3.7981 13.7368V4.16268H5.3591ZM6.81612 6.55541C7.16097 6.55541 7.44052 6.83496 7.44052 7.17981V11.5506C7.44052 11.8955 7.16097 12.175 6.81612 12.175C6.47127 12.175 6.19172 11.8955 6.19172 11.5506V7.17981C6.19172 6.83496 6.47127 6.55541 6.81612 6.55541ZM10.3538 7.17981C10.3538 6.83496 10.0742 6.55541 9.72938 6.55541C9.38453 6.55541 9.10498 6.83496 9.10498 7.17981V11.5506C9.10498 11.8955 9.38453 12.175 9.72938 12.175C10.0742 12.175 10.3538 11.8955 10.3538 11.5506V7.17981Z" fill="#8DA394"/>
</svg>
