<svg width="16" height="16" viewBox="0 0 16 16" fill="none" xmlns="http://www.w3.org/2000/svg">
<g clip-path="url(#clip0_22441_10637)">
<path d="M13 5.5H6.25V4.25C6.25 3.78587 6.43437 3.34075 6.76256 3.01256C7.09075 2.68437 7.53587 2.5 8 2.5C8.84438 2.5 9.60313 3.10125 9.765 3.89937C9.78462 3.9959 9.82305 4.08761 9.87811 4.16928C9.93317 4.25094 10.0038 4.32097 10.0859 4.37535C10.168 4.42973 10.2601 4.4674 10.3567 4.48621C10.4534 4.50503 10.5529 4.50462 10.6494 4.485C10.7459 4.46538 10.8376 4.42695 10.9193 4.37189C11.0009 4.31683 11.071 4.24622 11.1253 4.1641C11.1797 4.08198 11.2174 3.98995 11.2362 3.89327C11.255 3.79659 11.2546 3.69715 11.235 3.60063C10.9294 2.09375 9.56875 1 8 1C7.13835 1.00099 6.31228 1.34372 5.703 1.953C5.09372 2.56228 4.75099 3.38835 4.75 4.25V5.5H3C2.66848 5.5 2.35054 5.6317 2.11612 5.86612C1.8817 6.10054 1.75 6.41848 1.75 6.75V13.75C1.75 14.0815 1.8817 14.3995 2.11612 14.6339C2.35054 14.8683 2.66848 15 3 15H13C13.3315 15 13.6495 14.8683 13.8839 14.6339C14.1183 14.3995 14.25 14.0815 14.25 13.75V6.75C14.25 6.41848 14.1183 6.10054 13.8839 5.86612C13.6495 5.6317 13.3315 5.5 13 5.5ZM12.75 13.5H3.25V7H12.75V13.5ZM7.25 11.6038V12C7.25 12.1989 7.32902 12.3897 7.46967 12.5303C7.61032 12.671 7.80109 12.75 8 12.75C8.19891 12.75 8.38968 12.671 8.53033 12.5303C8.67098 12.3897 8.75 12.1989 8.75 12V11.6038C9.18027 11.4297 9.5366 11.1114 9.75794 10.7035C9.97927 10.2955 10.0518 9.82326 9.96317 9.36767C9.87451 8.91208 9.63016 8.50151 9.27199 8.20632C8.91382 7.91113 8.46414 7.7497 8 7.7497C7.53586 7.7497 7.08618 7.91113 6.72801 8.20632C6.36984 8.50151 6.12548 8.91208 6.03683 9.36767C5.94817 9.82326 6.02073 10.2955 6.24206 10.7035C6.4634 11.1114 6.81973 11.4297 7.25 11.6038ZM8 9.25C8.09889 9.25 8.19556 9.27932 8.27779 9.33426C8.36001 9.38921 8.4241 9.4673 8.46194 9.55866C8.49978 9.65002 8.50969 9.75056 8.49039 9.84755C8.4711 9.94454 8.42348 10.0336 8.35355 10.1036C8.28363 10.1735 8.19454 10.2211 8.09755 10.2404C8.00056 10.2597 7.90002 10.2498 7.80866 10.2119C7.7173 10.1741 7.63921 10.11 7.58427 10.0278C7.52932 9.94556 7.5 9.84889 7.5 9.75C7.5 9.61739 7.55268 9.49021 7.64645 9.39645C7.74021 9.30268 7.86739 9.25 8 9.25Z" fill="#8DA394"/>
</g>
<defs>
<clipPath id="clip0_22441_10637">
<rect width="16" height="16" fill="white"/>
</clipPath>
</defs>
</svg>
