<svg width="16" height="16" viewBox="0 0 16 16" fill="none" xmlns="http://www.w3.org/2000/svg">
<path fill-rule="evenodd" clip-rule="evenodd" d="M7.19948 10.4145L7.19948 2.73137L4.56516 5.36569C4.25274 5.67811 3.74621 5.67811 3.43379 5.36569C3.12137 5.05327 3.12137 4.54673 3.43379 4.23432L7.43379 0.234315C7.74621 -0.078104 8.25274 -0.078104 8.56516 0.234315L12.5652 4.23431C12.8776 4.54673 12.8776 5.05327 12.5652 5.36569C12.2527 5.6781 11.7462 5.6781 11.4338 5.36569L8.79948 2.73137V10.4145C8.79948 10.8484 8.44131 11.2002 7.99948 11.2002C7.55765 11.2002 7.19948 10.8484 7.19948 10.4145ZM1.6 10.4002C1.6 9.95841 1.24183 9.60024 0.8 9.60024C0.358172 9.60024 0 9.95841 0 10.4002V13.6002C0 14.2368 0.252856 14.8472 0.702944 15.2973C1.15303 15.7474 1.76348 16.0002 2.4 16.0002H13.6C14.2365 16.0002 14.847 15.7474 15.2971 15.2973C15.7471 14.8472 16 14.2368 16 13.6002V10.4002C16 9.95841 15.6418 9.60024 15.2 9.60024C14.7582 9.60024 14.4 9.95841 14.4 10.4002V13.6002C14.4 13.8124 14.3157 14.0159 14.1657 14.1659C14.0157 14.316 13.8122 14.4002 13.6 14.4002H2.4C2.18783 14.4002 1.98434 14.316 1.83431 14.1659C1.68429 14.0159 1.6 13.8124 1.6 13.6002V10.4002Z" fill="#00C891"/>
</svg>
