<?xml version="1.0" standalone="no"?><!DOCTYPE svg PUBLIC "-//W3C//DTD SVG 1.1//EN" "http://www.w3.org/Graphics/SVG/1.1/DTD/svg11.dtd"><svg t="1645448345544" class="icon" viewBox="0 0 1024 1024" version="1.1" xmlns="http://www.w3.org/2000/svg" p-id="9944" width="16" height="16" xmlns:xlink="http://www.w3.org/1999/xlink"><defs><style type="text/css"></style></defs><path d="M904 632c30.912 0 56 25.088 56 56v216a56 56 0 0 1-56 56H120A56 56 0 0 1 64 904V688a56 56 0 0 1 112 0v160h672v-160c0-30.912 25.088-56 56-56zM512.192 64c14.336 0 28.672 5.44 39.68 16.384l237.44 237.568a56 56 0 1 1-79.168 79.168l-142.144-142.08v401.728a56 56 0 0 1-112 0V255.36L314.24 397.12A56 56 0 0 1 234.88 317.952l221.248-221.184 16.384-16.384A55.808 55.808 0 0 1 512.192 64z" p-id="9945" fill="#ffffff"></path></svg>