<?xml version="1.0" encoding="UTF-8"?>
<svg width="8px" height="8px" viewBox="0 0 8 8" version="1.1" xmlns="http://www.w3.org/2000/svg" xmlns:xlink="http://www.w3.org/1999/xlink">
    <!-- Generator: Sketch 52.4 (67378) - http://www.bohemiancoding.com/sketch -->
    <title>Group 6 Copy</title>
    <desc>Created with Sketch.</desc>
    <g id="Page-1" stroke="none" stroke-width="1" fill="none" fill-rule="evenodd">
        <g id="Group-6-Copy">
            <circle id="Oval-Copy" fill="#D50000" fill-rule="nonzero" cx="4" cy="4" r="4"></circle>
            <g id="Group" transform="translate(3.500000, 2.000000)" fill="#FFFFFF">
                <path d="M0.6,3.76986667 C0.352133333,3.76986667 0.150466667,3.97153333 0.150466667,4.2194 C0.150466667,4.46734 0.352133333,4.66900667 0.6,4.66900667 C0.847866667,4.66900667 1.04953333,4.46734 1.04953333,4.2194 C1.04953333,3.97153333 0.847866667,3.76986667 0.6,3.76986667 Z" id="Path"></path>
                <path d="M0.968133333,0.131066667 L0.231866667,0.131066667 C0.187133333,0.131066667 0.150466667,0.167733333 0.150466667,0.212466667 L0.150466667,3.16853333 C0.150466667,3.21392667 0.187133333,3.25059333 0.231866667,3.25059333 L0.968133333,3.25059333 C1.01286667,3.25059333 1.04953333,3.21392667 1.04953333,3.16853333 L1.04953333,0.212466667 C1.04953333,0.167733333 1.01286667,0.131066667 0.968133333,0.131066667 Z" id="Path"></path>
            </g>
        </g>
    </g>
</svg>